<svg xmlns="http://www.w3.org/2000/svg" width="80" height="80" viewBox="0 0 80 80"><path class="symbol" fill-rule="evenodd" d="M40 61.406c-2.932-3.5-4.706-8.01-4.706-12.935l.008-32.003c0-2.61 2.11-4.732 4.706-4.732 2.595 0 4.706 2.122 4.706 4.732l-.008 32.006c0 4.925-1.775 9.436-4.706 12.936zM75.294 48.47c0 11.092-8.873 20.115-19.9 20.115-4.443 0-8.587-1.482-11.91-3.955 3.716-4.35 5.928-9.99 5.928-16.16l.008-32.005c0-5.22-4.223-9.465-9.412-9.465-5.19 0-9.412 4.246-9.412 9.465l-.008 32.006c0 6.17 2.36 11.81 6.076 16.16-3.323 2.475-7.467 3.957-11.91 3.957-11.027 0-20.048-9.023-20.048-20.114V9.428H0V48.47c0 13.7 11.182 24.85 24.805 24.85 5.775 0 11.132-2.02 15.343-5.37 4.212 3.35 9.445 5.37 15.22 5.37C68.99 73.318 80 62.17 80 48.47V9.428h-4.706V48.47z"/></svg>
