<svg xmlns="http://www.w3.org/2000/svg" width="80" height="80" viewBox="0 0 80 80"><path class="w" fill-rule="evenodd" d="M39.999853 64.183452c-2.93146-3.500073-4.705865-8.010613-4.705865-12.93446l.008235-32.006037c0-2.610103 2.110875-4.732588 4.705865-4.732588 2.594696 0 4.705865 2.122485 4.705865 4.732588l-.008235 32.006038c0 4.923846-1.774405 9.434387-4.705865 12.93446zm35.293988-12.93446c0 11.091164-8.87261 20.11402-19.900803 20.11402-4.442043 0-8.586145-1.4818-11.909074-3.955123 3.715574-4.34919 5.927625-9.98892 5.927625-16.1589l.008235-32.00604c0-5.21902-4.22234-9.465177-9.41173-9.465177-5.18969 0-9.41173 4.246155-9.41173 9.465177l-.008237 32.00604c0 6.16998 2.36058 11.80971 6.076154 16.158896-3.32293 2.47332-7.46703 3.955123-11.909075 3.955123-11.028195 0-20.049338-9.022858-20.049338-20.11402V12.204616H0v39.044376c0 13.700082 11.181724 24.84661 24.80491 24.84661 5.775566 0 11.132017-2.018568 15.343472-5.370905 4.211455 3.352334 9.444377 5.3709 15.219944 5.3709C68.991216 76.095603 80 64.949076 80 51.248993V12.204618h-4.70616v39.044376z"/></svg>