<svg xmlns="http://www.w3.org/2000/svg" xmlns:xlink="http://www.w3.org/1999/xlink" width="222" height="222" viewBox="0 0 222 222" class="wire"><path fill-rule="evenodd" d="M54.748 132.145c-2.913-3.483-4.676-7.972-4.676-12.873l.008-31.852c0-2.598 2.097-4.71 4.676-4.71 2.578 0 4.676 2.112 4.676 4.71l-.008 31.852c0 4.9-1.763 9.39-4.676 12.873zm35.072-12.873c0 11.038-8.817 20.018-19.776 20.018-4.414 0-8.532-1.475-11.834-3.936 3.692-4.328 5.89-9.94 5.89-16.082l.01-31.852c0-5.194-4.197-9.42-9.354-9.42-5.157 0-9.352 4.226-9.352 9.42l-.01 31.852c0 6.14 2.347 11.754 6.04 16.082-3.303 2.46-7.42 3.936-11.835 3.936-10.96 0-19.926-8.98-19.926-20.018V80.415H15v38.857C15 132.907 26.11 144 39.65 144c5.738 0 11.06-2.01 15.246-5.345C59.08 141.99 64.28 144 70.02 144c13.537 0 24.476-11.093 24.476-24.728V80.415H89.82v38.857zm18.712 23.48h4.677V80.287h-4.68v62.465zm45.616-63.554c-9.227 0-17.384 4.703-22.235 11.854V80.288h-4.676v62.465h4.676v-36.445h.003c0-12.346 9.973-22.39 22.232-22.39v-4.72zm8.765 50.252c-9.1-10.87-8.573-27.193 1.582-37.43 10.155-10.238 26.346-10.768 37.128-1.596l-38.71 39.026zm45.334-39.036c-.507-.59-1.037-1.167-1.593-1.728-12.535-12.637-32.93-12.637-45.466 0-12.535 12.637-12.535 33.2 0 45.836 12.533 12.635 32.925 12.637 45.46.006l-3.306-3.334c-10.155 10.232-26.342 10.76-37.123 1.59l19.35-19.508 22.675-22.862zm4.323-9.59h1.637v4.248h.498v-4.248h1.643v-.467h-3.778v.467zm8.693-.467l-1.63 4.092-1.62-4.095h-.766v4.714h.477v-4.21l1.67 4.21h.457l1.667-4.197v4.197H222v-4.71h-.737z"/></svg>