<svg xmlns="http://www.w3.org/2000/svg" width="640" height="400" viewBox="0 0 640 400" xmlns:xlink="http://www.w3.org/1999/xlink">
  <defs>
    <path id="a" d="M41 35h554v327H41z"/>
    <mask id="c" width="554" height="327" x="0" y="0" fill="#fff">
      <use xlink:href="#a"/>
    </mask>
    <path id="b" d="M148 144h339v110H148z"/>
    <mask id="d" width="339" height="110" x="0" y="0" fill="#fff">
      <use xlink:href="#b"/>
    </mask>
    <path id="e" d="M216.444 232.872c-4.84-5.78-7.77-13.225-7.77-21.354l.014-52.84c0-4.31 3.485-7.813 7.77-7.813 4.283 0 7.768 3.504 7.768 7.813l-.013 52.84c0 8.13-2.93 15.575-7.77 21.354zm58.268-21.354c0 18.31-14.65 33.207-32.855 33.207-7.334 0-14.176-2.447-19.66-6.53 6.133-7.18 9.785-16.49 9.785-26.677l.013-52.84c0-8.616-6.97-15.626-15.538-15.626-8.568 0-15.538 7.01-15.538 15.626l-.02 52.84c0 10.186 3.9 19.497 10.03 26.677-5.49 4.083-12.33 6.53-19.66 6.53-18.21 0-33.1-14.896-33.1-33.207v-64.46h-7.77v64.46c0 22.618 18.46 41.02 40.95 41.02 9.53 0 18.38-3.333 25.33-8.867 6.95 5.54 15.59 8.87 25.13 8.87 22.49 0 40.66-18.4 40.66-41.02v-64.46h-7.77v64.46zm31.09 38.95h7.768V146.846h-7.77v103.622zm75.785-105.43c-15.33 0-28.882 7.803-36.94 19.665v-17.856h-7.77V250.47h7.77v-60.46h.003c0-20.48 16.57-37.142 36.937-37.142v-7.83zm14.56 83.364c-15.115-18.033-14.24-45.11 2.63-62.093 16.87-16.99 43.77-17.87 61.685-2.65l-64.314 64.74zm75.32-64.757c-.842-.98-1.723-1.936-2.647-2.867-20.825-20.963-54.71-20.963-75.536 0-20.826 20.964-20.826 55.074 0 76.038 20.822 20.96 54.7 20.963 75.527.008l-5.49-5.53c-16.87 16.974-43.76 17.852-61.67 2.638l32.15-32.36 37.68-37.927zm7.183-15.908h2.718v7.045h.828v-7.045h2.73v-.775h-6.276v.775zm14.44-.775l-2.705 6.787-2.695-6.79h-1.27v7.82h.792v-6.99l2.776 6.98h.758l2.765-6.965v6.962h.81v-7.82h-1.22z"/>
  </defs>
  <g fill="none" fill-rule="evenodd" transform="translate(2)">
    <ellipse cx="95" cy="199" stroke="#FB0807" stroke-opacity=".24" rx="54" ry="54"/>
    <circle cx="539.594" cy="199" r="54" stroke="#FB0807" stroke-opacity=".24"/>
    <ellipse cx="318" cy="90" stroke="#FB0807" stroke-opacity=".24" rx="54" ry="54"/>
    <circle cx="318" cy="307" r="54" stroke="#FB0807" stroke-opacity=".24"/>
    <path stroke="#E6EBEE" d="M148.5.5v399M41.5.5v399m445-399v399m108-399v399M0 144.5h635.053M0 253.5h635.053M0 35.5h635.053M0 361.5h635.053" stroke-linecap="square"/>
    <use fill="#FB0807" fill-opacity=".04" stroke="#BAC8D1" stroke-width="2" mask="url(#c)" xlink:href="#a"/>
    <use fill="#FFF" stroke="#BAC8D1" stroke-width="2" mask="url(#d)" xlink:href="#b"/>
    <circle cx="431" cy="199" r="54" fill="#FB0807" fill-opacity=".32"/>
    <use fill="#8D989F" xlink:href="#e"/>
    <use fill="#000" fill-opacity=".72" xlink:href="#e"/>
  </g>
</svg>
