<svg xmlns="http://www.w3.org/2000/svg" width="840" height="560" viewBox="0 0 840 560" xmlns:xlink="http://www.w3.org/1999/xlink">
  <defs>
    <path id="a" d="M0 0h420v280H0z"/>
    <mask id="c" width="420" height="280" x="0" y="0" fill="#fff">
      <use xlink:href="#a"/>
    </mask>
    <path id="d" d="M420 0h420v280H420z"/>
    <path id="b" d="M420 280h420v280H420z"/>
    <mask id="e" width="420" height="280" x="0" y="0" fill="#fff">
      <use xlink:href="#b"/>
    </mask>
    <path id="f" d="M146.748 161.145a20.004 20.004 0 0 1-4.676-12.873l.008-31.852c0-2.598 2.097-4.71 4.676-4.71 2.578 0 4.676 2.112 4.676 4.71l-.008 31.852c0 4.9-1.763 9.39-4.676 12.873zm35.072-12.873c0 11.038-8.817 20.018-19.776 20.018a19.796 19.796 0 0 1-11.834-3.936c3.692-4.328 5.89-9.941 5.89-16.082l.009-31.852c0-5.194-4.196-9.42-9.353-9.42s-9.352 4.226-9.352 9.42l-.009 31.852c0 6.14 2.346 11.754 6.038 16.082a19.796 19.796 0 0 1-11.834 3.936c-10.958 0-19.923-8.98-19.923-20.018v-38.857H107v38.857C107 161.907 118.111 173 131.649 173a24.44 24.44 0 0 0 15.247-5.345C151.08 170.99 156.28 173 162.02 173c13.537 0 24.476-11.093 24.476-24.728v-38.857h-4.676v38.857zm18.712 23.48h4.677v-62.465h-4.677v62.465zm45.616-63.554c-9.227 0-17.384 4.703-22.235 11.854v-10.764h-4.676v62.465h4.676v-36.445h.003c0-12.346 9.973-22.39 22.232-22.39v-4.72zm8.765 50.252c-9.1-10.87-8.573-27.193 1.582-37.43 10.155-10.238 26.346-10.768 37.128-1.596l-38.71 39.026zm45.334-39.036a32.723 32.723 0 0 0-1.593-1.728c-12.535-12.637-32.93-12.637-45.466 0-12.535 12.637-12.535 33.2 0 45.836 12.533 12.635 32.925 12.637 45.46.006l-3.306-3.334c-10.155 10.232-26.342 10.761-37.123 1.59l19.35-19.508 22.678-22.862zm4.323-9.59h1.637v4.248h.498v-4.248h1.643v-.467h-3.778v.467zm8.693-.467l-1.63 4.092-1.62-4.092h-.766v4.714h.477v-4.211l1.671 4.211h.456l1.664-4.197v4.197H314v-4.714h-.737z"/>
  </defs>
  <g fill="none" fill-rule="evenodd">
    <use fill="#FFF" stroke="#F1F4F5" stroke-width="2" mask="url(#c)" xlink:href="#a"/>
    <path fill="#2391D3" d="M0 280h420v280H0z"/>
    <use fill="#8D989F" xlink:href="#d"/>
    <use fill="#000" fill-opacity=".72" xlink:href="#d"/>
    <use fill="#FFF" stroke="#F1F4F5" stroke-width="2" mask="url(#e)" xlink:href="#b"/>
    <use fill="#8D989F" xlink:href="#f"/>
    <use fill="#000" fill-opacity=".72" xlink:href="#f"/>
    <path fill="#FFF" d="M146.748 441.145a20.004 20.004 0 0 1-4.676-12.873l.008-31.852c0-2.598 2.097-4.71 4.676-4.71 2.578 0 4.676 2.112 4.676 4.71l-.008 31.852c0 4.9-1.763 9.39-4.676 12.873zm35.072-12.873c0 11.038-8.817 20.018-19.776 20.018a19.796 19.796 0 0 1-11.834-3.936c3.692-4.328 5.89-9.941 5.89-16.082l.009-31.852c0-5.194-4.196-9.42-9.353-9.42s-9.352 4.226-9.352 9.42l-.009 31.852c0 6.14 2.346 11.754 6.038 16.082a19.796 19.796 0 0 1-11.834 3.936c-10.958 0-19.923-8.98-19.923-20.018v-38.857H107v38.857C107 441.907 118.111 453 131.649 453a24.44 24.44 0 0 0 15.247-5.345C151.08 450.99 156.28 453 162.02 453c13.537 0 24.476-11.093 24.476-24.728v-38.857h-4.676v38.857zm18.712 23.48h4.677v-62.465h-4.677v62.465zm45.616-63.554c-9.227 0-17.384 4.703-22.235 11.854v-10.764h-4.676v62.465h4.676v-36.445h.003c0-12.346 9.973-22.39 22.232-22.39v-4.72zm8.765 50.252c-9.1-10.87-8.573-27.193 1.582-37.43 10.155-10.238 26.346-10.768 37.128-1.596l-38.71 39.026zm45.334-39.036a32.723 32.723 0 0 0-1.593-1.728c-12.535-12.637-32.93-12.637-45.466 0-12.535 12.637-12.535 33.2 0 45.836 12.533 12.635 32.925 12.637 45.46.006l-3.306-3.334c-10.155 10.232-26.342 10.761-37.123 1.59l19.35-19.508 22.678-22.862zm4.323-9.59h1.637v4.248h.498v-4.248h1.643v-.467h-3.778v.467zm8.693-.467l-1.63 4.092-1.62-4.092h-.766v4.714h.477v-4.211l1.671 4.211h.456l1.664-4.197v4.197H314v-4.714h-.737zm253.485-228.212a20.004 20.004 0 0 1-4.676-12.873l.008-31.852c0-2.598 2.097-4.71 4.676-4.71 2.578 0 4.676 2.112 4.676 4.71l-.008 31.852c0 4.9-1.763 9.39-4.676 12.873zm35.072-12.873c0 11.038-8.817 20.018-19.776 20.018a19.796 19.796 0 0 1-11.834-3.936c3.692-4.328 5.89-9.941 5.89-16.082l.009-31.852c0-5.194-4.196-9.42-9.353-9.42s-9.352 4.226-9.352 9.42l-.009 31.852c0 6.14 2.346 11.754 6.038 16.082a19.796 19.796 0 0 1-11.834 3.936c-10.958 0-19.923-8.98-19.923-20.018v-38.857H527v38.857C527 161.907 538.111 173 551.649 173a24.44 24.44 0 0 0 15.247-5.345C571.08 170.99 576.28 173 582.02 173c13.537 0 24.476-11.093 24.476-24.728v-38.857h-4.676v38.857zm18.712 23.48h4.677v-62.465h-4.677v62.465zm45.616-63.554c-9.227 0-17.384 4.703-22.235 11.854v-10.764h-4.676v62.465h4.676v-36.445h.003c0-12.346 9.973-22.39 22.232-22.39v-4.72zm8.765 50.252c-9.1-10.87-8.573-27.193 1.582-37.43 10.155-10.238 26.346-10.768 37.128-1.596l-38.71 39.026zm45.334-39.036a32.723 32.723 0 0 0-1.593-1.728c-12.535-12.637-32.93-12.637-45.466 0-12.535 12.637-12.535 33.2 0 45.836 12.533 12.635 32.925 12.637 45.46.006l-3.306-3.334c-10.155 10.232-26.342 10.761-37.123 1.59l19.35-19.508 22.678-22.862zm4.323-9.59h1.637v4.248h.498v-4.248h1.643v-.467h-3.778v.467zm8.693-.467l-1.63 4.092-1.62-4.092h-.766v4.714h.477v-4.211l1.671 4.211h.456l1.664-4.197v4.197H734v-4.714h-.737z"/>
    <path fill="#00C800" d="M566.748 441.145a20.004 20.004 0 0 1-4.676-12.873l.008-31.852c0-2.598 2.097-4.71 4.676-4.71 2.578 0 4.676 2.112 4.676 4.71l-.008 31.852c0 4.9-1.763 9.39-4.676 12.873zm35.072-12.873c0 11.038-8.817 20.018-19.776 20.018a19.796 19.796 0 0 1-11.834-3.936c3.692-4.328 5.89-9.941 5.89-16.082l.009-31.852c0-5.194-4.196-9.42-9.353-9.42s-9.352 4.226-9.352 9.42l-.009 31.852c0 6.14 2.346 11.754 6.038 16.082a19.796 19.796 0 0 1-11.834 3.936c-10.958 0-19.923-8.98-19.923-20.018v-38.857H527v38.857C527 441.907 538.111 453 551.649 453a24.44 24.44 0 0 0 15.247-5.345C571.08 450.99 576.28 453 582.02 453c13.537 0 24.476-11.093 24.476-24.728v-38.857h-4.676v38.857zm18.712 23.48h4.677v-62.465h-4.677v62.465zm45.616-63.554c-9.227 0-17.384 4.703-22.235 11.854v-10.764h-4.676v62.465h4.676v-36.445h.003c0-12.346 9.973-22.39 22.232-22.39v-4.72zm8.765 50.252c-9.1-10.87-8.573-27.193 1.582-37.43 10.155-10.238 26.346-10.768 37.128-1.596l-38.71 39.026zm45.334-39.036a32.723 32.723 0 0 0-1.593-1.728c-12.535-12.637-32.93-12.637-45.466 0-12.535 12.637-12.535 33.2 0 45.836 12.533 12.635 32.925 12.637 45.46.006l-3.306-3.334c-10.155 10.232-26.342 10.761-37.123 1.59l19.35-19.508 22.678-22.862zm4.323-9.59h1.637v4.248h.498v-4.248h1.643v-.467h-3.778v.467zm8.693-.467l-1.63 4.092-1.62-4.092h-.766v4.714h.477v-4.211l1.671 4.211h.456l1.664-4.197v4.197H734v-4.714h-.737z"/>
  </g>
</svg>
