<svg xmlns="http://www.w3.org/2000/svg" width="640" height="400" viewBox="0 0 640 400" xmlns:xlink="http://www.w3.org/1999/xlink">
  <defs>
    <path id="a" d="M41 35h554v327H41z"/>
    <mask id="c" width="554" height="327" x="0" y="0" fill="#fff">
      <use xlink:href="#a"/>
    </mask>
    <path id="b" d="M150 144h336v110H150z"/>
    <mask id="d" width="336" height="110" x="0" y="0" fill="#fff">
      <use xlink:href="#b"/>
    </mask>
    <path id="e" d="M216.443504 232.871775c-4.839652-5.778395-7.76908-13.225008-7.76908-21.353961l.013595-52.839908c0-4.309113 3.484919-7.8132 7.769081-7.8132 4.283677 0 7.76908 3.504087 7.76908 7.8132l-.013596 52.839908c0 8.128953-2.929428 15.575566-7.76908 21.353961zm58.268103-21.353961c0 18.310796-14.648115 33.206953-32.854955 33.206953-7.333527 0-14.175173-2.44636-19.661115-6.529654 6.134174-7.180226 9.786128-16.491057 9.786128-26.677299l.013596-52.839908c0-8.616271-6.970808-15.626399-15.538161-15.626399-8.567839 0-15.538161 7.010128-15.538161 15.626399l-.013596 52.839908c0 10.186242 3.897165 19.497073 10.03134 26.677299-5.485942 4.083294-12.327589 6.529654-19.661115 6.529654-18.20684 0-33.100167-14.896157-33.100167-33.206953v-64.459751h-7.76908v64.459751c0 22.617954 18.460306 41.020153 40.951308 41.020153 9.535089 0 18.378245-3.332524 25.331087-8.867016 6.952841 5.534492 15.592058 8.867016 25.127148 8.867016 22.490517 0 40.665309-18.402199 40.665309-41.020153v-64.459751h-7.769566v64.459751zm31.089481 38.9504h7.76908V146.846175h-7.76908v103.622039zm75.786311-105.428728c-15.330824 0-28.882528 7.801468-36.941492 19.663259v-17.856228h-7.76908v103.62204h7.76908v-60.457106h.00437c0-20.481483 16.569992-37.143614 36.937122-37.143614v-7.828351zm14.561004 83.362171c-15.116688-18.032679-14.242181-45.110291 2.628863-62.093063 16.871044-16.982773 43.770513-17.863071 61.684556-2.646273l-64.313419 64.739336zm75.318322-64.756932c-.841974-.979521-1.722794-1.93607-2.646343-2.866225-20.825506-20.963422-54.711321-20.963422-75.536827 0-20.825506 20.963423-20.825506 55.073648 0 76.037071 20.822592 20.960001 54.701124 20.962934 75.527601.008798l-5.493711-5.530093c-16.871529 16.973974-43.764687 17.85134-61.675331 2.637474l32.147484-32.36087 37.677127-37.926155zm7.183-15.908182h2.718207v7.045809h.827893v-7.045809h2.72986v-.774722h-6.27596v.774722zm14.441701-.774917l-2.706554 6.787243-2.694414-6.787243h-1.271701v7.820531h.792932v-6.986667l2.776475 6.986667h.757971l2.764821-6.963206v6.963206h.805071v-7.820531h-1.224601z"/>
  </defs>
  <g fill="none" fill-rule="evenodd" transform="translate(2)">
    <ellipse cx="96" cy="199" stroke="#FB0807" stroke-opacity=".24" rx="54" ry="54"/>
    <circle cx="539.593679" cy="199" r="54" stroke="#FB0807" stroke-opacity=".24"/>
    <ellipse cx="318" cy="90" stroke="#FB0807" stroke-opacity=".24" rx="54" ry="54"/>
    <circle cx="317.5" cy="307.5" r="53.5" stroke="#FB0807" stroke-opacity=".24"/>
    <path stroke="#E6EBEE" d="M150.5.5v399M41.5.5v399m444-399v399m109-399v399M0 144.5h635.052684M0 253.5h635.052684M0 35.5h635.052684M0 361.5h635.052684" stroke-linecap="square"/>
    <use fill="#FB0807" fill-opacity=".04" stroke="#BAC8D1" stroke-width="2" mask="url(#c)" xlink:href="#a"/>
    <use fill="#FFF" stroke="#BAC8D1" stroke-width="2" mask="url(#d)" xlink:href="#b"/>
    <circle cx="430.75" cy="198.75" r="53.75" fill="#FB0807" fill-opacity=".32"/>
    <use fill="#8D989F" xlink:href="#e"/>
    <use fill="#000" fill-opacity=".72" xlink:href="#e"/>
  </g>
</svg>
