<svg xmlns="http://www.w3.org/2000/svg" width="840" height="560" viewBox="0 0 840 560" xmlns:xlink="http://www.w3.org/1999/xlink">
  <defs>
    <path id="a" d="M0 128h420v280H0z"/>
    <mask id="c" width="420" height="280" x="0" y="0" fill="#fff">
      <use xlink:href="#a"/>
    </mask>
    <path id="d" d="M420 128h420v280H420z"/>
    <path id="b" d="M420 408h420v280H420z"/>
    <mask id="e" width="420" height="280" x="0" y="0" fill="#fff">
      <use xlink:href="#b"/>
    </mask>
    <path id="f" d="M152.748 289.145c-2.913-3.483-4.676-7.972-4.676-12.873l.008-31.852c0-2.598 2.097-4.71 4.676-4.71 2.578 0 4.676 2.112 4.676 4.71l-.008 31.852c0 4.9-1.763 9.39-4.676 12.873zm35.072-12.873c0 11.038-8.817 20.018-19.776 20.018-4.414 0-8.532-1.475-11.834-3.936 3.692-4.328 5.89-9.94 5.89-16.082l.01-31.852c0-5.194-4.197-9.42-9.354-9.42-5.157 0-9.352 4.226-9.352 9.42l-.01 31.852c0 6.14 2.347 11.754 6.04 16.082-3.303 2.46-7.42 3.936-11.835 3.936-10.96 0-19.926-8.98-19.926-20.018v-38.857H113v38.857C113 289.907 124.11 301 137.65 301c5.738 0 11.06-2.01 15.246-5.345C157.08 298.99 162.28 301 168.02 301c13.537 0 24.476-11.093 24.476-24.728v-38.857h-4.676v38.857zm18.712 23.48h4.677v-62.465h-4.68v62.465zm45.616-63.554c-9.227 0-17.384 4.703-22.235 11.854v-10.764h-4.676v62.465h4.676v-36.445h.003c0-12.346 9.973-22.39 22.232-22.39v-4.72zm8.765 50.252c-9.1-10.87-8.573-27.193 1.582-37.43 10.155-10.238 26.346-10.768 37.128-1.596l-38.71 39.026zm45.334-39.036c-.507-.59-1.037-1.167-1.593-1.728-12.535-12.637-32.93-12.637-45.466 0-12.535 12.637-12.535 33.2 0 45.836 12.533 12.635 32.925 12.637 45.46.006l-3.306-3.334c-10.155 10.232-26.342 10.76-37.123 1.59l19.35-19.508 22.675-22.862zm4.323-9.59h1.637v4.248h.498v-4.248h1.643v-.467h-3.778v.467zm8.693-.467l-1.63 4.092-1.62-4.095h-.766v4.714h.477v-4.21l1.67 4.21h.457l1.667-4.197v4.197H320v-4.712h-.737z"/>
  </defs>
  <g fill="none" fill-rule="evenodd" transform="translate(0 -128)">
    <use fill="#FFF" stroke="#F1F4F5" stroke-width="2" mask="url(#c)" xlink:href="#a"/>
    <path fill="#2391D3" d="M0 408h420v280H0z"/>
    <use fill="#8D989F" xlink:href="#d"/>
    <use fill="#000" fill-opacity=".72" xlink:href="#d"/>
    <use fill="#FFF" stroke="#F1F4F5" stroke-width="2" mask="url(#e)" xlink:href="#b"/>
    <use fill="#8D989F" xlink:href="#f"/>
    <use fill="#000" fill-opacity=".72" xlink:href="#f"/>
    <path fill="#FFF" d="M152.748 569.145c-2.913-3.483-4.676-7.972-4.676-12.873l.008-31.852c0-2.598 2.097-4.71 4.676-4.71 2.578 0 4.676 2.112 4.676 4.71l-.008 31.852c0 4.9-1.763 9.39-4.676 12.873zm35.072-12.873c0 11.038-8.817 20.018-19.776 20.018-4.414 0-8.532-1.475-11.834-3.936 3.692-4.328 5.89-9.94 5.89-16.082l.01-31.852c0-5.194-4.197-9.42-9.354-9.42-5.157 0-9.352 4.226-9.352 9.42l-.01 31.852c0 6.14 2.347 11.754 6.04 16.082-3.303 2.46-7.42 3.936-11.835 3.936-10.96 0-19.926-8.98-19.926-20.018v-38.857H113v38.857C113 569.907 124.11 581 137.65 581c5.738 0 11.06-2.01 15.246-5.345C157.08 578.99 162.28 581 168.02 581c13.537 0 24.476-11.093 24.476-24.728v-38.857h-4.676v38.857zm18.712 23.48h4.677v-62.465h-4.68v62.465zm45.616-63.554c-9.227 0-17.384 4.703-22.235 11.854v-10.764h-4.676v62.465h4.676v-36.445h.003c0-12.346 9.973-22.39 22.232-22.39v-4.72zm8.765 50.252c-9.1-10.87-8.573-27.193 1.582-37.43 10.155-10.238 26.346-10.768 37.128-1.596l-38.71 39.026zm45.334-39.036c-.507-.59-1.037-1.167-1.593-1.728-12.535-12.637-32.93-12.637-45.466 0-12.535 12.637-12.535 33.2 0 45.836 12.533 12.635 32.925 12.637 45.46.006l-3.306-3.334c-10.155 10.232-26.342 10.76-37.123 1.59l19.35-19.508 22.675-22.862zm4.323-9.59h1.637v4.248h.498v-4.248h1.643v-.467h-3.778v.467zm8.693-.467l-1.63 4.092-1.62-4.095h-.766v4.714h.477v-4.21l1.67 4.21h.457l1.667-4.197v4.197H320v-4.712h-.737zm253.485-228.212c-2.913-3.483-4.676-7.972-4.676-12.873l.008-31.852c0-2.598 2.097-4.71 4.676-4.71 2.578 0 4.676 2.112 4.676 4.71l-.008 31.852c0 4.9-1.763 9.39-4.676 12.873zm35.072-12.873c0 11.038-8.817 20.018-19.776 20.018-4.414 0-8.532-1.475-11.834-3.936 3.692-4.328 5.89-9.94 5.89-16.082l.01-31.852c0-5.194-4.197-9.42-9.354-9.42-5.157 0-9.352 4.226-9.352 9.42l-.01 31.852c0 6.14 2.347 11.754 6.04 16.082-3.303 2.46-7.42 3.936-11.835 3.936-10.96 0-19.926-8.98-19.926-20.018v-38.857H533v38.857C533 289.907 544.11 301 557.65 301c5.738 0 11.06-2.01 15.246-5.345C577.08 298.99 582.28 301 588.02 301c13.537 0 24.476-11.093 24.476-24.728v-38.857h-4.676v38.857zm18.712 23.48h4.677v-62.465h-4.68v62.465zm45.616-63.554c-9.227 0-17.384 4.703-22.235 11.854v-10.764h-4.676v62.465h4.676v-36.445h.003c0-12.346 9.973-22.39 22.232-22.39v-4.72zm8.765 50.252c-9.1-10.87-8.573-27.193 1.582-37.43 10.155-10.238 26.346-10.768 37.128-1.596l-38.71 39.026zm45.334-39.036c-.507-.59-1.037-1.167-1.593-1.728-12.535-12.637-32.93-12.637-45.466 0-12.535 12.637-12.535 33.2 0 45.836 12.533 12.635 32.925 12.637 45.46.006l-3.306-3.334c-10.155 10.232-26.342 10.76-37.123 1.59l19.35-19.508 22.675-22.862zm4.323-9.59h1.637v4.248h.498v-4.248h1.643v-.467h-3.778v.467zm8.693-.467l-1.63 4.092-1.62-4.095h-.766v4.714h.477v-4.21l1.67 4.21h.457l1.667-4.197v4.197H740v-4.712h-.737z"/>
    <path fill="#FE5EBD" d="M572.748 569.145c-2.913-3.483-4.676-7.972-4.676-12.873l.008-31.852c0-2.598 2.097-4.71 4.676-4.71 2.578 0 4.676 2.112 4.676 4.71l-.008 31.852c0 4.9-1.763 9.39-4.676 12.873zm35.072-12.873c0 11.038-8.817 20.018-19.776 20.018-4.414 0-8.532-1.475-11.834-3.936 3.692-4.328 5.89-9.94 5.89-16.082l.01-31.852c0-5.194-4.197-9.42-9.354-9.42-5.157 0-9.352 4.226-9.352 9.42l-.01 31.852c0 6.14 2.347 11.754 6.04 16.082-3.303 2.46-7.42 3.936-11.835 3.936-10.96 0-19.926-8.98-19.926-20.018v-38.857H533v38.857C533 569.907 544.11 581 557.65 581c5.738 0 11.06-2.01 15.246-5.345C577.08 578.99 582.28 581 588.02 581c13.537 0 24.476-11.093 24.476-24.728v-38.857h-4.676v38.857zm18.712 23.48h4.677v-62.465h-4.68v62.465zm45.616-63.554c-9.227 0-17.384 4.703-22.235 11.854v-10.764h-4.676v62.465h4.676v-36.445h.003c0-12.346 9.973-22.39 22.232-22.39v-4.72zm8.765 50.252c-9.1-10.87-8.573-27.193 1.582-37.43 10.155-10.238 26.346-10.768 37.128-1.596l-38.71 39.026zm45.334-39.036c-.507-.59-1.037-1.167-1.593-1.728-12.535-12.637-32.93-12.637-45.466 0-12.535 12.637-12.535 33.2 0 45.836 12.533 12.635 32.925 12.637 45.46.006l-3.306-3.334c-10.155 10.232-26.342 10.76-37.123 1.59l19.35-19.508 22.675-22.862zm4.323-9.59h1.637v4.248h.498v-4.248h1.643v-.467h-3.778v.467zm8.693-.467l-1.63 4.092-1.62-4.095h-.766v4.714h.477v-4.21l1.67 4.21h.457l1.667-4.197v4.197H740v-4.712h-.737z"/>
  </g>
</svg>
