<svg xmlns="http://www.w3.org/2000/svg" width="554" height="322" viewBox="0 0 554 322" xmlns:xlink="http://www.w3.org/1999/xlink">
  <defs>
    <ellipse id="a" cx="54" cy="161" rx="54" ry="54"/>
    <mask id="f" width="108" height="108" x="0" y="0" fill="#fff">
      <use xlink:href="#a"/>
    </mask>
    <circle id="b" cx="499" cy="161" r="54"/>
    <mask id="g" width="108" height="108" x="0" y="0" fill="#fff">
      <use xlink:href="#b"/>
    </mask>
    <ellipse id="c" cx="391" cy="54" rx="54" ry="54"/>
    <mask id="h" width="108" height="108" x="0" y="0" fill="#fff">
      <use xlink:href="#c"/>
    </mask>
    <circle id="d" cx="391" cy="268" r="54"/>
    <mask id="i" width="108" height="108" x="0" y="0" fill="#fff">
      <use xlink:href="#d"/>
    </mask>
    <path id="e" d="M0 0h554v322H0z"/>
    <mask id="j" width="554" height="322" x="0" y="0" fill="#fff">
      <use xlink:href="#e"/>
    </mask>
    <path id="k" d="M174.421278 195.3942c-4.8678-5.812004-7.814268-13.301928-7.814268-21.478162l.013675-53.147244c0-4.334176 3.505188-7.858644 7.814268-7.858644 4.308592 0 7.814268 3.524468 7.814268 7.858644l-.013675 53.147244c0 8.176234-2.946467 15.666158-7.814268 21.478162zm58.607011-21.478162c0 18.417298-14.733314 33.400096-33.046051 33.400096-7.376181 0-14.257621-2.460589-19.775471-6.567634 6.169853-7.221988 9.843048-16.586974 9.843048-26.832462l.013675-53.147244c0-8.666385-7.011353-15.717287-15.628537-15.717287-8.617672 0-15.628536 7.050902-15.628536 15.717287l-.013675 53.147244c0 10.245488 3.919833 19.610474 10.089686 26.832462-5.51785 4.107045-12.39929 6.567634-19.775471 6.567634-18.312737 0-33.292689-14.982798-33.292689-33.400096v-64.834672H108v64.834672c0 22.749507 18.567678 41.25874 41.189495 41.25874 9.590549 0 18.48514-3.351907 25.478421-8.91859 6.993282 5.566683 15.682748 8.91859 25.273297 8.91859 22.621329 0 40.901832-18.509233 40.901832-41.25874v-64.834672h-7.814756v64.834672zm31.270307 39.176949h7.814268V108.868246h-7.814268v104.224741zm76.227111-106.041939c-15.419993 0-29.050518 7.846845-37.156356 19.777628V108.86859h-7.814268v104.224741h7.814268v-60.808745h.004395c0-20.60061 16.666369-37.359653 37.151961-37.359653v-7.873885zm14.645696 83.847035c-15.204612-18.137563-14.325018-45.372668 2.644153-62.454218 16.969172-17.08155 44.025098-17.966969 62.043335-2.661664l-64.687488 65.115882zm75.756399-65.133581c-.846872-.985218-1.732814-1.947331-2.661735-2.882895-20.946634-21.085354-55.029541-21.085354-75.976175 0-20.946634 21.085353-20.946634 55.393974 0 76.479328 20.943704 21.081912 55.019285 21.084862 75.966895.008849l-5.525664-5.562258c-16.96966 17.072701-44.019237 17.95517-62.034055 2.652815l32.334464-32.549092 37.89627-38.146747zm7.224779-16.00071h2.734017v7.086791h.832708v-7.086791h2.745738v-.779227h-6.312463v.779227zm14.525699-.779424l-2.722296 6.826721-2.710086-6.826721H445.9668v7.866018h.797544v-7.027304l2.792624 7.027304h.762379l2.780903-7.003706v7.003706h.809754v-7.866018h-1.231724z"/>
  </defs>
  <g fill="none" fill-rule="evenodd">
    <path fill="#E6EBEE" d="M1 107h552v1H1zm0 107h552v1H1z"/>
    <path fill="#E6EBEE" d="M107 321V1h1v320m336 0V1h1v320"/>
    <use stroke="#FB0807" stroke-opacity=".24" stroke-width="2" mask="url(#f)" xlink:href="#a"/>
    <use stroke="#FB0807" stroke-opacity=".24" stroke-width="2" mask="url(#g)" xlink:href="#b"/>
    <use stroke="#FB0807" stroke-opacity=".24" stroke-width="2" mask="url(#h)" xlink:href="#c"/>
    <use stroke="#FB0807" stroke-opacity=".24" stroke-width="2" mask="url(#i)" xlink:href="#d"/>
    <use fill="#BAC8D1" fill-opacity=".08" stroke="#BAC8D1" stroke-opacity=".4" stroke-width="2" mask="url(#j)" xlink:href="#e"/>
    <circle cx="391" cy="161" r="54" fill="#FB0807" fill-opacity=".32"/>
    <use fill="#8D989F" xlink:href="#k"/>
    <use fill="#000" fill-opacity=".72" xlink:href="#k"/>
  </g>
</svg>
