<?xml version="1.0" encoding="UTF-8"?>
<svg width="556px" height="324px" viewBox="0 0 556 324" version="1.1" xmlns="http://www.w3.org/2000/svg" xmlns:xlink="http://www.w3.org/1999/xlink">
    <title>logo-guide</title>
    <defs>
        <rect id="path-1" x="0" y="0" width="554" height="322"></rect>
        <circle id="path-3" cx="54" cy="54" r="54"></circle>
        <circle id="path-5" cx="54" cy="54" r="54"></circle>
        <circle id="path-7" cx="54" cy="54" r="54"></circle>
        <circle id="path-9" cx="54" cy="54" r="54"></circle>
    </defs>
    <g id="Page-1" stroke="none" stroke-width="1" fill="none" fill-rule="evenodd">
        <g id="logo-guide" transform="translate(1.000000, 1.000000)">
            <g id="path-9-Clipped">
                <mask id="mask-2" fill="white">
                    <use xlink:href="#path-1"></use>
                </mask>
                <use id="path-9" fill="#FAFAFA" xlink:href="#path-1"></use>
                <rect id="path-9" stroke="#BEC0C1" stroke-width="2" fill-rule="nonzero" mask="url(#mask-2)" x="0" y="0" width="554" height="322"></rect>
            </g>
            <rect id="Rectangle" fill-opacity="0.32" fill="#BEC0C1" fill-rule="nonzero" x="1" y="107" width="552" height="1"></rect>
            <rect id="Rectangle" fill-opacity="0.32" fill="#BEC0C1" fill-rule="nonzero" x="1" y="214" width="552" height="1"></rect>
            <polygon id="Rectangle" fill-opacity="0.32" fill="#BEC0C1" fill-rule="nonzero" points="107 321 107 1 108 1 108 321"></polygon>
            <polygon id="Rectangle" fill-opacity="0.32" fill="#BEC0C1" fill-rule="nonzero" points="444 321 444 1 445 1 445 321"></polygon>
            <g id="path-1-Clipped" transform="translate(0.000000, 107.000000)">
                <mask id="mask-4" fill="white">
                    <use xlink:href="#path-3"></use>
                </mask>
                <g id="path-1"></g>
                <circle id="path-1" stroke-opacity="0.64" stroke="#FC7887" stroke-width="2" mask="url(#mask-4)" cx="54" cy="54" r="54"></circle>
            </g>
            <g id="path-3-Clipped" transform="translate(445.000000, 107.000000)">
                <mask id="mask-6" fill="white">
                    <use xlink:href="#path-5"></use>
                </mask>
                <g id="path-3"></g>
                <circle id="path-3" stroke-opacity="0.64" stroke="#FC7887" stroke-width="2" mask="url(#mask-6)" cx="54" cy="54" r="54"></circle>
            </g>
            <g id="path-5-Clipped" transform="translate(337.000000, 0.000000)">
                <mask id="mask-8" fill="white">
                    <use xlink:href="#path-7"></use>
                </mask>
                <g id="path-5"></g>
                <circle id="path-5" stroke-opacity="0.64" stroke="#FC7887" stroke-width="2" mask="url(#mask-8)" cx="54" cy="54" r="54"></circle>
            </g>
            <g id="path-7-Clipped" transform="translate(337.000000, 214.000000)">
                <mask id="mask-10" fill="white">
                    <use xlink:href="#path-9"></use>
                </mask>
                <g id="path-7"></g>
                <circle id="path-7" stroke-opacity="0.64" stroke="#FC7887" stroke-width="2" mask="url(#mask-10)" cx="54" cy="54" r="54"></circle>
            </g>
            <g id="Rectangle-3"></g>
            <circle id="Oval" fill-opacity="0.64" fill="#FC7887" fill-rule="nonzero" cx="391" cy="161" r="54"></circle>
            <g id="Logo" transform="translate(108.000000, 105.000000)" fill-rule="nonzero">
                <g id="path-11-link" fill="#8D989F">
                    <path d="M66.421278,90.3942 C61.553478,84.582196 58.60701,77.092272 58.60701,68.916038 L58.620685,15.768794 C58.620685,11.434618 62.125873,7.91015 66.434953,7.91015 C70.743545,7.91015 74.249221,11.434618 74.249221,15.768794 L74.235546,68.916038 C74.235546,77.092272 71.289079,84.582196 66.421278,90.3942 L66.421278,90.3942 Z M125.028289,68.916038 C125.028289,87.333336 110.294975,102.316134 91.982238,102.316134 C84.606057,102.316134 77.724617,99.855545 72.206767,95.7485 C78.37662,88.526512 82.049815,79.161526 82.049815,68.916038 L82.06349,15.768794 C82.06349,7.102409 75.052137,0.051507 66.434953,0.051507 C57.817281,0.051507 50.806417,7.102409 50.806417,15.768794 L50.792742,68.916038 C50.792742,79.161526 54.712575,88.526512 60.882428,95.7485 C55.364578,99.855545 48.483138,102.316134 41.106957,102.316134 C22.79422,102.316134 7.814268,87.333336 7.814268,68.916038 L7.814268,4.081366 L0,4.081366 L0,68.916038 C0,91.665545 18.567678,110.174778 41.189495,110.174778 C50.780044,110.174778 59.674635,106.822871 66.667916,101.256188 C73.661198,106.822871 82.350664,110.174778 91.941213,110.174778 C114.562542,110.174778 132.843045,91.665545 132.843045,68.916038 L132.843045,4.081366 L125.028289,4.081366 L125.028289,68.916038 Z M156.298596,108.092987 L164.112864,108.092987 L164.112864,3.868246 L156.298596,3.868246 L156.298596,108.092987 Z M232.525707,2.051048 C217.105714,2.051048 203.475189,9.897893 195.369351,21.828676 L195.369351,3.86859 L187.555083,3.86859 L187.555083,108.093331 L195.369351,108.093331 L195.369351,47.284586 L195.373746,47.284586 C195.373746,26.683976 212.040115,9.924933 232.525707,9.924933 L232.525707,2.051048 Z M247.171403,85.898083 C231.966791,67.76052 232.846385,40.525415 249.815556,23.443865 C266.784728,6.362315 293.840654,5.476896 311.858891,20.782201 L247.171403,85.898083 Z M322.927802,20.764502 C322.08093,19.779284 321.194988,18.817171 320.266067,17.881607 C299.319433,-3.203747 265.236526,-3.203747 244.289892,17.881607 C223.343258,38.96696 223.343258,73.275581 244.289892,94.360935 C265.233596,115.442847 299.309177,115.445797 320.256787,94.369784 L314.731123,88.807526 C297.761463,105.880227 270.711886,106.762696 252.697068,91.460341 L285.031532,58.911249 L322.927802,20.764502 Z M330.152581,4.763792 L332.886598,4.763792 L332.886598,11.850583 L333.719306,11.850583 L333.719306,4.763792 L336.465044,4.763792 L336.465044,3.984565 L330.152581,3.984565 L330.152581,4.763792 Z M344.67828,3.984368 L341.955984,10.811089 L339.245898,3.984368 L337.9668,3.984368 L337.9668,11.850386 L338.764344,11.850386 L338.764344,4.823082 L341.556968,11.850386 L342.319347,11.850386 L345.10025,4.84668 L345.10025,11.850386 L345.910004,11.850386 L345.910004,3.984368 L344.67828,3.984368 Z" id="path-11"></path>
                </g>
                <g id="path-11-link" fill="#34383B">
                    <path d="M66.421278,90.3942 C61.553478,84.582196 58.60701,77.092272 58.60701,68.916038 L58.620685,15.768794 C58.620685,11.434618 62.125873,7.91015 66.434953,7.91015 C70.743545,7.91015 74.249221,11.434618 74.249221,15.768794 L74.235546,68.916038 C74.235546,77.092272 71.289079,84.582196 66.421278,90.3942 L66.421278,90.3942 Z M125.028289,68.916038 C125.028289,87.333336 110.294975,102.316134 91.982238,102.316134 C84.606057,102.316134 77.724617,99.855545 72.206767,95.7485 C78.37662,88.526512 82.049815,79.161526 82.049815,68.916038 L82.06349,15.768794 C82.06349,7.102409 75.052137,0.051507 66.434953,0.051507 C57.817281,0.051507 50.806417,7.102409 50.806417,15.768794 L50.792742,68.916038 C50.792742,79.161526 54.712575,88.526512 60.882428,95.7485 C55.364578,99.855545 48.483138,102.316134 41.106957,102.316134 C22.79422,102.316134 7.814268,87.333336 7.814268,68.916038 L7.814268,4.081366 L0,4.081366 L0,68.916038 C0,91.665545 18.567678,110.174778 41.189495,110.174778 C50.780044,110.174778 59.674635,106.822871 66.667916,101.256188 C73.661198,106.822871 82.350664,110.174778 91.941213,110.174778 C114.562542,110.174778 132.843045,91.665545 132.843045,68.916038 L132.843045,4.081366 L125.028289,4.081366 L125.028289,68.916038 Z M156.298596,108.092987 L164.112864,108.092987 L164.112864,3.868246 L156.298596,3.868246 L156.298596,108.092987 Z M232.525707,2.051048 C217.105714,2.051048 203.475189,9.897893 195.369351,21.828676 L195.369351,3.86859 L187.555083,3.86859 L187.555083,108.093331 L195.369351,108.093331 L195.369351,47.284586 L195.373746,47.284586 C195.373746,26.683976 212.040115,9.924933 232.525707,9.924933 L232.525707,2.051048 Z M247.171403,85.898083 C231.966791,67.76052 232.846385,40.525415 249.815556,23.443865 C266.784728,6.362315 293.840654,5.476896 311.858891,20.782201 L247.171403,85.898083 Z M322.927802,20.764502 C322.08093,19.779284 321.194988,18.817171 320.266067,17.881607 C299.319433,-3.203747 265.236526,-3.203747 244.289892,17.881607 C223.343258,38.96696 223.343258,73.275581 244.289892,94.360935 C265.233596,115.442847 299.309177,115.445797 320.256787,94.369784 L314.731123,88.807526 C297.761463,105.880227 270.711886,106.762696 252.697068,91.460341 L285.031532,58.911249 L322.927802,20.764502 Z M330.152581,4.763792 L332.886598,4.763792 L332.886598,11.850583 L333.719306,11.850583 L333.719306,4.763792 L336.465044,4.763792 L336.465044,3.984565 L330.152581,3.984565 L330.152581,4.763792 Z M344.67828,3.984368 L341.955984,10.811089 L339.245898,3.984368 L337.9668,3.984368 L337.9668,11.850386 L338.764344,11.850386 L338.764344,4.823082 L341.556968,11.850386 L342.319347,11.850386 L345.10025,4.84668 L345.10025,11.850386 L345.910004,11.850386 L345.910004,3.984368 L344.67828,3.984368 Z" id="path-11"></path>
                </g>
            </g>
        </g>
    </g>
</svg>