<svg xmlns="http://www.w3.org/2000/svg" width="840" height="560" viewBox="0 0 840 560" xmlns:xlink="http://www.w3.org/1999/xlink"><defs><path id="a" d="M0 0h420v280h-420z"/><mask id="c" width="420" height="280" x="0" y="0"><use xlink:href="#a"/></mask><path id="d" d="M420 0h420v280h-420z"/><path id="b" d="M420 280h420v280h-420z"/><mask id="e" width="420" height="280" x="0" y="0"><use xlink:href="#b"/></mask><path id="f" d="M146.748 161.145c-2.913-3.483-4.676-7.972-4.676-12.872l.008-31.853c0-2.598 2.098-4.71 4.676-4.71 2.578 0 4.676 2.112 4.676 4.71l-.008 31.853c0 4.9-1.763 9.389-4.676 12.872zm35.072-12.872c0 11.038-8.817 20.018-19.775 20.018-4.414 0-8.532-1.475-11.834-3.936 3.692-4.328 5.89-9.941 5.89-16.081l.008-31.853c0-5.194-4.196-9.42-9.352-9.42-5.157 0-9.352 4.226-9.352 9.42l-.008 31.853c0 6.14 2.346 11.753 6.038 16.081-3.302 2.461-7.42 3.936-11.834 3.936-10.959 0-19.923-8.98-19.923-20.018v-38.857h-4.676v38.857c0 13.634 11.111 24.728 24.649 24.728 5.739 0 11.062-2.009 15.247-5.345 4.185 3.336 9.385 5.345 15.124 5.345 13.537 0 24.477-11.093 24.477-24.728v-38.857h-4.677v38.857zm18.713 23.48h4.676v-62.465h-4.676v62.465zm45.616-63.554c-9.228 0-17.384 4.703-22.235 11.853v-10.764h-4.676v62.465h4.676v-36.444h.003c0-12.347 9.974-22.391 22.233-22.391v-4.719zm8.764 50.252c-9.099-10.87-8.572-27.193 1.582-37.431 10.155-10.237 26.346-10.768 37.128-1.595l-38.71 39.026zm45.334-39.036c-.507-.59-1.037-1.167-1.593-1.728-12.535-12.637-32.931-12.637-45.466 0-12.535 12.637-12.535 33.199 0 45.836 12.533 12.635 32.925 12.637 45.46.005l-3.307-3.334c-10.155 10.232-26.342 10.761-37.123 1.59l19.35-19.508 22.678-22.862zm4.323-9.59h1.636v4.247h.498v-4.247h1.643v-.467h-3.778v.467zm8.692-.467l-1.629 4.091-1.622-4.091h-.765v4.714h.477v-4.212l1.671 4.212h.456l1.664-4.198v4.198h.485v-4.714h-.737z"/></defs><g fill="none"><use fill="#fff" stroke="#F1F4F5" stroke-width="2" mask="url(#c)" xlink:href="#a"/><path fill="#2391D3" d="M0 280h420v280h-420z"/><use fill="#8D989F" xlink:href="#d"/><use fill="#000" fill-opacity=".72" xlink:href="#d"/><use fill="#fff" stroke="#F1F4F5" stroke-width="2" mask="url(#e)" xlink:href="#b"/><use fill="#8D989F" xlink:href="#f"/><use fill="#000" fill-opacity=".72" xlink:href="#f"/><path fill="#fff" d="M146.748 441.145c-2.913-3.483-4.676-7.972-4.676-12.872l.008-31.853c0-2.598 2.098-4.71 4.676-4.71 2.578 0 4.676 2.112 4.676 4.71l-.008 31.853c0 4.9-1.763 9.389-4.676 12.872zm35.072-12.872c0 11.038-8.817 20.018-19.775 20.018-4.414 0-8.532-1.475-11.834-3.936 3.692-4.328 5.89-9.941 5.89-16.081l.008-31.853c0-5.194-4.196-9.42-9.352-9.42-5.157 0-9.352 4.226-9.352 9.42l-.008 31.853c0 6.14 2.346 11.753 6.038 16.081-3.302 2.461-7.42 3.936-11.834 3.936-10.959 0-19.923-8.98-19.923-20.018v-38.857h-4.676v38.857c0 13.634 11.111 24.728 24.649 24.728 5.739 0 11.062-2.009 15.247-5.345 4.185 3.336 9.385 5.345 15.124 5.345 13.537 0 24.477-11.093 24.477-24.728v-38.857h-4.677v38.857zm18.713 23.48h4.676v-62.465h-4.676v62.465zm45.616-63.554c-9.228 0-17.384 4.703-22.235 11.853v-10.764h-4.676v62.465h4.676v-36.444h.003c0-12.347 9.974-22.391 22.233-22.391v-4.719zm8.764 50.252c-9.099-10.87-8.572-27.193 1.582-37.431 10.155-10.237 26.346-10.768 37.128-1.595l-38.71 39.026zm45.334-39.036c-.507-.59-1.037-1.167-1.593-1.728-12.535-12.637-32.931-12.637-45.466 0-12.535 12.637-12.535 33.199 0 45.836 12.533 12.635 32.925 12.637 45.46.005l-3.307-3.334c-10.155 10.232-26.342 10.761-37.123 1.59l19.35-19.508 22.678-22.862zm4.323-9.59h1.636v4.247h.498v-4.247h1.643v-.467h-3.778v.467zm8.692-.467l-1.629 4.091-1.622-4.091h-.765v4.714h.477v-4.212l1.671 4.212h.456l1.664-4.198v4.198h.485v-4.714h-.737zm253.485-228.212c-2.913-3.483-4.676-7.972-4.676-12.872l.008-31.853c0-2.598 2.098-4.71 4.676-4.71 2.578 0 4.676 2.112 4.676 4.71l-.008 31.853c0 4.9-1.763 9.389-4.676 12.872zm35.072-12.872c0 11.038-8.817 20.018-19.775 20.018-4.414 0-8.532-1.475-11.834-3.936 3.692-4.328 5.89-9.941 5.89-16.081l.008-31.853c0-5.194-4.196-9.42-9.352-9.42-5.157 0-9.352 4.226-9.352 9.42l-.008 31.853c0 6.14 2.346 11.753 6.038 16.081-3.302 2.461-7.42 3.936-11.834 3.936-10.959 0-19.923-8.98-19.923-20.018v-38.857h-4.676v38.857c0 13.634 11.111 24.728 24.649 24.728 5.739 0 11.062-2.009 15.247-5.345 4.185 3.336 9.385 5.345 15.124 5.345 13.537 0 24.477-11.093 24.477-24.728v-38.857h-4.677v38.857zm18.713 23.48h4.676v-62.465h-4.676v62.465zm45.616-63.554c-9.228 0-17.384 4.703-22.235 11.853v-10.764h-4.676v62.465h4.676v-36.444h.003c0-12.347 9.974-22.391 22.233-22.391v-4.719zm8.764 50.252c-9.099-10.87-8.572-27.193 1.582-37.431 10.155-10.237 26.346-10.768 37.128-1.595l-38.71 39.026zm45.334-39.036c-.507-.59-1.037-1.167-1.593-1.728-12.535-12.637-32.931-12.637-45.466 0-12.535 12.637-12.535 33.199 0 45.836 12.533 12.635 32.925 12.637 45.46.005l-3.307-3.334c-10.155 10.232-26.342 10.761-37.123 1.59l19.35-19.508 22.678-22.862zm4.323-9.59h1.636v4.247h.498v-4.247h1.643v-.467h-3.778v.467zm8.692-.467l-1.629 4.091-1.622-4.091h-.765v4.714h.477v-4.212l1.671 4.212h.456l1.664-4.198v4.198h.485v-4.714h-.737z"/><path fill="#00C800" d="M566.748 441.145c-2.913-3.483-4.676-7.972-4.676-12.872l.008-31.853c0-2.598 2.098-4.71 4.676-4.71 2.578 0 4.676 2.112 4.676 4.71l-.008 31.853c0 4.9-1.763 9.389-4.676 12.872zm35.072-12.872c0 11.038-8.817 20.018-19.775 20.018-4.414 0-8.532-1.475-11.834-3.936 3.692-4.328 5.89-9.941 5.89-16.081l.008-31.853c0-5.194-4.196-9.42-9.352-9.42-5.157 0-9.352 4.226-9.352 9.42l-.008 31.853c0 6.14 2.346 11.753 6.038 16.081-3.302 2.461-7.42 3.936-11.834 3.936-10.959 0-19.923-8.98-19.923-20.018v-38.857h-4.676v38.857c0 13.634 11.111 24.728 24.649 24.728 5.739 0 11.062-2.009 15.247-5.345 4.185 3.336 9.385 5.345 15.124 5.345 13.537 0 24.477-11.093 24.477-24.728v-38.857h-4.677v38.857zm18.713 23.48h4.676v-62.465h-4.676v62.465zm45.616-63.554c-9.228 0-17.384 4.703-22.235 11.853v-10.764h-4.676v62.465h4.676v-36.444h.003c0-12.347 9.974-22.391 22.233-22.391v-4.719zm8.764 50.252c-9.099-10.87-8.572-27.193 1.582-37.431 10.155-10.237 26.346-10.768 37.128-1.595l-38.71 39.026zm45.334-39.036c-.507-.59-1.037-1.167-1.593-1.728-12.535-12.637-32.931-12.637-45.466 0-12.535 12.637-12.535 33.199 0 45.836 12.533 12.635 32.925 12.637 45.46.005l-3.307-3.334c-10.155 10.232-26.342 10.761-37.123 1.59l19.35-19.508 22.678-22.862zm4.323-9.59h1.636v4.247h.498v-4.247h1.643v-.467h-3.778v.467zm8.692-.467l-1.629 4.091-1.622-4.091h-.765v4.714h.477v-4.212l1.671 4.212h.456l1.664-4.198v4.198h.485v-4.714h-.737z"/></g></svg>