<svg xmlns="http://www.w3.org/2000/svg" width="840" height="400" viewBox="0 0 840 400" xmlns:xlink="http://www.w3.org/1999/xlink" style="background:#FFFFFF">
  <defs>
    <path id="a" d="M0 128h840v400H0z"/>
    <mask id="b" width="840" height="400" x="0" y="0" fill="#fff">
      <use xlink:href="#a"/>
    </mask>
    <path id="c" d="M249.994 384.168c-7.768-9.275-12.47-21.227-12.47-34.275l.022-84.81c0-6.918 5.594-12.542 12.47-12.542s12.47 5.63 12.47 12.55l-.022 84.81c0 13.05-4.702 25-12.47 34.278zm93.525-34.275c0 29.39-23.52 53.3-52.74 53.3-11.77 0-22.75-3.927-31.56-10.48 9.843-11.525 15.704-26.47 15.704-42.82l.022-84.81c0-13.83-11.19-25.083-24.94-25.083s-24.94 11.252-24.94 25.082l-.02 84.81c0 16.35 6.253 31.296 16.1 42.82-8.807 6.554-19.788 10.48-31.56 10.48-29.222 0-53.127-23.908-53.127-53.3v-103.46H144v103.46c0 36.305 29.63 65.842 65.73 65.842 15.304 0 29.498-5.35 40.658-14.233 11.16 8.89 25.026 14.24 40.33 14.24 36.1 0 65.272-29.533 65.272-65.84V246.43h-12.47v103.463zm49.9 62.52h12.47V246.09h-12.47v166.322zM515.06 243.19c-24.607 0-46.358 12.523-59.293 31.562v-28.66H443.3v166.32h12.47v-97.038h.006c0-32.874 26.596-59.618 59.286-59.618V243.19zm23.372 133.803c-24.264-28.944-22.86-72.405 4.22-99.664 27.08-27.26 70.254-28.68 99.008-4.25L538.434 376.99zm120.89-103.94c-1.35-1.572-2.764-3.107-4.246-4.6-33.427-33.648-87.816-33.648-121.242 0-33.427 33.648-33.427 88.397 0 122.045 33.42 33.642 87.8 33.647 121.227.014l-8.81-8.876c-27.08 27.244-70.25 28.654-99 4.234l51.6-51.945 60.476-60.874zm11.53-25.533h4.363v11.31h1.33v-11.31h4.38v-1.244h-10.073v1.244zm23.18-1.244l-4.344 10.894-4.325-10.894h-2.04v12.553h1.272v-11.22l4.456 11.21h1.22l4.44-11.18v11.176H696v-12.55h-1.966z"/>
  </defs>
  <g fill="none" fill-rule="evenodd" transform="translate(0 -128)">
    <use fill="#FFF" stroke="#F1F4F5" stroke-width="2" mask="url(#b)" xlink:href="#a"/>
    <use fill="#8D989F" xlink:href="#c"/>
    <use fill="#000" fill-opacity=".72" xlink:href="#c"/>
  </g>
</svg>
