<svg xmlns="http://www.w3.org/2000/svg" width="640" height="399" viewBox="0 0 640 399" xmlns:xlink="http://www.w3.org/1999/xlink">
  <defs>
    <path id="c" d="M426 199h214v200H426z"/>
    <path id="a" d="M0 199h213v200H0z"/>
    <mask id="d" width="213" height="200" x="0" y="0" fill="#fff">
      <use xlink:href="#a"/>
    </mask>
    <path id="b" d="M426 0h214v200H426z"/>
    <mask id="e" width="214" height="200" x="0" y="0" fill="#fff">
      <use xlink:href="#b"/>
    </mask>
    <path id="f" d="M0 0h213v200H0z"/>
    <path id="g" d="M106.601848 322.504183c-2.829004-3.377744-4.541394-7.73064-4.541394-12.482397l.007948-30.887419c0-2.518879 2.037099-4.567183 4.541394-4.567183 2.504011 0 4.541394 2.048304 4.541394 4.567183l-.007948 30.887419c0 4.751757-1.712389 9.104653-4.541394 12.482397zm34.060455-12.482397c0 10.703524-8.562515 19.41103-19.205271 19.41103-4.286792 0-8.286057-1.430012-11.492849-3.816891 3.585714-4.19718 5.720453-9.6398 5.720453-15.594139l.007948-30.887419c0-5.036616-4.074766-9.134367-9.082788-9.134367-5.008306 0-9.082788 4.097751-9.082788 9.134367l-.0079474 30.887419c0 5.954339 2.2780767 11.396959 5.8637914 15.594139-3.206792 2.386879-7.2060572 3.816891-11.4928492 3.816891-10.6427567 0-19.3486089-8.707506-19.3486089-19.41103v-37.679765H68v37.679765C68 323.243047 78.7909197 334 91.9379713 334c5.5737095 0 10.7429507-1.948017 14.8072147-5.183189C110.80945 332.051983 115.85948 334 121.433189 334c13.146768 0 23.770792-10.756953 23.770792-23.978214v-37.679765h-4.541678v37.679765z"/>
  </defs>
  <g fill="none" fill-rule="evenodd">
    <use fill="#8D989F" xlink:href="#c"/>
    <use fill="#000" fill-opacity=".72" xlink:href="#c"/>
    <path fill="#9C00FE" d="M213 199h213v200H213z"/>
    <use fill="#FFF" stroke="#F1F4F5" stroke-width="2" mask="url(#d)" xlink:href="#a"/>
    <use fill="#FFF" stroke="#F1F4F5" stroke-width="2" mask="url(#e)" xlink:href="#b"/>
    <path fill="#FEBF02" d="M213 0h213v200H213z"/>
    <use fill="#8D989F" xlink:href="#f"/>
    <use fill="#000" fill-opacity=".72" xlink:href="#f"/>
    <path fill="#FF8900" d="M533.601848 322.504183c-2.829004-3.377744-4.541394-7.73064-4.541394-12.482397l.007948-30.887419c0-2.518879 2.037099-4.567183 4.541394-4.567183 2.504011 0 4.541394 2.048304 4.541394 4.567183l-.007948 30.887419c0 4.751757-1.712389 9.104653-4.541394 12.482397zm34.060455-12.482397c0 10.703524-8.562515 19.41103-19.205271 19.41103-4.286792 0-8.286057-1.430012-11.492849-3.816891 3.585714-4.19718 5.720453-9.6398 5.720453-15.594139l.007948-30.887419c0-5.036616-4.074766-9.134367-9.082788-9.134367-5.008306 0-9.082788 4.097751-9.082788 9.134367l-.007947 30.887419c0 5.954339 2.278076 11.396959 5.863791 15.594139-3.206792 2.386879-7.206057 3.816891-11.492849 3.816891-10.642757 0-19.348609-8.707506-19.348609-19.41103v-37.679765H495v37.679765C495 323.243047 505.79092 334 518.937971 334c5.57371 0 10.742951-1.948017 14.807215-5.183189C537.80945 332.051983 542.85948 334 548.433189 334c13.146768 0 23.770792-10.756953 23.770792-23.978214v-37.679765h-4.541678v37.679765z"/>
    <path fill="#FFF" d="M319.601848 322.504183c-2.829004-3.377744-4.541394-7.73064-4.541394-12.482397l.007948-30.887419c0-2.518879 2.037099-4.567183 4.541394-4.567183 2.504011 0 4.541394 2.048304 4.541394 4.567183l-.007948 30.887419c0 4.751757-1.712389 9.104653-4.541394 12.482397zm34.060455-12.482397c0 10.703524-8.562515 19.41103-19.205271 19.41103-4.286792 0-8.286057-1.430012-11.492849-3.816891 3.585714-4.19718 5.720453-9.6398 5.720453-15.594139l.007948-30.887419c0-5.036616-4.074766-9.134367-9.082788-9.134367-5.008306 0-9.082788 4.097751-9.082788 9.134367l-.007947 30.887419c0 5.954339 2.278076 11.396959 5.863791 15.594139-3.206792 2.386879-7.206057 3.816891-11.492849 3.816891-10.642757 0-19.348609-8.707506-19.348609-19.41103v-37.679765H281v37.679765C281 323.243047 291.79092 334 304.937971 334c5.57371 0 10.742951-1.948017 14.807215-5.183189C323.80945 332.051983 328.85948 334 334.433189 334c13.146768 0 23.770792-10.756953 23.770792-23.978214v-37.679765h-4.541678v37.679765z"/>
    <use fill="#8D989F" xlink:href="#g"/>
    <use fill="#000" fill-opacity=".72" xlink:href="#g"/>
    <path fill="#2391D3" d="M533.601848 123.504183c-2.829004-3.377744-4.541394-7.73064-4.541394-12.482397l.007948-30.8874187c0-2.5188797 2.037099-4.5671837 4.541394-4.5671837 2.504011 0 4.541394 2.048304 4.541394 4.5671837l-.007948 30.8874187c0 4.751757-1.712389 9.104653-4.541394 12.482397zm34.060455-12.482397c0 10.703524-8.562515 19.41103-19.205271 19.41103-4.286792 0-8.286057-1.430012-11.492849-3.816891 3.585714-4.19718 5.720453-9.6398 5.720453-15.594139l.007948-30.8874187c0-5.0366164-4.074766-9.1343673-9.082788-9.1343673-5.008306 0-9.082788 4.0977509-9.082788 9.1343673l-.007947 30.8874187c0 5.954339 2.278076 11.396959 5.863791 15.594139-3.206792 2.386879-7.206057 3.816891-11.492849 3.816891-10.642757 0-19.348609-8.707506-19.348609-19.41103V73.3420209H495v37.6797651C495 124.243047 505.79092 135 518.937971 135c5.57371 0 10.742951-1.948017 14.807215-5.183189C537.80945 133.051983 542.85948 135 548.433189 135c13.146768 0 23.770792-10.756953 23.770792-23.978214V73.3420209h-4.541678v37.6797651z"/>
    <path fill="#272A2C" d="M319.601848 123.504183c-2.829004-3.377744-4.541394-7.73064-4.541394-12.482397l.007948-30.8874187c0-2.5188797 2.037099-4.5671837 4.541394-4.5671837 2.504011 0 4.541394 2.048304 4.541394 4.5671837l-.007948 30.8874187c0 4.751757-1.712389 9.104653-4.541394 12.482397zm34.060455-12.482397c0 10.703524-8.562515 19.41103-19.205271 19.41103-4.286792 0-8.286057-1.430012-11.492849-3.816891 3.585714-4.19718 5.720453-9.6398 5.720453-15.594139l.007948-30.8874187c0-5.0366164-4.074766-9.1343673-9.082788-9.1343673-5.008306 0-9.082788 4.0977509-9.082788 9.1343673l-.007947 30.8874187c0 5.954339 2.278076 11.396959 5.863791 15.594139-3.206792 2.386879-7.206057 3.816891-11.492849 3.816891-10.642757 0-19.348609-8.707506-19.348609-19.41103V73.3420209H281v37.6797651C281 124.243047 291.79092 135 304.937971 135c5.57371 0 10.742951-1.948017 14.807215-5.183189C323.80945 133.051983 328.85948 135 334.433189 135c13.146768 0 23.770792-10.756953 23.770792-23.978214V73.3420209h-4.541678v37.6797651z"/>
    <path fill="#FFF" d="M106.601848 123.504183c-2.829004-3.377744-4.541394-7.73064-4.541394-12.482397l.007948-30.8874187c0-2.5188797 2.037099-4.5671837 4.541394-4.5671837 2.504011 0 4.541394 2.048304 4.541394 4.5671837l-.007948 30.8874187c0 4.751757-1.712389 9.104653-4.541394 12.482397zm34.060455-12.482397c0 10.703524-8.562515 19.41103-19.205271 19.41103-4.286792 0-8.286057-1.430012-11.492849-3.816891 3.585714-4.19718 5.720453-9.6398 5.720453-15.594139l.007948-30.8874187c0-5.0366164-4.074766-9.1343673-9.082788-9.1343673-5.008306 0-9.082788 4.0977509-9.082788 9.1343673l-.0079474 30.8874187c0 5.954339 2.2780767 11.396959 5.8637914 15.594139-3.206792 2.386879-7.2060572 3.816891-11.4928492 3.816891-10.6427567 0-19.3486089-8.707506-19.3486089-19.41103V73.3420209H68v37.6797651C68 124.243047 78.7909197 135 91.9379713 135c5.5737095 0 10.7429507-1.948017 14.8072147-5.183189C110.80945 133.051983 115.85948 135 121.433189 135c13.146768 0 23.770792-10.756953 23.770792-23.978214V73.3420209h-4.541678v37.6797651z"/>
  </g>
</svg>
