<svg xmlns="http://www.w3.org/2000/svg" width="840" height="320" viewBox="0 0 840 320" xmlns:xlink="http://www.w3.org/1999/xlink">
  <defs>
    <path id="a" d="M146.25,3.27274439e-15 C174,3.27274439e-15 192,18 192,45.75 L192,146.25 C192,174 174,192 146.25,192 L45.75,192 C18,192 0,174 0,146.25 L0,45.75 C0,18 18,3.27274441e-15 45.75,3.27274441e-15 L146.25,3.27274439e-15 Z"/>
    <circle id="b" cx="96" cy="96" r="96"/>
    <rect id="c" width="192" height="192"/>
  </defs>
  <g fill="none" fill-rule="evenodd">
    <rect width="840" height="320" fill="#FFFFFF"/>
    <g transform="translate(0 64)">
      <use fill="#8D989F" xlink:href="#a"/>
      <use fill="#000000" fill-opacity=".72" xlink:href="#a"/>
      <path fill="#FFFFFF" d="M96.3318103,122.297773 C93.0828753,118.418644 91.1163032,113.419615 91.1163032,107.96252 L91.1254303,72.4902499 C91.1254303,69.5974741 93.4649112,67.245125 96.3409374,67.245125 C99.2166377,67.245125 101.556445,69.5974741 101.556445,72.4902499 L101.547317,107.96252 C101.547317,113.419615 99.5807452,118.418644 96.3318103,122.297773 L96.3318103,122.297773 Z M135.448113,107.96252 C135.448113,120.254848 125.614601,130.254875 113.39206,130.254875 C108.468947,130.254875 103.876041,128.612595 100.193241,125.871414 C104.31121,121.051215 106.762824,114.800706 106.762824,107.96252 L106.771952,72.4902499 C106.771952,66.7060108 102.092338,62 96.3409374,62 C90.589211,62 85.9099232,66.7060108 85.9099232,72.4902499 L85.9007961,107.96252 C85.9007961,114.800706 88.5170249,121.051215 92.6349937,125.871414 C88.9521937,128.612595 84.3592878,130.254875 79.4361751,130.254875 C67.2136342,130.254875 57.2155071,120.254848 57.2155071,107.96252 L57.2155071,64.6896646 L52,64.6896646 L52,107.96252 C52,123.146312 64.3926968,135.5 79.4912639,135.5 C85.8923209,135.5 91.8288719,133.262824 96.4964247,129.547431 C101.163978,133.262824 106.963622,135.5 113.364679,135.5 C128.46292,135.5 140.663947,123.146312 140.663947,107.96252 L140.663947,64.6896646 L135.448113,64.6896646 L135.448113,107.96252 Z"/>
    </g>
    <g transform="translate(324 64)">
      <use fill="#8D989F" xlink:href="#b"/>
      <use fill="#000000" fill-opacity=".72" xlink:href="#b"/>
      <path fill="#FFFFFF" d="M96.3318103,122.297773 C93.0828753,118.418644 91.1163032,113.419615 91.1163032,107.96252 L91.1254303,72.4902499 C91.1254303,69.5974741 93.4649112,67.245125 96.3409374,67.245125 C99.2166377,67.245125 101.556445,69.5974741 101.556445,72.4902499 L101.547317,107.96252 C101.547317,113.419615 99.5807452,118.418644 96.3318103,122.297773 L96.3318103,122.297773 Z M135.448113,107.96252 C135.448113,120.254848 125.614601,130.254875 113.39206,130.254875 C108.468947,130.254875 103.876041,128.612595 100.193241,125.871414 C104.31121,121.051215 106.762824,114.800706 106.762824,107.96252 L106.771952,72.4902499 C106.771952,66.7060108 102.092338,62 96.3409374,62 C90.589211,62 85.9099232,66.7060108 85.9099232,72.4902499 L85.9007961,107.96252 C85.9007961,114.800706 88.5170249,121.051215 92.6349937,125.871414 C88.9521937,128.612595 84.3592878,130.254875 79.4361751,130.254875 C67.2136342,130.254875 57.2155071,120.254848 57.2155071,107.96252 L57.2155071,64.6896646 L52,64.6896646 L52,107.96252 C52,123.146312 64.3926968,135.5 79.4912639,135.5 C85.8923209,135.5 91.8288719,133.262824 96.4964247,129.547431 C101.163978,133.262824 106.963622,135.5 113.364679,135.5 C128.46292,135.5 140.663947,123.146312 140.663947,107.96252 L140.663947,64.6896646 L135.448113,64.6896646 L135.448113,107.96252 Z"/>
    </g>
    <g transform="translate(648 64)">
      <use fill="#8D989F" xlink:href="#c"/>
      <use fill="#000000" fill-opacity=".72" xlink:href="#c"/>
      <path fill="#FFFFFF" d="M96.3318103,122.297773 C93.0828753,118.418644 91.1163032,113.419615 91.1163032,107.96252 L91.1254303,72.4902499 C91.1254303,69.5974741 93.4649112,67.245125 96.3409374,67.245125 C99.2166377,67.245125 101.556445,69.5974741 101.556445,72.4902499 L101.547317,107.96252 C101.547317,113.419615 99.5807452,118.418644 96.3318103,122.297773 L96.3318103,122.297773 Z M135.448113,107.96252 C135.448113,120.254848 125.614601,130.254875 113.39206,130.254875 C108.468947,130.254875 103.876041,128.612595 100.193241,125.871414 C104.31121,121.051215 106.762824,114.800706 106.762824,107.96252 L106.771952,72.4902499 C106.771952,66.7060108 102.092338,62 96.3409374,62 C90.589211,62 85.9099232,66.7060108 85.9099232,72.4902499 L85.9007961,107.96252 C85.9007961,114.800706 88.5170249,121.051215 92.6349937,125.871414 C88.9521937,128.612595 84.3592878,130.254875 79.4361751,130.254875 C67.2136342,130.254875 57.2155071,120.254848 57.2155071,107.96252 L57.2155071,64.6896646 L52,64.6896646 L52,107.96252 C52,123.146312 64.3926968,135.5 79.4912639,135.5 C85.8923209,135.5 91.8288719,133.262824 96.4964247,129.547431 C101.163978,133.262824 106.963622,135.5 113.364679,135.5 C128.46292,135.5 140.663947,123.146312 140.663947,107.96252 L140.663947,64.6896646 L135.448113,64.6896646 L135.448113,107.96252 Z"/>
    </g>
  </g>
</svg>
