<svg xmlns="http://www.w3.org/2000/svg" width="840" height="400" viewBox="0 0 840 400" xmlns:xlink="http://www.w3.org/1999/xlink">
  <defs>
    <rect id="c" width="280" height="200" x="560" y="200"/>
    <rect id="a" width="280" height="200" y="200"/>
    <mask id="d" width="280" height="200" x="0" y="0" fill="white">
      <use xlink:href="#a"/>
    </mask>
    <rect id="b" width="280" height="200" x="560"/>
    <mask id="e" width="280" height="200" x="0" y="0" fill="white">
      <use xlink:href="#b"/>
    </mask>
    <rect id="f" width="280" height="200"/>
    <path id="g" d="M139.601848,322.504183 C136.772844,319.126439 135.060454,314.773543 135.060454,310.021786 L135.068402,279.134367 C135.068402,276.615488 137.105501,274.567184 139.609796,274.567184 C142.113807,274.567184 144.15119,276.615488 144.15119,279.134367 L144.143242,310.021786 C144.143242,314.773543 142.430853,319.126439 139.601848,322.504183 L139.601848,322.504183 Z M173.662303,310.021786 C173.662303,320.72531 165.099788,329.432816 154.457032,329.432816 C150.17024,329.432816 146.170975,328.002804 142.964183,325.615925 C146.549897,321.418745 148.684636,315.976125 148.684636,310.021786 L148.692584,279.134367 C148.692584,274.097751 144.617818,270 139.609796,270 C134.60149,270 130.527008,274.097751 130.527008,279.134367 L130.519061,310.021786 C130.519061,315.976125 132.797137,321.418745 136.382852,325.615925 C133.17606,328.002804 129.176795,329.432816 124.890003,329.432816 C114.247246,329.432816 105.541394,320.72531 105.541394,310.021786 L105.541394,272.342021 L101,272.342021 L101,310.021786 C101,323.243047 111.79092,334 124.937971,334 C130.511681,334 135.680922,332.051983 139.745186,328.816811 C143.80945,332.051983 148.85948,334 154.433189,334 C167.579957,334 178.203981,323.243047 178.203981,310.021786 L178.203981,272.342021 L173.662303,272.342021 L173.662303,310.021786 Z"/>
  </defs>
  <g fill="none" fill-rule="evenodd">
    <use fill="#8D989F" xlink:href="#c"/>
    <use fill="#000000" fill-opacity=".72" xlink:href="#c"/>
    <rect width="280" height="200" x="280" y="199" fill="#9C00FE"/>
    <use fill="#FFFFFF" stroke="#F1F4F5" stroke-width="2" mask="url(#d)" xlink:href="#a"/>
    <use fill="#FFFFFF" stroke="#F1F4F5" stroke-width="2" mask="url(#e)" xlink:href="#b"/>
    <rect width="280" height="200" x="280" fill="#FEBF02"/>
    <use fill="#8D989F" xlink:href="#f"/>
    <use fill="#000000" fill-opacity=".72" xlink:href="#f"/>
    <path fill="#FF8900" d="M699.601848,322.504183 C696.772844,319.126439 695.060454,314.773543 695.060454,310.021786 L695.068402,279.134367 C695.068402,276.615488 697.105501,274.567184 699.609796,274.567184 C702.113807,274.567184 704.15119,276.615488 704.15119,279.134367 L704.143242,310.021786 C704.143242,314.773543 702.430853,319.126439 699.601848,322.504183 L699.601848,322.504183 Z M733.662303,310.021786 C733.662303,320.72531 725.099788,329.432816 714.457032,329.432816 C710.17024,329.432816 706.170975,328.002804 702.964183,325.615925 C706.549897,321.418745 708.684636,315.976125 708.684636,310.021786 L708.692584,279.134367 C708.692584,274.097751 704.617818,270 699.609796,270 C694.60149,270 690.527008,274.097751 690.527008,279.134367 L690.519061,310.021786 C690.519061,315.976125 692.797137,321.418745 696.382852,325.615925 C693.17606,328.002804 689.176795,329.432816 684.890003,329.432816 C674.247246,329.432816 665.541394,320.72531 665.541394,310.021786 L665.541394,272.342021 L661,272.342021 L661,310.021786 C661,323.243047 671.79092,334 684.937971,334 C690.511681,334 695.680922,332.051983 699.745186,328.816811 C703.80945,332.051983 708.85948,334 714.433189,334 C727.579957,334 738.203981,323.243047 738.203981,310.021786 L738.203981,272.342021 L733.662303,272.342021 L733.662303,310.021786 Z"/>
    <path fill="#FFFFFF" d="M419.601848,322.504183 C416.772844,319.126439 415.060454,314.773543 415.060454,310.021786 L415.068402,279.134367 C415.068402,276.615488 417.105501,274.567184 419.609796,274.567184 C422.113807,274.567184 424.15119,276.615488 424.15119,279.134367 L424.143242,310.021786 C424.143242,314.773543 422.430853,319.126439 419.601848,322.504183 L419.601848,322.504183 Z M453.662303,310.021786 C453.662303,320.72531 445.099788,329.432816 434.457032,329.432816 C430.17024,329.432816 426.170975,328.002804 422.964183,325.615925 C426.549897,321.418745 428.684636,315.976125 428.684636,310.021786 L428.692584,279.134367 C428.692584,274.097751 424.617818,270 419.609796,270 C414.60149,270 410.527008,274.097751 410.527008,279.134367 L410.519061,310.021786 C410.519061,315.976125 412.797137,321.418745 416.382852,325.615925 C413.17606,328.002804 409.176795,329.432816 404.890003,329.432816 C394.247246,329.432816 385.541394,320.72531 385.541394,310.021786 L385.541394,272.342021 L381,272.342021 L381,310.021786 C381,323.243047 391.79092,334 404.937971,334 C410.511681,334 415.680922,332.051983 419.745186,328.816811 C423.80945,332.051983 428.85948,334 434.433189,334 C447.579957,334 458.203981,323.243047 458.203981,310.021786 L458.203981,272.342021 L453.662303,272.342021 L453.662303,310.021786 Z"/>
    <use fill="#8D989F" xlink:href="#g"/>
    <use fill="#000000" fill-opacity=".72" xlink:href="#g"/>
    <path fill="#2391D3" d="M699.601848,123.504183 C696.772844,120.126439 695.060454,115.773543 695.060454,111.021786 L695.068402,80.1343673 C695.068402,77.6154876 697.105501,75.5671836 699.609796,75.5671836 C702.113807,75.5671836 704.15119,77.6154876 704.15119,80.1343673 L704.143242,111.021786 C704.143242,115.773543 702.430853,120.126439 699.601848,123.504183 L699.601848,123.504183 Z M733.662303,111.021786 C733.662303,121.72531 725.099788,130.432816 714.457032,130.432816 C710.17024,130.432816 706.170975,129.002804 702.964183,126.615925 C706.549897,122.418745 708.684636,116.976125 708.684636,111.021786 L708.692584,80.1343673 C708.692584,75.0977509 704.617818,71 699.609796,71 C694.60149,71 690.527008,75.0977509 690.527008,80.1343673 L690.519061,111.021786 C690.519061,116.976125 692.797137,122.418745 696.382852,126.615925 C693.17606,129.002804 689.176795,130.432816 684.890003,130.432816 C674.247246,130.432816 665.541394,121.72531 665.541394,111.021786 L665.541394,73.3420209 L661,73.3420209 L661,111.021786 C661,124.243047 671.79092,135 684.937971,135 C690.511681,135 695.680922,133.051983 699.745186,129.816811 C703.80945,133.051983 708.85948,135 714.433189,135 C727.579957,135 738.203981,124.243047 738.203981,111.021786 L738.203981,73.3420209 L733.662303,73.3420209 L733.662303,111.021786 Z"/>
    <path fill="#272A2C" d="M419.601848,123.504183 C416.772844,120.126439 415.060454,115.773543 415.060454,111.021786 L415.068402,80.1343673 C415.068402,77.6154876 417.105501,75.5671836 419.609796,75.5671836 C422.113807,75.5671836 424.15119,77.6154876 424.15119,80.1343673 L424.143242,111.021786 C424.143242,115.773543 422.430853,120.126439 419.601848,123.504183 L419.601848,123.504183 Z M453.662303,111.021786 C453.662303,121.72531 445.099788,130.432816 434.457032,130.432816 C430.17024,130.432816 426.170975,129.002804 422.964183,126.615925 C426.549897,122.418745 428.684636,116.976125 428.684636,111.021786 L428.692584,80.1343673 C428.692584,75.0977509 424.617818,71 419.609796,71 C414.60149,71 410.527008,75.0977509 410.527008,80.1343673 L410.519061,111.021786 C410.519061,116.976125 412.797137,122.418745 416.382852,126.615925 C413.17606,129.002804 409.176795,130.432816 404.890003,130.432816 C394.247246,130.432816 385.541394,121.72531 385.541394,111.021786 L385.541394,73.3420209 L381,73.3420209 L381,111.021786 C381,124.243047 391.79092,135 404.937971,135 C410.511681,135 415.680922,133.051983 419.745186,129.816811 C423.80945,133.051983 428.85948,135 434.433189,135 C447.579957,135 458.203981,124.243047 458.203981,111.021786 L458.203981,73.3420209 L453.662303,73.3420209 L453.662303,111.021786 Z"/>
    <path fill="#FFFFFF" d="M139.601848,123.504183 C136.772844,120.126439 135.060454,115.773543 135.060454,111.021786 L135.068402,80.1343673 C135.068402,77.6154876 137.105501,75.5671836 139.609796,75.5671836 C142.113807,75.5671836 144.15119,77.6154876 144.15119,80.1343673 L144.143242,111.021786 C144.143242,115.773543 142.430853,120.126439 139.601848,123.504183 L139.601848,123.504183 Z M173.662303,111.021786 C173.662303,121.72531 165.099788,130.432816 154.457032,130.432816 C150.17024,130.432816 146.170975,129.002804 142.964183,126.615925 C146.549897,122.418745 148.684636,116.976125 148.684636,111.021786 L148.692584,80.1343673 C148.692584,75.0977509 144.617818,71 139.609796,71 C134.60149,71 130.527008,75.0977509 130.527008,80.1343673 L130.519061,111.021786 C130.519061,116.976125 132.797137,122.418745 136.382852,126.615925 C133.17606,129.002804 129.176795,130.432816 124.890003,130.432816 C114.247246,130.432816 105.541394,121.72531 105.541394,111.021786 L105.541394,73.3420209 L101,73.3420209 L101,111.021786 C101,124.243047 111.79092,135 124.937971,135 C130.511681,135 135.680922,133.051983 139.745186,129.816811 C143.80945,133.051983 148.85948,135 154.433189,135 C167.579957,135 178.203981,124.243047 178.203981,111.021786 L178.203981,73.3420209 L173.662303,73.3420209 L173.662303,111.021786 Z"/>
  </g>
</svg>
