<svg xmlns="http://www.w3.org/2000/svg" width="840" height="320" viewBox="0 0 840 320" xmlns:xlink="http://www.w3.org/1999/xlink">
  <defs>
    <path id="a" d="M242.25,64 C270,64 288,82 288,109.75 L288,210.25 C288,238 270,256 242.25,256 L141.75,256 C114,256 96,238 96,210.25 L96,109.75 C96,82 114,64 141.75,64 L242.25,64 Z"/>
    <mask id="d" width="192" height="192" x="0" y="0" fill="white">
      <use xlink:href="#a"/>
    </mask>
    <circle id="b" cx="420" cy="160" r="96"/>
    <mask id="e" width="192" height="192" x="0" y="0" fill="white">
      <use xlink:href="#b"/>
    </mask>
    <rect id="c" width="192" height="192" x="552" y="64"/>
    <mask id="f" width="192" height="192" x="0" y="0" fill="white">
      <use xlink:href="#c"/>
    </mask>
  </defs>
  <g fill="none" fill-rule="evenodd">
    <rect width="840" height="320" fill="#FFFFFF"/>
    <use stroke="#8D989F" stroke-opacity=".4" stroke-width="2" mask="url(#d)" xlink:href="#a"/>
    <path fill="#272A2C" d="M192.33181,186.297773 C189.082875,182.418644 187.116303,177.419615 187.116303,171.96252 L187.12543,136.49025 C187.12543,133.597474 189.464911,131.245125 192.340937,131.245125 C195.216638,131.245125 197.556445,133.597474 197.556445,136.49025 L197.547317,171.96252 C197.547317,177.419615 195.580745,182.418644 192.33181,186.297773 L192.33181,186.297773 Z M231.448113,171.96252 C231.448113,184.254848 221.614601,194.254875 209.39206,194.254875 C204.468947,194.254875 199.876041,192.612595 196.193241,189.871414 C200.31121,185.051215 202.762824,178.800706 202.762824,171.96252 L202.771952,136.49025 C202.771952,130.706011 198.092338,126 192.340937,126 C186.589211,126 181.909923,130.706011 181.909923,136.49025 L181.900796,171.96252 C181.900796,178.800706 184.517025,185.051215 188.634994,189.871414 C184.952194,192.612595 180.359288,194.254875 175.436175,194.254875 C163.213634,194.254875 153.215507,184.254848 153.215507,171.96252 L153.215507,128.689665 L148,128.689665 L148,171.96252 C148,187.146312 160.392697,199.5 175.491264,199.5 C181.892321,199.5 187.828872,197.262824 192.496425,193.547431 C197.163978,197.262824 202.963622,199.5 209.364679,199.5 C224.46292,199.5 236.663947,187.146312 236.663947,171.96252 L236.663947,128.689665 L231.448113,128.689665 L231.448113,171.96252 Z"/>
    <use stroke="#8D989F" stroke-opacity=".4" stroke-width="2" mask="url(#e)" xlink:href="#b"/>
    <path fill="#272A2C" d="M420.33181,186.297773 C417.082875,182.418644 415.116303,177.419615 415.116303,171.96252 L415.12543,136.49025 C415.12543,133.597474 417.464911,131.245125 420.340937,131.245125 C423.216638,131.245125 425.556445,133.597474 425.556445,136.49025 L425.547317,171.96252 C425.547317,177.419615 423.580745,182.418644 420.33181,186.297773 L420.33181,186.297773 Z M459.448113,171.96252 C459.448113,184.254848 449.614601,194.254875 437.39206,194.254875 C432.468947,194.254875 427.876041,192.612595 424.193241,189.871414 C428.31121,185.051215 430.762824,178.800706 430.762824,171.96252 L430.771952,136.49025 C430.771952,130.706011 426.092338,126 420.340937,126 C414.589211,126 409.909923,130.706011 409.909923,136.49025 L409.900796,171.96252 C409.900796,178.800706 412.517025,185.051215 416.634994,189.871414 C412.952194,192.612595 408.359288,194.254875 403.436175,194.254875 C391.213634,194.254875 381.215507,184.254848 381.215507,171.96252 L381.215507,128.689665 L376,128.689665 L376,171.96252 C376,187.146312 388.392697,199.5 403.491264,199.5 C409.892321,199.5 415.828872,197.262824 420.496425,193.547431 C425.163978,197.262824 430.963622,199.5 437.364679,199.5 C452.46292,199.5 464.663947,187.146312 464.663947,171.96252 L464.663947,128.689665 L459.448113,128.689665 L459.448113,171.96252 Z"/>
    <use stroke="#8D989F" stroke-opacity=".4" stroke-width="2" mask="url(#f)" xlink:href="#c"/>
    <path fill="#272A2C" d="M648.33181,186.297773 C645.082875,182.418644 643.116303,177.419615 643.116303,171.96252 L643.12543,136.49025 C643.12543,133.597474 645.464911,131.245125 648.340937,131.245125 C651.216638,131.245125 653.556445,133.597474 653.556445,136.49025 L653.547317,171.96252 C653.547317,177.419615 651.580745,182.418644 648.33181,186.297773 L648.33181,186.297773 Z M687.448113,171.96252 C687.448113,184.254848 677.614601,194.254875 665.39206,194.254875 C660.468947,194.254875 655.876041,192.612595 652.193241,189.871414 C656.31121,185.051215 658.762824,178.800706 658.762824,171.96252 L658.771952,136.49025 C658.771952,130.706011 654.092338,126 648.340937,126 C642.589211,126 637.909923,130.706011 637.909923,136.49025 L637.900796,171.96252 C637.900796,178.800706 640.517025,185.051215 644.634994,189.871414 C640.952194,192.612595 636.359288,194.254875 631.436175,194.254875 C619.213634,194.254875 609.215507,184.254848 609.215507,171.96252 L609.215507,128.689665 L604,128.689665 L604,171.96252 C604,187.146312 616.392697,199.5 631.491264,199.5 C637.892321,199.5 643.828872,197.262824 648.496425,193.547431 C653.163978,197.262824 658.963622,199.5 665.364679,199.5 C680.46292,199.5 692.663947,187.146312 692.663947,171.96252 L692.663947,128.689665 L687.448113,128.689665 L687.448113,171.96252 Z"/>
  </g>
</svg>
