<svg xmlns="http://www.w3.org/2000/svg" width="840" height="400" viewBox="0 0 840 400" xmlns:xlink="http://www.w3.org/1999/xlink">
  <defs>
    <path id="a" d="M0 0h840v400H0z"/>
    <mask id="b" width="840" height="400" x="0" y="0" fill="#fff">
      <use xlink:href="#a"/>
    </mask>
    <path id="c" d="M419.994 256.168c-7.768-9.275-12.47-21.227-12.47-34.275l.022-84.81c0-6.918 5.594-12.542 12.47-12.542s12.47 5.626 12.47 12.543l-.022 84.81c0 13.05-4.702 25-12.47 34.276zm93.525-34.275c0 29.39-23.513 53.3-52.737 53.3-11.77 0-22.752-3.927-31.557-10.48 9.846-11.525 15.707-26.47 15.707-42.82l.022-84.81c0-13.83-11.188-25.083-24.94-25.083s-24.94 11.252-24.94 25.082l-.02 84.81c0 16.35 6.254 31.296 16.1 42.82-8.806 6.554-19.787 10.48-31.558 10.48-29.223 0-53.128-23.908-53.128-53.3v-103.46H314v103.46c0 36.305 29.63 65.842 65.73 65.842 15.304 0 29.498-5.35 40.658-14.233 11.16 8.886 25.026 14.235 40.33 14.235 36.1 0 65.272-29.537 65.272-65.84V118.43h-12.47v103.463z"/>
  </defs>
  <g fill="none" fill-rule="evenodd">
    <use fill="#FFF" stroke="#F1F4F5" stroke-width="2" mask="url(#b)" xlink:href="#a"/>
    <use fill="#8D989F" xlink:href="#c"/>
    <use fill="#000" fill-opacity=".72" xlink:href="#c"/>
  </g>
</svg>
