<svg xmlns="http://www.w3.org/2000/svg" width="640" height="399" viewBox="0 0 640 399" xmlns:xlink="http://www.w3.org/1999/xlink">
  <defs>
    <path id="c" d="M0 0h213v200H0z"/>
    <path id="a" d="M0 199h213v200H0z"/>
    <mask id="d" width="213" height="200" x="0" y="0" fill="#fff">
      <use xlink:href="#a"/>
    </mask>
    <path id="b" d="M426 0h214v200H426z"/>
    <mask id="e" width="214" height="200" x="0" y="0" fill="#fff">
      <use xlink:href="#b"/>
    </mask>
    <path id="f" d="M426 199h214v200H426z"/>
    <path id="g" d="M106.601848 322.504183c-2.829004-3.377744-4.541394-7.73064-4.541394-12.482397l.007948-30.88742c0-2.518878 2.0371-4.567182 4.541394-4.567182 2.50401 0 4.541394 2.048304 4.541394 4.567183l-.007948 30.88742c0 4.751756-1.71239 9.104652-4.541394 12.482396zm34.060455-12.482397c0 10.703524-8.562515 19.41103-19.20527 19.41103-4.286793 0-8.286058-1.430012-11.49285-3.81689 3.585714-4.19718 5.720453-9.6398 5.720453-15.59414l.007948-30.88742c0-5.036615-4.074766-9.134366-9.082788-9.134366-5.008306 0-9.082788 4.09775-9.082788 9.134367l-.007947 30.88742c0 5.954338 2.27808 11.396958 5.863795 15.594138-3.206792 2.38688-7.206057 3.81689-11.49285 3.81689-10.642756 0-19.348608-8.707505-19.348608-19.41103V272.34202H68v37.679767C68 323.243047 78.79092 334 91.93797 334c5.57371 0 10.742952-1.948017 14.807216-5.18319C110.80945 332.051984 115.85948 334 121.43319 334c13.146767 0 23.77079-10.756953 23.77079-23.978214V272.34202h-4.541677v37.679766z"/>
  </defs>
  <g fill="none" fill-rule="evenodd">
    <path d="M0 0h640v400H0z"/>
    <use fill="#8D989F" xlink:href="#c"/>
    <use fill="#000" fill-opacity=".72" xlink:href="#c"/>
    <use fill="#FFF" stroke="#F1F4F5" stroke-width="2" mask="url(#d)" xlink:href="#a"/>
    <path fill="#FEBF02" d="M213 0h213v200H213z"/>
    <path fill="#9C00FE" d="M213 199h213v200H213z"/>
    <use fill="#FFF" stroke="#F1F4F5" stroke-width="2" mask="url(#e)" xlink:href="#b"/>
    <use fill="#8D989F" xlink:href="#f"/>
    <use fill="#000" fill-opacity=".72" xlink:href="#f"/>
    <path fill="#FFF" d="M106.601848 123.504183c-2.829004-3.377744-4.541394-7.73064-4.541394-12.482397l.007948-30.88742c0-2.518878 2.0371-4.567182 4.541394-4.567182 2.50401 0 4.541394 2.048304 4.541394 4.567183l-.007948 30.88742c0 4.751756-1.71239 9.104652-4.541394 12.482396zm34.060455-12.482397c0 10.703524-8.562515 19.41103-19.20527 19.41103-4.286793 0-8.286058-1.430012-11.49285-3.81689 3.585714-4.19718 5.720453-9.6398 5.720453-15.59414l.007948-30.88742c0-5.036615-4.074766-9.134366-9.082788-9.134366-5.008306 0-9.082788 4.09775-9.082788 9.134367l-.007947 30.88742c0 5.954338 2.27808 11.396958 5.863795 15.594138-3.206792 2.38688-7.206057 3.81689-11.49285 3.81689-10.642756 0-19.348608-8.707505-19.348608-19.41103V73.342022H68v37.679766C68 124.243046 78.79092 135 91.93797 135c5.57371 0 10.742952-1.948017 14.807216-5.18319C110.80945 133.051984 115.85948 135 121.43319 135c13.146767 0 23.77079-10.756953 23.77079-23.978214V73.34202h-4.541677v37.679766z"/>
    <path fill="#272A2C" d="M319.601848 123.504183c-2.829004-3.377744-4.541394-7.73064-4.541394-12.482397l.007948-30.88742c0-2.518878 2.0371-4.567182 4.541394-4.567182 2.50401 0 4.541394 2.048304 4.541394 4.567183l-.007948 30.88742c0 4.751756-1.71239 9.104652-4.541394 12.482396zm34.060455-12.482397c0 10.703524-8.562515 19.41103-19.20527 19.41103-4.286793 0-8.286058-1.430012-11.49285-3.81689 3.585714-4.19718 5.720453-9.6398 5.720453-15.59414l.007948-30.88742c0-5.036615-4.074766-9.134366-9.082788-9.134366-5.008306 0-9.082788 4.09775-9.082788 9.134367l-.007947 30.88742c0 5.954338 2.27808 11.396958 5.863795 15.594138-3.206792 2.38688-7.206057 3.81689-11.49285 3.81689-10.642756 0-19.348608-8.707505-19.348608-19.41103V73.342022H281v37.679766C281 124.243046 291.79092 135 304.93797 135c5.57371 0 10.742952-1.948017 14.807216-5.18319C323.80945 133.051984 328.85948 135 334.43319 135c13.146767 0 23.77079-10.756953 23.77079-23.978214V73.34202h-4.541677v37.679766z"/>
    <path fill="#2391D3" d="M533.601848 123.504183c-2.829004-3.377744-4.541394-7.73064-4.541394-12.482397l.007948-30.88742c0-2.518878 2.0371-4.567182 4.541394-4.567182 2.50401 0 4.541394 2.048304 4.541394 4.567183l-.007948 30.88742c0 4.751756-1.71239 9.104652-4.541394 12.482396zm34.060455-12.482397c0 10.703524-8.562515 19.41103-19.20527 19.41103-4.286793 0-8.286058-1.430012-11.49285-3.81689 3.585714-4.19718 5.720453-9.6398 5.720453-15.59414l.007948-30.88742c0-5.036615-4.074766-9.134366-9.082788-9.134366-5.008306 0-9.082788 4.09775-9.082788 9.134367l-.007947 30.88742c0 5.954338 2.27808 11.396958 5.863795 15.594138-3.206792 2.38688-7.206057 3.81689-11.49285 3.81689-10.642756 0-19.348608-8.707505-19.348608-19.41103V73.342022H495v37.679766C495 124.243046 505.79092 135 518.93797 135c5.57371 0 10.742952-1.948017 14.807216-5.18319C537.80945 133.051984 542.85948 135 548.43319 135c13.146767 0 23.77079-10.756953 23.77079-23.978214V73.34202h-4.541677v37.679766z"/>
    <use fill="#8D989F" xlink:href="#g"/>
    <use fill="#000" fill-opacity=".72" xlink:href="#g"/>
    <path fill="#FFF" d="M319.601848 322.504183c-2.829004-3.377744-4.541394-7.73064-4.541394-12.482397l.007948-30.88742c0-2.518878 2.0371-4.567182 4.541394-4.567182 2.50401 0 4.541394 2.048304 4.541394 4.567183l-.007948 30.88742c0 4.751756-1.71239 9.104652-4.541394 12.482396zm34.060455-12.482397c0 10.703524-8.562515 19.41103-19.20527 19.41103-4.286793 0-8.286058-1.430012-11.49285-3.81689 3.585714-4.19718 5.720453-9.6398 5.720453-15.59414l.007948-30.88742c0-5.036615-4.074766-9.134366-9.082788-9.134366-5.008306 0-9.082788 4.09775-9.082788 9.134367l-.007947 30.88742c0 5.954338 2.27808 11.396958 5.863795 15.594138-3.206792 2.38688-7.206057 3.81689-11.49285 3.81689-10.642756 0-19.348608-8.707505-19.348608-19.41103V272.34202H281v37.679767C281 323.243047 291.79092 334 304.93797 334c5.57371 0 10.742952-1.948017 14.807216-5.18319C323.80945 332.051984 328.85948 334 334.43319 334c13.146767 0 23.77079-10.756953 23.77079-23.978214V272.34202h-4.541677v37.679766z"/>
    <path fill="#FF8900" d="M533.601848 322.504183c-2.829004-3.377744-4.541394-7.73064-4.541394-12.482397l.007948-30.88742c0-2.518878 2.0371-4.567182 4.541394-4.567182 2.50401 0 4.541394 2.048304 4.541394 4.567183l-.007948 30.88742c0 4.751756-1.71239 9.104652-4.541394 12.482396zm34.060455-12.482397c0 10.703524-8.562515 19.41103-19.20527 19.41103-4.286793 0-8.286058-1.430012-11.49285-3.81689 3.585714-4.19718 5.720453-9.6398 5.720453-15.59414l.007948-30.88742c0-5.036615-4.074766-9.134366-9.082788-9.134366-5.008306 0-9.082788 4.09775-9.082788 9.134367l-.007947 30.88742c0 5.954338 2.27808 11.396958 5.863795 15.594138-3.206792 2.38688-7.206057 3.81689-11.49285 3.81689-10.642756 0-19.348608-8.707505-19.348608-19.41103V272.34202H495v37.679767C495 323.243047 505.79092 334 518.93797 334c5.57371 0 10.742952-1.948017 14.807216-5.18319C537.80945 332.051984 542.85948 334 548.43319 334c13.146767 0 23.77079-10.756953 23.77079-23.978214V272.34202h-4.541677v37.679766z"/>
  </g>
</svg>
