<svg xmlns="http://www.w3.org/2000/svg" width="840" height="320" viewBox="0 0 840 320" xmlns:xlink="http://www.w3.org/1999/xlink">
  <defs>
    <path id="a" d="M146.25 0C174 0 192 18 192 45.75v100.5C192 174 174 192 146.25 192H45.75C18 192 0 174 0 146.25V45.75C0 18 18 0 45.75 0h100.5z"/>
    <circle id="b" cx="96" cy="96" r="96"/>
    <path id="c" d="M0 0h192v192H0z"/>
  </defs>
  <g fill="none" fill-rule="evenodd">
    <path fill="#FFF" d="M0 0h840v320H0z"/>
    <g transform="translate(0 64)">
      <use fill="#8D989F" xlink:href="#a"/>
      <use fill="#000" fill-opacity=".72" xlink:href="#a"/>
      <path fill="#FFF" d="M96.332 122.298c-3.25-3.88-5.216-8.878-5.216-14.335l.01-35.473c0-2.893 2.34-5.245 5.215-5.245 2.878 0 5.217 2.352 5.217 5.245l-.01 35.473c0 5.457-1.965 10.456-5.214 14.335zm39.116-14.335c0 12.292-9.833 22.292-22.056 22.292-4.923 0-9.516-1.642-13.2-4.384 4.12-4.82 6.57-11.07 6.57-17.906l.01-35.473c0-5.783-4.68-10.49-10.43-10.49-5.753 0-10.432 4.707-10.432 10.49l-.01 35.474c0 6.838 2.617 13.088 6.735 17.908-3.683 2.743-8.276 4.385-13.2 4.385-12.22 0-22.22-10-22.22-22.292V64.69H52v43.273c0 15.183 12.393 27.537 27.49 27.537 6.402 0 12.34-2.237 17.006-5.953 4.668 3.716 10.468 5.953 16.87 5.953 15.097 0 27.298-12.354 27.298-27.537V64.69h-5.216v43.273z"/>
    </g>
    <g transform="translate(324 64)">
      <use fill="#8D989F" xlink:href="#b"/>
      <use fill="#000" fill-opacity=".72" xlink:href="#b"/>
      <path fill="#FFF" d="M96.332 122.298c-3.25-3.88-5.216-8.878-5.216-14.335l.01-35.473c0-2.893 2.34-5.245 5.215-5.245 2.878 0 5.217 2.352 5.217 5.245l-.01 35.473c0 5.457-1.965 10.456-5.214 14.335zm39.116-14.335c0 12.292-9.833 22.292-22.056 22.292-4.923 0-9.516-1.642-13.2-4.384 4.12-4.82 6.57-11.07 6.57-17.906l.01-35.473c0-5.783-4.68-10.49-10.43-10.49-5.753 0-10.432 4.707-10.432 10.49l-.01 35.474c0 6.838 2.617 13.088 6.735 17.908-3.683 2.743-8.276 4.385-13.2 4.385-12.22 0-22.22-10-22.22-22.292V64.69H52v43.273c0 15.183 12.393 27.537 27.49 27.537 6.402 0 12.34-2.237 17.006-5.953 4.668 3.716 10.468 5.953 16.87 5.953 15.097 0 27.298-12.354 27.298-27.537V64.69h-5.216v43.273z"/>
    </g>
    <g transform="translate(648 64)">
      <use fill="#8D989F" xlink:href="#c"/>
      <use fill="#000" fill-opacity=".72" xlink:href="#c"/>
      <path fill="#FFF" d="M96.332 122.298c-3.25-3.88-5.216-8.878-5.216-14.335l.01-35.473c0-2.893 2.34-5.245 5.215-5.245 2.878 0 5.217 2.352 5.217 5.245l-.01 35.473c0 5.457-1.965 10.456-5.214 14.335zm39.116-14.335c0 12.292-9.833 22.292-22.056 22.292-4.923 0-9.516-1.642-13.2-4.384 4.12-4.82 6.57-11.07 6.57-17.906l.01-35.473c0-5.783-4.68-10.49-10.43-10.49-5.753 0-10.432 4.707-10.432 10.49l-.01 35.474c0 6.838 2.617 13.088 6.735 17.908-3.683 2.743-8.276 4.385-13.2 4.385-12.22 0-22.22-10-22.22-22.292V64.69H52v43.273c0 15.183 12.393 27.537 27.49 27.537 6.402 0 12.34-2.237 17.006-5.953 4.668 3.716 10.468 5.953 16.87 5.953 15.097 0 27.298-12.354 27.298-27.537V64.69h-5.216v43.273z"/>
    </g>
  </g>
</svg>
