<svg xmlns="http://www.w3.org/2000/svg" width="640" height="399" viewBox="0 0 640 399" xmlns:xlink="http://www.w3.org/1999/xlink">
  <defs>
    <path id="c" d="M426 199h214v200H426z"/>
    <path id="a" d="M0 199h213v200H0z"/>
    <mask id="d" width="213" height="200" x="0" y="0" fill="#fff">
      <use xlink:href="#a"/>
    </mask>
    <path id="b" d="M426 0h214v200H426z"/>
    <mask id="e" width="214" height="200" x="0" y="0" fill="#fff">
      <use xlink:href="#b"/>
    </mask>
    <path id="f" d="M0 0h213v200H0z"/>
    <path id="g" d="M106.602 322.504c-2.83-3.378-4.542-7.73-4.542-12.482l.008-30.888c0-2.52 2.038-4.567 4.542-4.567s4.54 2.048 4.54 4.567l-.007 30.888c0 4.752-1.712 9.104-4.54 12.482zm34.06-12.482c0 10.703-8.562 19.41-19.205 19.41-4.287 0-8.286-1.43-11.493-3.816 3.586-4.197 5.72-9.64 5.72-15.594l.01-30.888c0-5.036-4.076-9.134-9.084-9.134-5.01 0-9.083 4.098-9.083 9.134l-.008 30.888c0 5.954 2.276 11.397 5.862 15.594-3.207 2.387-7.206 3.817-11.493 3.817-10.644 0-19.35-8.708-19.35-19.41v-37.68H68v37.68C68 323.243 78.79 334 91.938 334c5.574 0 10.743-1.948 14.807-5.183 4.064 3.235 9.114 5.183 14.688 5.183 13.147 0 23.77-10.757 23.77-23.978v-37.68h-4.54v37.68z"/>
  </defs>
  <g fill="none" fill-rule="evenodd">
    <use fill="#8D989F" xlink:href="#c"/>
    <use fill="#000" fill-opacity=".72" xlink:href="#c"/>
    <path fill="#9C00FE" d="M213 199h213v200H213z"/>
    <use fill="#FFF" stroke="#F1F4F5" stroke-width="2" mask="url(#d)" xlink:href="#a"/>
    <use fill="#FFF" stroke="#F1F4F5" stroke-width="2" mask="url(#e)" xlink:href="#b"/>
    <path fill="#FEBF02" d="M213 0h213v200H213z"/>
    <use fill="#8D989F" xlink:href="#f"/>
    <use fill="#000" fill-opacity=".72" xlink:href="#f"/>
    <path fill="#FF8900" d="M533.602 322.504c-2.83-3.378-4.542-7.73-4.542-12.482l.008-30.888c0-2.52 2.038-4.567 4.542-4.567s4.54 2.048 4.54 4.567l-.007 30.888c0 4.752-1.712 9.104-4.54 12.482zm34.06-12.482c0 10.703-8.562 19.41-19.205 19.41-4.287 0-8.286-1.43-11.493-3.816 3.586-4.197 5.72-9.64 5.72-15.594l.01-30.888c0-5.036-4.076-9.134-9.084-9.134-5.01 0-9.083 4.098-9.083 9.134l-.008 30.888c0 5.954 2.276 11.397 5.862 15.594-3.207 2.387-7.206 3.817-11.493 3.817-10.644 0-19.35-8.708-19.35-19.41v-37.68H495v37.68c0 13.22 10.79 23.977 23.938 23.977 5.574 0 10.743-1.948 14.807-5.183 4.064 3.235 9.114 5.183 14.688 5.183 13.147 0 23.77-10.757 23.77-23.978v-37.68h-4.54v37.68z"/>
    <path fill="#FFF" d="M319.602 322.504c-2.83-3.378-4.542-7.73-4.542-12.482l.008-30.888c0-2.52 2.038-4.567 4.542-4.567s4.54 2.048 4.54 4.567l-.007 30.888c0 4.752-1.712 9.104-4.54 12.482zm34.06-12.482c0 10.703-8.562 19.41-19.205 19.41-4.287 0-8.286-1.43-11.493-3.816 3.586-4.197 5.72-9.64 5.72-15.594l.01-30.888c0-5.036-4.076-9.134-9.084-9.134-5.01 0-9.083 4.098-9.083 9.134l-.008 30.888c0 5.954 2.276 11.397 5.862 15.594-3.207 2.387-7.206 3.817-11.493 3.817-10.644 0-19.35-8.708-19.35-19.41v-37.68H281v37.68c0 13.22 10.79 23.977 23.938 23.977 5.574 0 10.743-1.948 14.807-5.183 4.064 3.235 9.114 5.183 14.688 5.183 13.147 0 23.77-10.757 23.77-23.978v-37.68h-4.54v37.68z"/>
    <use fill="#8D989F" xlink:href="#g"/>
    <use fill="#000" fill-opacity=".72" xlink:href="#g"/>
    <path fill="#2391D3" d="M533.602 123.504c-2.83-3.378-4.542-7.73-4.542-12.482l.008-30.888c0-2.52 2.038-4.567 4.542-4.567s4.54 2.048 4.54 4.567l-.007 30.888c0 4.752-1.712 9.104-4.54 12.482zm34.06-12.482c0 10.703-8.562 19.41-19.205 19.41-4.287 0-8.286-1.43-11.493-3.816 3.586-4.197 5.72-9.64 5.72-15.594l.01-30.888c0-5.036-4.076-9.134-9.084-9.134-5.01 0-9.083 4.098-9.083 9.134l-.008 30.888c0 5.954 2.276 11.397 5.862 15.594-3.207 2.387-7.206 3.817-11.493 3.817-10.644 0-19.35-8.708-19.35-19.41v-37.68H495v37.68c0 13.22 10.79 23.977 23.938 23.977 5.574 0 10.743-1.948 14.807-5.183 4.064 3.235 9.114 5.183 14.688 5.183 13.147 0 23.77-10.757 23.77-23.978v-37.68h-4.54v37.68z"/>
    <path fill="#272A2C" d="M319.602 123.504c-2.83-3.378-4.542-7.73-4.542-12.482l.008-30.888c0-2.52 2.038-4.567 4.542-4.567s4.54 2.048 4.54 4.567l-.007 30.888c0 4.752-1.712 9.104-4.54 12.482zm34.06-12.482c0 10.703-8.562 19.41-19.205 19.41-4.287 0-8.286-1.43-11.493-3.816 3.586-4.197 5.72-9.64 5.72-15.594l.01-30.888c0-5.036-4.076-9.134-9.084-9.134-5.01 0-9.083 4.098-9.083 9.134l-.008 30.888c0 5.954 2.276 11.397 5.862 15.594-3.207 2.387-7.206 3.817-11.493 3.817-10.644 0-19.35-8.708-19.35-19.41v-37.68H281v37.68c0 13.22 10.79 23.977 23.938 23.977 5.574 0 10.743-1.948 14.807-5.183 4.064 3.235 9.114 5.183 14.688 5.183 13.147 0 23.77-10.757 23.77-23.978v-37.68h-4.54v37.68z"/>
    <path fill="#FFF" d="M106.602 123.504c-2.83-3.378-4.542-7.73-4.542-12.482l.008-30.888c0-2.52 2.038-4.567 4.542-4.567s4.54 2.048 4.54 4.567l-.007 30.888c0 4.752-1.712 9.104-4.54 12.482zm34.06-12.482c0 10.703-8.562 19.41-19.205 19.41-4.287 0-8.286-1.43-11.493-3.816 3.586-4.197 5.72-9.64 5.72-15.594l.01-30.888c0-5.036-4.076-9.134-9.084-9.134-5.01 0-9.083 4.098-9.083 9.134l-.008 30.888c0 5.954 2.276 11.397 5.862 15.594-3.207 2.387-7.206 3.817-11.493 3.817-10.644 0-19.35-8.708-19.35-19.41v-37.68H68v37.68C68 124.243 78.79 135 91.938 135c5.574 0 10.743-1.948 14.807-5.183 4.064 3.235 9.114 5.183 14.688 5.183 13.147 0 23.77-10.757 23.77-23.978v-37.68h-4.54v37.68z"/>
  </g>
</svg>
