<svg xmlns="http://www.w3.org/2000/svg" width="552" height="240" viewBox="0 0 552 240">
  <g fill="none" fill-rule="evenodd">
    <path fill="#FFF" d="M0 0h552v240H0z"/>
    <path fill="#51575B" d="M102.344 145.392l-17.408-42.624h-6.592L61 145.392h6.272l4.608-11.84h19.2l4.544 11.84h6.72zm-13.248-17.088H73.928l7.68-19.712 7.488 19.712zm53.26 17.088l-9.92-18.24c5.056-1.792 8.768-5.952 8.768-11.904 0-7.552-5.504-12.48-14.272-12.48h-18.688v42.624h6.016V128.24h12.224l9.088 17.152h6.784zm-7.36-29.696c0 4.352-3.136 7.296-8.064 7.296H114.26v-14.72h12.48c4.928 0 8.256 2.88 8.256 7.424zM163.36 102c-8.576 0-14.912 4.416-14.912 12.096 0 8.064 6.848 10.496 14.08 12.032 6.592 1.472 11.456 2.432 11.456 7.488 0 4.608-3.904 7.296-9.664 7.296-5.056 0-9.92-1.984-12.864-6.656l-4.928 3.136c3.2 5.312 9.28 8.768 17.344 8.768 9.856 0 16.192-5.248 16.192-13.056 0-8.576-7.552-10.816-15.744-12.736-5.44-1.28-9.856-2.304-9.856-6.848 0-4.544 4.096-6.208 8.576-6.208 4.864 0 9.024 1.92 11.712 5.504l4.608-3.264c-3.712-4.928-9.536-7.552-16-7.552zm86.424 43.392v-42.624h-8.768l-13.504 35.136-13.504-35.136h-8.96v42.624h5.76v-36.416l14.016 36.416h5.184l13.888-36.416v36.416h5.888zm40.076-4.352c-.448.32-1.216.512-1.984.512-1.856 0-2.624-1.152-2.624-3.584v-15.744c0-7.68-5.312-10.88-12.864-10.88-5.248 0-9.408 1.536-13.312 4.224l2.56 4.224c3.072-2.304 6.784-3.52 10.368-3.52 3.52 0 7.552 1.152 7.552 4.864 0 4.224-5.44 4.224-10.56 4.928-4.736.64-11.52 2.24-11.52 9.984 0 6.336 4.48 10.112 11.328 10.112 4.032 0 8.512-1.344 11.456-5.568.512 3.776 3.328 5.312 6.464 5.312 1.088 0 2.752-.192 3.84-.64l-.704-4.224zm-10.176-8.448c0 6.336-4.736 8.96-9.6 8.96-3.84 0-6.912-1.664-6.912-5.632 0-4.096 3.136-4.992 6.912-5.632 4.096-.704 7.36-.64 9.6-3.456v5.76zm46.732 23.936v-44.416h-5.568v5.504c-3.136-4.48-7.296-6.272-11.84-6.272-9.472 0-15.296 7.616-15.296 17.472 0 9.792 5.824 17.344 15.296 17.344 4.48 0 8.704-1.728 11.84-6.208v16.576h5.568zm-5.568-27.776c0 6.784-3.776 12.288-10.816 12.288-7.04 0-10.432-5.568-10.432-12.288 0-6.848 3.456-12.224 10.432-12.224 7.04 0 10.816 5.376 10.816 12.224zm37.708-16.64v18.496c0 6.208-4.352 10.368-10.112 10.368-6.208 0-7.36-4.672-7.36-8.64v-20.224h-5.568v21.504c0 7.872 4.48 12.544 11.648 12.544 4.864 0 8.576-2.24 11.392-6.208v5.44h5.568v-33.28h-5.568zm45.068 15.808c0-9.28-6.08-16.576-15.872-16.576-10.176 0-16.32 7.744-16.32 17.536 0 9.856 6.208 17.28 17.024 17.28 5.888 0 10.304-2.176 13.696-5.824l-3.712-3.648c-2.624 2.816-5.888 4.352-9.856 4.352-6.528 0-10.88-4.032-11.2-10.944h26.112c.064-.448.128-1.152.128-2.176zm-26.112-2.112c.448-5.632 4.352-9.664 10.176-9.664 5.248 0 9.6 3.264 10.176 9.664h-20.352zm50.06 13.888c-.896.704-2.304 1.408-4.288 1.408-3.392 0-5.12-1.92-5.12-5.76V116.72h10.752v-4.608h-10.752v-9.344h-5.568v9.344h-5.76v4.608h5.76v18.624c0 3.136.384 4.992 1.408 6.592 1.792 2.88 4.8 4.224 8.704 4.224 2.816 0 5.248-.704 7.232-2.24l-2.368-4.224zm24.716 0c-.896.704-2.304 1.408-4.288 1.408-3.392 0-5.12-1.92-5.12-5.76V116.72h10.752v-4.608H442.88v-9.344h-5.568v9.344h-5.76v4.608h5.76v18.624c0 3.136.384 4.992 1.408 6.592 1.792 2.88 4.8 4.224 8.704 4.224 2.816 0 5.248-.704 7.232-2.24l-2.368-4.224zm37.772-11.776c0-9.28-6.08-16.576-15.872-16.576-10.176 0-16.32 7.744-16.32 17.536 0 9.856 6.208 17.28 17.024 17.28 5.888 0 10.304-2.176 13.696-5.824l-3.712-3.648c-2.624 2.816-5.888 4.352-9.856 4.352-6.528 0-10.88-4.032-11.2-10.944h26.112c.064-.448.128-1.152.128-2.176zm-26.112-2.112c.448-5.632 4.352-9.664 10.176-9.664 5.248 0 9.6 3.264 10.176 9.664h-20.352z"/>
  </g>
</svg>
