<svg xmlns="http://www.w3.org/2000/svg" width="552" height="736" viewBox="0 0 552 736">
  <g fill="none" fill-rule="evenodd">
    <rect width="552" height="736" fill="#FFFFFF"/>
    <path fill="#51575B" d="M211.890625,639 L229.484375,593.1875 L236.015625,593.1875 L254.765625,639 L247.859375,639 L242.515625,625.125 L223.359375,625.125 L218.328125,639 L211.890625,639 Z M225.109375,620.1875 L240.640625,620.1875 L235.859375,607.5 C234.401034,603.645814 233.317712,600.479179 232.609375,598 C232.026039,600.937515 231.20313,603.854152 230.140625,606.75 L225.109375,620.1875 Z M258.828125,639 L258.828125,605.8125 L263.890625,605.8125 L263.890625,610.84375 C265.182298,608.489572 266.374995,606.937504 267.46875,606.1875 C268.562505,605.437496 269.765618,605.0625 271.078125,605.0625 C272.973968,605.0625 274.901032,605.666661 276.859375,606.875 L274.921875,612.09375 C273.546868,611.281246 272.171882,610.875 270.796875,610.875 C269.567702,610.875 268.463547,611.244788 267.484375,611.984375 C266.505203,612.723962 265.807294,613.749993 265.390625,615.0625 C264.765622,617.06251 264.453125,619.249988 264.453125,621.625 L264.453125,639 L258.828125,639 Z M280.234375,599.65625 L280.234375,593.1875 L285.859375,593.1875 L285.859375,599.65625 L280.234375,599.65625 Z M280.234375,639 L280.234375,605.8125 L285.859375,605.8125 L285.859375,639 L280.234375,639 Z M316.078125,634.90625 C313.994781,636.677092 311.989593,637.92708 310.0625,638.65625 C308.135407,639.38542 306.067719,639.75 303.859375,639.75 C300.213523,639.75 297.411468,638.859384 295.453125,637.078125 C293.494782,635.296866 292.515625,633.020847 292.515625,630.25 C292.515625,628.624992 292.885413,627.140632 293.625,625.796875 C294.364587,624.453118 295.333327,623.375004 296.53125,622.5625 C297.729173,621.749996 299.078117,621.135419 300.578125,620.71875 C301.682297,620.427082 303.348947,620.145835 305.578125,619.875 C310.119814,619.333331 313.463531,618.687504 315.609375,617.9375 C315.630208,617.166663 315.640625,616.677084 315.640625,616.46875 C315.640625,614.177072 315.10938,612.562505 314.046875,611.625 C312.609368,610.35416 310.473973,609.71875 307.640625,609.71875 C304.994778,609.71875 303.041673,610.182287 301.78125,611.109375 C300.520827,612.036463 299.588545,613.677072 298.984375,616.03125 L293.484375,615.28125 C293.984377,612.927072 294.807286,611.026049 295.953125,609.578125 C297.098964,608.130201 298.755198,607.015629 300.921875,606.234375 C303.088552,605.453121 305.598944,605.0625 308.453125,605.0625 C311.286473,605.0625 313.588533,605.39583 315.359375,606.0625 C317.130217,606.72917 318.432288,607.567703 319.265625,608.578125 C320.098963,609.588547 320.68229,610.864576 321.015625,612.40625 C321.203126,613.364588 321.296875,615.093737 321.296875,617.59375 L321.296875,625.09375 C321.296875,630.322943 321.416665,633.630201 321.65625,635.015625 C321.895835,636.401049 322.369788,637.72916 323.078125,639 L317.203125,639 C316.619789,637.833327 316.244793,636.468758 316.078125,634.90625 L316.078125,634.90625 Z M315.609375,622.34375 C313.567698,623.177087 310.505229,623.885414 306.421875,624.46875 C304.109363,624.802085 302.473963,625.177081 301.515625,625.59375 C300.557287,626.010419 299.817711,626.619788 299.296875,627.421875 C298.776039,628.223962 298.515625,629.114578 298.515625,630.09375 C298.515625,631.593758 299.083328,632.843745 300.21875,633.84375 C301.354172,634.843755 303.015614,635.34375 305.203125,635.34375 C307.369802,635.34375 309.296867,634.869796 310.984375,633.921875 C312.671883,632.973954 313.911454,631.677092 314.703125,630.03125 C315.307295,628.76041 315.609375,626.885429 315.609375,624.40625 L315.609375,622.34375 Z M329.890625,639 L329.890625,593.1875 L335.515625,593.1875 L335.515625,639 L329.890625,639 Z"/>
    <rect width="252" height="1" y="496" fill="#F1F4F5"/>
    <rect width="252" height="1" x="300" y="496" fill="#F1F4F5"/>
    <path fill="#BAC8D1" d="M275.310944,489.255655 C278.189628,488.81517 281.073795,488.400274 283.957962,488 C283.95979,490.527759 283.957962,493.05369 283.95979,495.581448 C281.077451,495.592415 278.195111,495.63628 275.310944,495.645419 C275.309116,493.514279 275.309116,491.384967 275.310944,489.255653 L275.310944,489.255654 L275.310944,489.255655 L275.310944,489.255655 Z M268,490.275531 C270.167695,489.941055 272.344528,489.652273 274.521362,489.379941 C274.523189,491.476353 274.523189,493.570939 274.525017,495.667352 C272.350011,495.665524 270.175006,495.698423 268,495.69294 L268,490.275531 L268,490.275531 L268,490.275531 Z M268,496.352753 C270.173178,496.345442 272.346356,496.380169 274.519534,496.376513 C274.519534,498.478409 274.525017,500.580306 274.521362,502.682203 C272.350011,502.360521 270.175006,502.079049 268,501.784784 L268,496.352753 L268,496.352753 Z M275.298149,496.436829 L283.957961,496.436829 C283.961618,498.957277 283.957961,501.477724 283.957961,504 C281.079277,503.568654 278.19511,503.16838 275.310943,502.777244 C275.307288,500.664382 275.301805,498.551519 275.298149,496.436829 L275.298149,496.436829 L275.298149,496.436829 Z"/>
    <path fill="#51575B" d="M195.109375,379.59375 L184.421875,379.59375 L184.421875,398 L178.390625,398 L178.390625,352.5 L193.453125,352.5 C198.578151,352.5 202.52082,353.666655 205.28125,356 C208.04168,358.333345 209.421875,361.729144 209.421875,366.1875 C209.421875,369.020848 208.656258,371.489573 207.125,373.59375 C205.593742,375.697927 203.463555,377.270828 200.734375,378.3125 L211.421875,397.625 L211.421875,398 L204.984375,398 L195.109375,379.59375 Z M184.421875,374.6875 L193.640625,374.6875 C195.265633,374.6875 196.687494,374.463544 197.90625,374.015625 C199.125006,373.567706 200.140621,372.963545 200.953125,372.203125 C201.765629,371.442705 202.374998,370.54688 202.78125,369.515625 C203.187502,368.48437 203.390625,367.375006 203.390625,366.1875 C203.390625,364.874993 203.197919,363.682297 202.8125,362.609375 C202.427081,361.536453 201.828129,360.614587 201.015625,359.84375 C200.203121,359.072913 199.171881,358.479169 197.921875,358.0625 C196.671869,357.645831 195.1823,357.4375 193.453125,357.4375 L184.421875,357.4375 L184.421875,374.6875 Z M215.390625,380.78125 C215.390625,378.322904 215.749996,376.046885 216.46875,373.953125 C217.187504,371.859365 218.208327,370.041674 219.53125,368.5 C220.854173,366.958326 222.463532,365.750004 224.359375,364.875 C226.255218,363.999996 228.380197,363.5625 230.734375,363.5625 C233.13022,363.5625 235.28124,363.999996 237.1875,364.875 C239.09376,365.750004 240.713535,366.958326 242.046875,368.5 C243.380215,370.041674 244.401038,371.859365 245.109375,373.953125 C245.817712,376.046885 246.171875,378.322904 246.171875,380.78125 L246.171875,381.46875 C246.171875,383.927096 245.817712,386.203115 245.109375,388.296875 C244.401038,390.390635 243.380215,392.203117 242.046875,393.734375 C240.713535,395.265633 239.098968,396.463537 237.203125,397.328125 C235.307282,398.192713 233.171887,398.625 230.796875,398.625 C228.421863,398.625 226.286468,398.192713 224.390625,397.328125 C222.494782,396.463537 220.880215,395.265633 219.546875,393.734375 C218.213535,392.203117 217.187504,390.390635 216.46875,388.296875 C215.749996,386.203115 215.390625,383.927096 215.390625,381.46875 L215.390625,380.78125 Z M221.203125,381.46875 C221.203125,383.156258 221.40104,384.749993 221.796875,386.25 C222.19271,387.750007 222.791663,389.067703 223.59375,390.203125 C224.395837,391.338547 225.395827,392.23958 226.59375,392.90625 C227.791673,393.57292 229.1927,393.90625 230.796875,393.90625 C232.380216,393.90625 233.776036,393.57292 234.984375,392.90625 C236.192714,392.23958 237.192704,391.338547 237.984375,390.203125 C238.776046,389.067703 239.374998,387.750007 239.78125,386.25 C240.187502,384.749993 240.390625,383.156258 240.390625,381.46875 L240.390625,380.78125 C240.390625,379.114575 240.187502,377.526049 239.78125,376.015625 C239.374998,374.505201 238.770837,373.182297 237.96875,372.046875 C237.166663,370.911453 236.161464,370.005212 234.953125,369.328125 C233.744786,368.651038 232.33855,368.3125 230.734375,368.3125 C229.151034,368.3125 227.765631,368.651038 226.578125,369.328125 C225.390619,370.005212 224.395837,370.911453 223.59375,372.046875 C222.791663,373.182297 222.19271,374.505201 221.796875,376.015625 C221.40104,377.526049 221.203125,379.114575 221.203125,380.78125 L221.203125,381.46875 Z M282.046875,381.46875 C282.046875,383.947929 281.755211,386.234365 281.171875,388.328125 C280.588539,390.421885 279.734381,392.234367 278.609375,393.765625 C277.484369,395.296883 276.109383,396.489579 274.484375,397.34375 C272.859367,398.197921 271.005219,398.625 268.921875,398.625 C266.692697,398.625 264.765633,398.234379 263.140625,397.453125 C261.515617,396.671871 260.140631,395.552091 259.015625,394.09375 L258.734375,398 L253.421875,398 L253.421875,350 L259.203125,350 L259.203125,367.90625 C260.328131,366.51041 261.682284,365.437504 263.265625,364.6875 C264.848966,363.937496 266.713531,363.5625 268.859375,363.5625 C270.984386,363.5625 272.864575,363.979163 274.5,364.8125 C276.135425,365.645837 277.510411,366.817701 278.625,368.328125 C279.739589,369.838549 280.588539,371.651031 281.171875,373.765625 C281.755211,375.880219 282.046875,378.229154 282.046875,380.8125 L282.046875,381.46875 Z M276.265625,380.8125 C276.265625,379.124992 276.109377,377.536466 275.796875,376.046875 C275.484373,374.557284 274.97917,373.250006 274.28125,372.125 C273.58333,370.999994 272.671881,370.109378 271.546875,369.453125 C270.421869,368.796872 269.046883,368.46875 267.421875,368.46875 C266.35937,368.46875 265.401046,368.604165 264.546875,368.875 C263.692704,369.145835 262.927087,369.520831 262.25,370 C261.572913,370.479169 260.984377,371.041663 260.484375,371.6875 C259.984373,372.333337 259.557293,373.031246 259.203125,373.78125 L259.203125,388.40625 C259.578127,389.156254 260.020831,389.854163 260.53125,390.5 C261.041669,391.145837 261.635413,391.708331 262.3125,392.1875 C262.989587,392.666669 263.755204,393.041665 264.609375,393.3125 C265.463546,393.583335 266.42187,393.71875 267.484375,393.71875 C269.046883,393.71875 270.380203,393.395837 271.484375,392.75 C272.588547,392.104163 273.494788,391.229172 274.203125,390.125 C274.911462,389.020828 275.43229,387.723966 275.765625,386.234375 C276.09896,384.744784 276.265625,383.156258 276.265625,381.46875 L276.265625,380.8125 Z M287.796875,380.78125 C287.796875,378.322904 288.156246,376.046885 288.875,373.953125 C289.593754,371.859365 290.614577,370.041674 291.9375,368.5 C293.260423,366.958326 294.869782,365.750004 296.765625,364.875 C298.661468,363.999996 300.786447,363.5625 303.140625,363.5625 C305.53647,363.5625 307.68749,363.999996 309.59375,364.875 C311.50001,365.750004 313.119785,366.958326 314.453125,368.5 C315.786465,370.041674 316.807288,371.859365 317.515625,373.953125 C318.223962,376.046885 318.578125,378.322904 318.578125,380.78125 L318.578125,381.46875 C318.578125,383.927096 318.223962,386.203115 317.515625,388.296875 C316.807288,390.390635 315.786465,392.203117 314.453125,393.734375 C313.119785,395.265633 311.505218,396.463537 309.609375,397.328125 C307.713532,398.192713 305.578137,398.625 303.203125,398.625 C300.828113,398.625 298.692718,398.192713 296.796875,397.328125 C294.901032,396.463537 293.286465,395.265633 291.953125,393.734375 C290.619785,392.203117 289.593754,390.390635 288.875,388.296875 C288.156246,386.203115 287.796875,383.927096 287.796875,381.46875 L287.796875,380.78125 Z M293.609375,381.46875 C293.609375,383.156258 293.80729,384.749993 294.203125,386.25 C294.59896,387.750007 295.197913,389.067703 296,390.203125 C296.802087,391.338547 297.802077,392.23958 299,392.90625 C300.197923,393.57292 301.59895,393.90625 303.203125,393.90625 C304.786466,393.90625 306.182286,393.57292 307.390625,392.90625 C308.598964,392.23958 309.598954,391.338547 310.390625,390.203125 C311.182296,389.067703 311.781248,387.750007 312.1875,386.25 C312.593752,384.749993 312.796875,383.156258 312.796875,381.46875 L312.796875,380.78125 C312.796875,379.114575 312.593752,377.526049 312.1875,376.015625 C311.781248,374.505201 311.177087,373.182297 310.375,372.046875 C309.572913,370.911453 308.567714,370.005212 307.359375,369.328125 C306.151036,368.651038 304.7448,368.3125 303.140625,368.3125 C301.557284,368.3125 300.171881,368.651038 298.984375,369.328125 C297.796869,370.005212 296.802087,370.911453 296,372.046875 C295.197913,373.182297 294.59896,374.505201 294.203125,376.015625 C293.80729,377.526049 293.609375,379.114575 293.609375,380.78125 L293.609375,381.46875 Z M333.671875,356 L333.671875,364.1875 L339.984375,364.1875 L339.984375,368.65625 L333.671875,368.65625 L333.671875,389.625 C333.671875,390.500004 333.776041,391.203122 333.984375,391.734375 C334.192709,392.265628 334.468748,392.677082 334.8125,392.96875 C335.156252,393.260418 335.552081,393.453125 336,393.546875 C336.447919,393.640625 336.911456,393.6875 337.390625,393.6875 C337.869794,393.6875 338.374997,393.640625 338.90625,393.546875 C339.437503,393.453125 339.848957,393.375 340.140625,393.3125 L340.140625,398 C339.682289,398.125001 339.088545,398.260416 338.359375,398.40625 C337.630205,398.552084 336.744797,398.625 335.703125,398.625 C334.64062,398.625 333.635421,398.47396 332.6875,398.171875 C331.739579,397.86979 330.911462,397.364587 330.203125,396.65625 C329.494788,395.947913 328.932294,395.015631 328.515625,393.859375 C328.098956,392.703119 327.890625,391.281258 327.890625,389.59375 L327.890625,368.65625 L321.734375,368.65625 L321.734375,364.1875 L327.890625,364.1875 L327.890625,356 L333.671875,356 Z M345.203125,380.78125 C345.203125,378.322904 345.562496,376.046885 346.28125,373.953125 C347.000004,371.859365 348.020827,370.041674 349.34375,368.5 C350.666673,366.958326 352.276032,365.750004 354.171875,364.875 C356.067718,363.999996 358.192697,363.5625 360.546875,363.5625 C362.94272,363.5625 365.09374,363.999996 367,364.875 C368.90626,365.750004 370.526035,366.958326 371.859375,368.5 C373.192715,370.041674 374.213538,371.859365 374.921875,373.953125 C375.630212,376.046885 375.984375,378.322904 375.984375,380.78125 L375.984375,381.46875 C375.984375,383.927096 375.630212,386.203115 374.921875,388.296875 C374.213538,390.390635 373.192715,392.203117 371.859375,393.734375 C370.526035,395.265633 368.911468,396.463537 367.015625,397.328125 C365.119782,398.192713 362.984387,398.625 360.609375,398.625 C358.234363,398.625 356.098968,398.192713 354.203125,397.328125 C352.307282,396.463537 350.692715,395.265633 349.359375,393.734375 C348.026035,392.203117 347.000004,390.390635 346.28125,388.296875 C345.562496,386.203115 345.203125,383.927096 345.203125,381.46875 L345.203125,380.78125 Z M351.015625,381.46875 C351.015625,383.156258 351.21354,384.749993 351.609375,386.25 C352.00521,387.750007 352.604163,389.067703 353.40625,390.203125 C354.208337,391.338547 355.208327,392.23958 356.40625,392.90625 C357.604173,393.57292 359.0052,393.90625 360.609375,393.90625 C362.192716,393.90625 363.588536,393.57292 364.796875,392.90625 C366.005214,392.23958 367.005204,391.338547 367.796875,390.203125 C368.588546,389.067703 369.187498,387.750007 369.59375,386.25 C370.000002,384.749993 370.203125,383.156258 370.203125,381.46875 L370.203125,380.78125 C370.203125,379.114575 370.000002,377.526049 369.59375,376.015625 C369.187498,374.505201 368.583337,373.182297 367.78125,372.046875 C366.979163,370.911453 365.973964,370.005212 364.765625,369.328125 C363.557286,368.651038 362.15105,368.3125 360.546875,368.3125 C358.963534,368.3125 357.578131,368.651038 356.390625,369.328125 C355.203119,370.005212 354.208337,370.911453 353.40625,372.046875 C352.604163,373.182297 352.00521,374.505201 351.609375,376.015625 C351.21354,377.526049 351.015625,379.114575 351.015625,380.78125 L351.015625,381.46875 Z"/>
    <rect width="252" height="1" y="256" fill="#F1F4F5"/>
    <rect width="252" height="1" x="300" y="256" fill="#F1F4F5"/>
    <path fill="#BAC8D1" d="M270.003386,253.17485 C269.446441,253.17485 269,253.617757 269,254.160534 L269,258.294325 C269,258.841445 269.450861,259.280009 270.003386,259.280009 C270.560332,259.280009 271.006773,258.837103 271.006773,258.294325 L271.006773,254.160534 C271.006773,253.617757 270.555912,253.17485 270.003386,253.17485 L270.003386,253.17485 Z M278.105622,249.462254 L278.808434,248.203011 C278.843796,248.137877 278.821695,248.055375 278.755392,248.016295 C278.689089,247.981557 278.600684,248.003269 278.565323,248.072744 L277.85809,249.345014 C277.261362,249.084481 276.593912,248.936845 275.886679,248.936845 C275.183866,248.936845 274.516415,249.080139 273.924108,249.340672 L273.216875,248.072744 C273.181514,248.007611 273.093109,247.981557 273.026806,248.016295 C272.960503,248.051033 272.933982,248.137877 272.969344,248.203011 L273.672156,249.462254 C272.293052,250.161351 271.360389,251.49007 271.360389,253.01853 L280.412968,253.01853 C280.412968,251.49007 279.484725,250.161351 278.105622,249.462254 L278.105622,249.462254 Z M273.826863,251.407568 C273.619114,251.407568 273.446726,251.242563 273.446726,251.034137 C273.446726,250.830053 273.614694,250.660706 273.826863,250.660706 C274.034613,250.660706 274.207001,250.830053 274.207001,251.034137 C274.207001,251.242563 274.039033,251.407568 273.826863,251.407568 L273.826863,251.407568 Z M277.950914,251.407568 C277.743165,251.407568 277.570777,251.242563 277.570777,251.034137 C277.570777,250.830053 277.738745,250.660706 277.950914,250.660706 C278.158664,250.660706 278.331052,250.830053 278.331052,251.034137 C278.326632,251.238221 278.158664,251.407568 277.950914,251.407568 L277.950914,251.407568 Z M271.395751,253.361566 L271.395751,259.77068 C271.395751,260.352537 271.873133,260.825839 272.469861,260.825839 L273.199194,260.825839 L273.199194,263.014316 C273.199194,263.557094 273.650055,264 274.202581,264 C274.759527,264 275.205967,263.557094 275.205967,263.009974 L275.205967,260.821496 L276.56297,260.821496 L276.56297,263.009974 C276.56297,263.552752 277.013831,263.995658 277.566357,263.995658 C278.123302,263.995658 278.569743,263.552752 278.569743,263.009974 L278.569743,260.821496 L279.303497,260.821496 C279.895804,260.821496 280.377607,260.352537 280.377607,259.766337 L280.377607,253.357223 L271.395751,253.361566 L271.395751,253.361566 Z M282.777778,254.160534 C282.777778,253.613414 282.326917,253.17485 281.774391,253.17485 C281.217446,253.17485 280.771005,253.617757 280.771005,254.160534 L280.771005,258.294325 C280.771005,258.841445 281.221866,259.280009 281.774391,259.280009 C282.331337,259.280009 282.777778,258.837103 282.777778,258.294325 L282.777778,254.160534 L282.777778,254.160534 Z"/>
    <path fill="#51575B" d="M83.71875,146.59375 C84.25,154.5625 90.875,159.75 100.4375,159.75 C110.8125,159.75 117.3125,154.59375 117.3125,146.34375 C117.3125,139.875 113.53125,136.28125 104.1875,133.9375 L99.46875,132.6875 C93.34375,131.09375 90.84375,129.0625 90.84375,125.65625 C90.84375,121.25 94.90625,118.21875 100.75,118.21875 C106.625,118.21875 110.53125,121.1875 111.03125,126.03125 L116.65625,126.03125 C116.40625,118.46875 109.90625,113.15625 100.9375,113.15625 C91.5625,113.15625 85,118.40625 85,125.90625 C85,132.03125 88.6875,135.6875 97,137.8125 L102.78125,139.3125 C108.84375,140.875 111.5,143.21875 111.5,147.03125 C111.5,151.46875 107.0625,154.6875 100.96875,154.6875 C94.53125,154.6875 89.90625,151.46875 89.375,146.59375 L83.71875,146.59375 Z M134.1875,154.59375 C129.9375,154.59375 127.21875,152.5625 127.21875,149.4375 C127.21875,146.1875 129.84375,144.34375 134.90625,144.03125 L143.71875,143.46875 L143.71875,146.1875 C143.71875,151.03125 139.6875,154.59375 134.1875,154.59375 L134.1875,154.59375 Z M133.03125,159.3125 C137.75,159.3125 141.96875,156.90625 143.875,153.15625 L144,153.15625 L144,159 L149.15625,159 L149.15625,135.875 C149.15625,129.25 144.03125,125 136.0625,125 C129,125 123.46875,129.34375 123.3125,135.03125 L128.53125,135.03125 C129.1875,131.84375 132.09375,129.84375 136,129.84375 C140.96875,129.84375 143.71875,132.15625 143.71875,136.34375 L143.71875,139.15625 L134.28125,139.71875 C126.09375,140.21875 121.65625,143.625 121.65625,149.40625 C121.65625,155.375 126.1875,159.3125 133.03125,159.3125 L133.03125,159.3125 Z M156.375,159 L161.8125,159 L161.8125,139.4375 C161.8125,133.65625 165.15625,129.84375 170.6875,129.84375 C176,129.84375 178.5625,132.84375 178.5625,138.34375 L178.5625,159 L184,159 L184,137.40625 C184,129.75 179.71875,125 172.3125,125 C167.09375,125 163.75,126.96875 161.625,130.78125 L161.5,130.78125 L161.5,125.3125 L156.375,125.3125 L156.375,159 Z M212.84375,159 L212.84375,139.46875 L232.8125,139.46875 L232.8125,134.46875 L212.84375,134.46875 L212.84375,118.96875 L234.59375,118.96875 L234.59375,113.90625 L207.21875,113.90625 L207.21875,159 L212.84375,159 Z M240.3125,159 L245.75,159 L245.75,138.15625 C245.75,133.40625 248.625,130.21875 253,130.21875 C254.34375,130.21875 255.53125,130.375 255.96875,130.53125 L255.96875,125.1875 C255.5,125.09375 254.6875,125 253.71875,125 C249.78125,125 246.5625,127.25 245.5625,130.78125 L245.4375,130.78125 L245.4375,125.3125 L240.3125,125.3125 L240.3125,159 Z M271.59375,154.59375 C267.34375,154.59375 264.625,152.5625 264.625,149.4375 C264.625,146.1875 267.25,144.34375 272.3125,144.03125 L281.125,143.46875 L281.125,146.1875 C281.125,151.03125 277.09375,154.59375 271.59375,154.59375 L271.59375,154.59375 Z M270.4375,159.3125 C275.15625,159.3125 279.375,156.90625 281.28125,153.15625 L281.40625,153.15625 L281.40625,159 L286.5625,159 L286.5625,135.875 C286.5625,129.25 281.4375,125 273.46875,125 C266.40625,125 260.875,129.34375 260.71875,135.03125 L265.9375,135.03125 C266.59375,131.84375 269.5,129.84375 273.40625,129.84375 C278.375,129.84375 281.125,132.15625 281.125,136.34375 L281.125,139.15625 L271.6875,139.71875 C263.5,140.21875 259.0625,143.625 259.0625,149.40625 C259.0625,155.375 263.59375,159.3125 270.4375,159.3125 L270.4375,159.3125 Z M293.78125,159 L299.21875,159 L299.21875,139.4375 C299.21875,133.65625 302.5625,129.84375 308.09375,129.84375 C313.40625,129.84375 315.96875,132.84375 315.96875,138.34375 L315.96875,159 L321.40625,159 L321.40625,137.40625 C321.40625,129.75 317.125,125 309.71875,125 C304.5,125 301.15625,126.96875 299.03125,130.78125 L298.90625,130.78125 L298.90625,125.3125 L293.78125,125.3125 L293.78125,159 Z M356.46875,136.28125 C355.78125,130.375 350.6875,125 342.34375,125 C333.125,125 326.96875,131.8125 326.96875,142.15625 C326.96875,152.75 333.15625,159.3125 342.40625,159.3125 C350.09375,159.3125 355.625,154.78125 356.53125,148.21875 L351.1875,148.21875 C350.25,152.28125 347.125,154.46875 342.4375,154.46875 C336.5625,154.46875 332.5,149.8125 332.5,142.15625 C332.5,134.71875 336.5,129.84375 342.375,129.84375 C347.4375,129.84375 350.4375,132.6875 351.125,136.28125 L356.46875,136.28125 Z M362.0625,159 L367.5,159 L367.5,125.3125 L362.0625,125.3125 L362.0625,159 Z M364.78125,119.875 C366.6875,119.875 368.21875,118.3125 368.21875,116.4375 C368.21875,114.53125 366.6875,113 364.78125,113 C362.90625,113 361.34375,114.53125 361.34375,116.4375 C361.34375,118.3125 362.90625,119.875 364.78125,119.875 L364.78125,119.875 Z M374.625,134.71875 C374.625,139.21875 377.5,142.1875 383.40625,143.71875 L389.3125,145.25 C393.15625,146.25 394.5625,147.5 394.5625,149.875 C394.5625,152.90625 391.6875,154.8125 387.09375,154.8125 C382.5,154.8125 379.71875,152.96875 379.15625,149.53125 L373.6875,149.53125 C374.21875,155.375 379.46875,159.3125 386.71875,159.3125 C394.5,159.3125 400.03125,155.25 400.03125,149.5 C400.03125,144.59375 397.59375,142.21875 390.78125,140.5 L385.65625,139.21875 C381.78125,138.25 379.96875,136.71875 379.96875,134.4375 C379.96875,131.5 382.75,129.53125 386.90625,129.53125 C391.03125,129.53125 393.78125,131.5 394.125,134.65625 L399.34375,134.65625 C399.125,129.125 393.9375,125.03125 387.09375,125.03125 C379.78125,125.03125 374.625,129.03125 374.625,134.71875 L374.625,134.71875 Z M433.78125,136.28125 C433.09375,130.375 428,125 419.65625,125 C410.4375,125 404.28125,131.8125 404.28125,142.15625 C404.28125,152.75 410.46875,159.3125 419.71875,159.3125 C427.40625,159.3125 432.9375,154.78125 433.84375,148.21875 L428.5,148.21875 C427.5625,152.28125 424.4375,154.46875 419.75,154.46875 C413.875,154.46875 409.8125,149.8125 409.8125,142.15625 C409.8125,134.71875 413.8125,129.84375 419.6875,129.84375 C424.75,129.84375 427.75,132.6875 428.4375,136.28125 L433.78125,136.28125 Z M452.9375,159.3125 C462.40625,159.3125 468.46875,152.59375 468.46875,142.15625 C468.46875,131.6875 462.40625,125 452.9375,125 C443.46875,125 437.40625,131.6875 437.40625,142.15625 C437.40625,152.59375 443.46875,159.3125 452.9375,159.3125 L452.9375,159.3125 Z M452.9375,154.46875 C446.6875,154.46875 442.9375,149.875 442.9375,142.15625 C442.9375,134.4375 446.65625,129.84375 452.9375,129.84375 C459.21875,129.84375 462.9375,134.40625 462.9375,142.15625 C462.9375,149.875 459.21875,154.46875 452.9375,154.46875 L452.9375,154.46875 Z"/>
    <rect width="232" height="1" y="15" fill="#F1F4F5"/>
    <rect width="232" height="1" x="320" y="15" fill="#F1F4F5"/>
    <path fill="#BAC8D1" d="M249.878721,9.30240789 C249.878721,9.57906844 249.710257,9.78373254 249.42126,9.78373254 C249.180598,9.78373254 249,9.57906844 249,9.30240789 C249,9.03747709 249.19253,8.820881 249.445326,8.820881 C249.710257,8.820881 249.878721,9.03747709 249.878721,9.30240789 L249.878721,9.30240789 Z M249.212551,23.7694495 L249.212551,12.7030272 L249.66617,12.7030272 L249.66617,23.7694495 L249.212551,23.7694495 Z M264.753877,15.8846236 C264.753877,21.4639449 261.656614,24 258.266309,24 C254.802996,24 251.998369,21.2566517 251.998369,16.1153764 C251.998369,10.835973 254.900676,8 258.510207,8 C262.046527,7.99979776 264.753877,10.7894584 264.753877,15.8846236 Z M252.458055,15.9998989 C252.458055,20.2302977 254.508336,23.516653 258.287746,23.516653 C262.093446,23.516653 264.276193,20.129179 264.276193,15.9517664 C264.276193,12.0779119 262.527245,8.54260254 258.536295,8.54260254 C254.545345,8.54260254 252.458055,11.8712254 252.458055,15.9998989 Z M266.418694,22.5703849 C267.179713,23.0775959 268.493244,23.5674145 269.622941,23.5674145 C271.767061,23.5674145 273.673956,22.0674208 273.673956,19.8595968 C273.673956,17.8107312 272.403703,16.7417051 270.247045,15.8233458 C268.316893,15.0014536 266.581495,14.1093851 266.581495,11.9191557 C266.581495,9.6369083 268.379587,8.02285281 270.823422,8.02285281 C272.137559,8.02285281 273.128926,8.39173355 273.590027,8.7145042 L273.406598,9.11250711 C273.014662,8.83604879 271.955546,8.4837515 270.802996,8.4837515 C268.220224,8.4837515 267.095178,10.435341 267.095178,11.8720344 C267.095178,13.8563863 268.633394,14.5199267 270.616128,15.4651836 C272.921633,16.5948809 274.143348,17.5906971 274.143348,19.7580737 C274.143348,22.0866334 272.483587,23.976945 269.532541,23.976945 C268.310422,23.976945 266.904266,23.5619541 266.212615,23.031688 L266.418694,22.5703849 Z"/>
    <polygon fill="#BAC8D1" points="302.409 8 296.835 15.253 291.386 8 290.567 8 296.457 15.72 290 24 290.756 24 296.835 16.187 302.945 24 303.732 24 297.244 15.72 303.165 8 303.165 8"/>
  </g>
</svg>
