<?xml version="1.0" encoding="UTF-8"?>
<svg width="552px" height="736px" viewBox="0 0 552 736" version="1.1" xmlns="http://www.w3.org/2000/svg" xmlns:xlink="http://www.w3.org/1999/xlink">
    <title>typography-fonts</title>
    <g id="Page-1" stroke="none" stroke-width="1" fill="none" fill-rule="evenodd">
        <g id="typography-fonts" fill-rule="nonzero">
            <polygon id="Path" fill="#FFFFFF" points="0 0 552 0 552 736 0 736"></polygon>
            <g id="a-link" transform="translate(211.000000, 593.000000)" fill="#8D989F">
                <path d="M0.890625,46 L18.484375,0.1875 L25.015625,0.1875 L43.765625,46 L36.859375,46 L31.515625,32.125 L12.359375,32.125 L7.328125,46 L0.890625,46 Z M14.109375,27.1875 L29.640625,27.1875 L24.859375,14.5 C23.401034,10.645814 22.317712,7.479179 21.609375,5 C21.026039,7.937515 20.20313,10.854152 19.140625,13.75 L14.109375,27.1875 Z M47.828125,46 L47.828125,12.8125 L52.890625,12.8125 L52.890625,17.84375 C54.182298,15.489572 55.374995,13.937504 56.46875,13.1875 C57.562505,12.437496 58.765618,12.0625 60.078125,12.0625 C61.973968,12.0625 63.901032,12.666661 65.859375,13.875 L63.921875,19.09375 C62.546868,18.281246 61.171882,17.875 59.796875,17.875 C58.567702,17.875 57.463547,18.244788 56.484375,18.984375 C55.505203,19.723962 54.807294,20.749993 54.390625,22.0625 C53.765622,24.0625 53.453125,26.249988 53.453125,28.625 L53.453125,46 L47.828125,46 Z M69.234375,6.65625 L69.234375,0.1875 L74.859375,0.1875 L74.859375,6.65625 L69.234375,6.65625 Z M69.234375,46 L69.234375,12.8125 L74.859375,12.8125 L74.859375,46 L69.234375,46 Z M105.078125,41.90625 C102.994781,43.677092 100.989593,44.92708 99.0625,45.65625 C97.135407,46.38542 95.067719,46.75 92.859375,46.75 C89.213523,46.75 86.411468,45.859384 84.453125,44.078125 C82.494782,42.296866 81.515625,40.020847 81.515625,37.25 C81.515625,35.624992 81.885413,34.140632 82.625,32.796875 C83.364587,31.453118 84.333327,30.375004 85.53125,29.5625 C86.729173,28.749996 88.078117,28.135419 89.578125,27.71875 C90.682297,27.427082 92.348947,27.145835 94.578125,26.875 C99.119814,26.333331 102.463531,25.687504 104.609375,24.9375 C104.630208,24.166663 104.640625,23.677084 104.640625,23.46875 C104.640625,21.177072 104.10938,19.5625 103.046875,18.625 C101.609368,17.35416 99.473973,16.71875 96.640625,16.71875 C93.994778,16.71875 92.041673,17.182287 90.78125,18.109375 C89.520827,19.036463 88.588545,20.677072 87.984375,23.03125 L82.484375,22.28125 C82.984377,19.927072 83.807286,18.026049 84.953125,16.578125 C86.098964,15.130201 87.755198,14.015629 89.921875,13.234375 C92.088552,12.453121 94.598944,12.0625 97.453125,12.0625 C100.286473,12.0625 102.588533,12.39583 104.359375,13.0625 C106.130217,13.72917 107.432288,14.567703 108.265625,15.578125 C109.098963,16.588547 109.68229,17.864576 110.015625,19.40625 C110.203126,20.364588 110.296875,22.093737 110.296875,24.59375 L110.296875,32.09375 C110.296875,37.322943 110.416665,40.630201 110.65625,42.015625 C110.895835,43.401049 111.369788,44.72916 112.078125,46 L106.203125,46 C105.619789,44.833327 105.244793,43.468758 105.078125,41.90625 Z M104.609375,29.34375 C102.567698,30.177087 99.505229,30.885414 95.421875,31.46875 C93.109363,31.802085 91.473963,32.177081 90.515625,32.59375 C89.557287,33.010419 88.817711,33.619788 88.296875,34.421875 C87.776039,35.223962 87.515625,36.114578 87.515625,37.09375 C87.515625,38.593758 88.083328,39.84375 89.21875,40.84375 C90.354172,41.84375 92.015614,42.34375 94.203125,42.34375 C96.369802,42.34375 98.296867,41.869796 99.984375,40.921875 C101.671883,39.973954 102.911454,38.677092 103.703125,37.03125 C104.307295,35.76041 104.609375,33.885429 104.609375,31.40625 L104.609375,29.34375 Z M118.890625,46 L118.890625,0.1875 L124.515625,0.1875 L124.515625,46 L118.890625,46 Z" id="a"></path>
            </g>
            <g id="a-link" transform="translate(211.000000, 593.000000)" fill="#34383B">
                <path d="M0.890625,46 L18.484375,0.1875 L25.015625,0.1875 L43.765625,46 L36.859375,46 L31.515625,32.125 L12.359375,32.125 L7.328125,46 L0.890625,46 Z M14.109375,27.1875 L29.640625,27.1875 L24.859375,14.5 C23.401034,10.645814 22.317712,7.479179 21.609375,5 C21.026039,7.937515 20.20313,10.854152 19.140625,13.75 L14.109375,27.1875 Z M47.828125,46 L47.828125,12.8125 L52.890625,12.8125 L52.890625,17.84375 C54.182298,15.489572 55.374995,13.937504 56.46875,13.1875 C57.562505,12.437496 58.765618,12.0625 60.078125,12.0625 C61.973968,12.0625 63.901032,12.666661 65.859375,13.875 L63.921875,19.09375 C62.546868,18.281246 61.171882,17.875 59.796875,17.875 C58.567702,17.875 57.463547,18.244788 56.484375,18.984375 C55.505203,19.723962 54.807294,20.749993 54.390625,22.0625 C53.765622,24.0625 53.453125,26.249988 53.453125,28.625 L53.453125,46 L47.828125,46 Z M69.234375,6.65625 L69.234375,0.1875 L74.859375,0.1875 L74.859375,6.65625 L69.234375,6.65625 Z M69.234375,46 L69.234375,12.8125 L74.859375,12.8125 L74.859375,46 L69.234375,46 Z M105.078125,41.90625 C102.994781,43.677092 100.989593,44.92708 99.0625,45.65625 C97.135407,46.38542 95.067719,46.75 92.859375,46.75 C89.213523,46.75 86.411468,45.859384 84.453125,44.078125 C82.494782,42.296866 81.515625,40.020847 81.515625,37.25 C81.515625,35.624992 81.885413,34.140632 82.625,32.796875 C83.364587,31.453118 84.333327,30.375004 85.53125,29.5625 C86.729173,28.749996 88.078117,28.135419 89.578125,27.71875 C90.682297,27.427082 92.348947,27.145835 94.578125,26.875 C99.119814,26.333331 102.463531,25.687504 104.609375,24.9375 C104.630208,24.166663 104.640625,23.677084 104.640625,23.46875 C104.640625,21.177072 104.10938,19.5625 103.046875,18.625 C101.609368,17.35416 99.473973,16.71875 96.640625,16.71875 C93.994778,16.71875 92.041673,17.182287 90.78125,18.109375 C89.520827,19.036463 88.588545,20.677072 87.984375,23.03125 L82.484375,22.28125 C82.984377,19.927072 83.807286,18.026049 84.953125,16.578125 C86.098964,15.130201 87.755198,14.015629 89.921875,13.234375 C92.088552,12.453121 94.598944,12.0625 97.453125,12.0625 C100.286473,12.0625 102.588533,12.39583 104.359375,13.0625 C106.130217,13.72917 107.432288,14.567703 108.265625,15.578125 C109.098963,16.588547 109.68229,17.864576 110.015625,19.40625 C110.203126,20.364588 110.296875,22.093737 110.296875,24.59375 L110.296875,32.09375 C110.296875,37.322943 110.416665,40.630201 110.65625,42.015625 C110.895835,43.401049 111.369788,44.72916 112.078125,46 L106.203125,46 C105.619789,44.833327 105.244793,43.468758 105.078125,41.90625 Z M104.609375,29.34375 C102.567698,30.177087 99.505229,30.885414 95.421875,31.46875 C93.109363,31.802085 91.473963,32.177081 90.515625,32.59375 C89.557287,33.010419 88.817711,33.619788 88.296875,34.421875 C87.776039,35.223962 87.515625,36.114578 87.515625,37.09375 C87.515625,38.593758 88.083328,39.84375 89.21875,40.84375 C90.354172,41.84375 92.015614,42.34375 94.203125,42.34375 C96.369802,42.34375 98.296867,41.869796 99.984375,40.921875 C101.671883,39.973954 102.911454,38.677092 103.703125,37.03125 C104.307295,35.76041 104.609375,33.885429 104.609375,31.40625 L104.609375,29.34375 Z M118.890625,46 L118.890625,0.1875 L124.515625,0.1875 L124.515625,46 L118.890625,46 Z" id="a"></path>
            </g>
            <path d="M0,496 L252,496 L252,497 L0,497 L0,496 Z M300,496 L552,496 L552,497 L300,497 L300,496 Z" id="Shape" fill="#BEC0C1"></path>
            <path d="M275.310944,489.255655 C278.189628,488.81517 281.073795,488.400274 283.957962,488 C283.95979,490.527759 283.957962,493.05369 283.95979,495.581448 C281.077451,495.592415 278.195111,495.63628 275.310944,495.645419 C275.309116,493.514279 275.309116,491.384967 275.310944,489.255653 L275.310944,489.255655 Z M268,490.275531 C270.167695,489.941055 272.344528,489.652273 274.521362,489.379941 C274.523189,491.476353 274.523189,493.570939 274.525017,495.667352 C272.350011,495.665524 270.175006,495.698423 268,495.69294 L268,490.275531 Z M268,496.352753 C270.173178,496.345442 272.346356,496.380169 274.519534,496.376513 C274.519534,498.478409 274.525017,500.580306 274.521362,502.682203 C272.350011,502.360521 270.175006,502.079049 268,501.784784 L268,496.352753 Z M275.298149,496.436829 L283.957961,496.436829 C283.961618,498.957277 283.957961,501.477724 283.957961,504 C281.079277,503.568654 278.19511,503.16838 275.310943,502.777244 C275.307288,500.664382 275.301805,498.551519 275.298149,496.436829 Z" id="Shape" fill="#BEC0C1"></path>
            <g id="b-link" transform="translate(178.000000, 350.000000)" fill="#8D989F">
                <path d="M17.109375,29.59375 L6.421875,29.59375 L6.421875,48 L0.390625,48 L0.390625,2.5 L15.453125,2.5 C20.578151,2.5 24.52082,3.666655 27.28125,6 C30.04168,8.333345 31.421875,11.729144 31.421875,16.1875 C31.421875,19.020848 30.656258,21.489573 29.125,23.59375 C27.593742,25.697927 25.463555,27.270828 22.734375,28.3125 L33.421875,47.625 L33.421875,48 L26.984375,48 L17.109375,29.59375 Z M6.421875,24.6875 L15.640625,24.6875 C17.265633,24.6875 18.687494,24.463544 19.90625,24.015625 C21.125006,23.567706 22.140621,22.963545 22.953125,22.203125 C23.765629,21.442705 24.374998,20.54688 24.78125,19.515625 C25.187502,18.48437 25.390625,17.375006 25.390625,16.1875 C25.390625,14.874993 25.197919,13.682297 24.8125,12.609375 C24.427081,11.536453 23.828129,10.614587 23.015625,9.84375 C22.203121,9.072913 21.171881,8.479169 19.921875,8.0625 C18.671869,7.645831 17.1823,7.4375 15.453125,7.4375 L6.421875,7.4375 L6.421875,24.6875 Z M37.390625,30.78125 C37.390625,28.322904 37.749996,26.046885 38.46875,23.953125 C39.187504,21.859365 40.208327,20.041674 41.53125,18.5 C42.854173,16.958326 44.463532,15.750004 46.359375,14.875 C48.255218,13.999996 50.380197,13.5625 52.734375,13.5625 C55.13022,13.5625 57.28124,13.999996 59.1875,14.875 C61.09376,15.750004 62.713535,16.958326 64.046875,18.5 C65.380215,20.041674 66.401038,21.859365 67.109375,23.953125 C67.817712,26.046885 68.171875,28.322904 68.171875,30.78125 L68.171875,31.46875 C68.171875,33.927096 67.817712,36.203115 67.109375,38.296875 C66.401038,40.390635 65.380215,42.203117 64.046875,43.734375 C62.713535,45.265633 61.098968,46.463537 59.203125,47.328125 C57.307282,48.192713 55.171887,48.625 52.796875,48.625 C50.421863,48.625 48.286468,48.192713 46.390625,47.328125 C44.494782,46.463537 42.880215,45.265633 41.546875,43.734375 C40.213535,42.203117 39.187504,40.390635 38.46875,38.296875 C37.749996,36.203115 37.390625,33.927096 37.390625,31.46875 L37.390625,30.78125 Z M43.203125,31.46875 C43.203125,33.156258 43.40104,34.749993 43.796875,36.25 C44.19271,37.750007 44.791663,39.067703 45.59375,40.203125 C46.395837,41.338547 47.395827,42.23958 48.59375,42.90625 C49.791673,43.57292 51.1927,43.90625 52.796875,43.90625 C54.380216,43.90625 55.776036,43.57292 56.984375,42.90625 C58.192714,42.23958 59.192704,41.338547 59.984375,40.203125 C60.776046,39.067703 61.374998,37.750007 61.78125,36.25 C62.187502,34.749993 62.390625,33.156258 62.390625,31.46875 L62.390625,30.78125 C62.390625,29.114575 62.187502,27.526049 61.78125,26.015625 C61.374998,24.505201 60.770837,23.182297 59.96875,22.046875 C59.166663,20.911453 58.161464,20.005212 56.953125,19.328125 C55.744786,18.651038 54.33855,18.3125 52.734375,18.3125 C51.151034,18.3125 49.765631,18.651038 48.578125,19.328125 C47.390619,20.005212 46.395837,20.911453 45.59375,22.046875 C44.791663,23.182297 44.19271,24.505201 43.796875,26.015625 C43.40104,27.526049 43.203125,29.114575 43.203125,30.78125 L43.203125,31.46875 Z M104.046875,31.46875 C104.046875,33.947929 103.755211,36.234365 103.171875,38.328125 C102.588539,40.421885 101.734381,42.234367 100.609375,43.765625 C99.484369,45.296883 98.109383,46.489579 96.484375,47.34375 C94.859367,48.197921 93.005219,48.625 90.921875,48.625 C88.692697,48.625 86.765633,48.234379 85.140625,47.453125 C83.515617,46.671871 82.140631,45.552091 81.015625,44.09375 L80.734375,48 L75.421875,48 L75.421875,0 L81.203125,0 L81.203125,17.90625 C82.328131,16.51041 83.682284,15.437504 85.265625,14.6875 C86.848966,13.937496 88.713531,13.5625 90.859375,13.5625 C92.984386,13.5625 94.864575,13.979163 96.5,14.8125 C98.135425,15.645837 99.510411,16.817701 100.625,18.328125 C101.739589,19.838549 102.588539,21.651031 103.171875,23.765625 C103.755211,25.880219 104.046875,28.229154 104.046875,30.8125 L104.046875,31.46875 Z M98.265625,30.8125 C98.265625,29.124992 98.109377,27.536466 97.796875,26.046875 C97.484373,24.557284 96.97917,23.250006 96.28125,22.125 C95.58333,20.999994 94.671881,20.109378 93.546875,19.453125 C92.421869,18.796872 91.046883,18.46875 89.421875,18.46875 C88.35937,18.46875 87.401046,18.604165 86.546875,18.875 C85.692704,19.145835 84.927087,19.520831 84.25,20 C83.572913,20.479169 82.984377,21.041663 82.484375,21.6875 C81.984373,22.333337 81.557293,23.031246 81.203125,23.78125 L81.203125,38.40625 C81.578127,39.156254 82.020831,39.854163 82.53125,40.5 C83.041669,41.145837 83.635413,41.708331 84.3125,42.1875 C84.989587,42.666669 85.755204,43.041665 86.609375,43.3125 C87.463546,43.583335 88.42187,43.71875 89.484375,43.71875 C91.046883,43.71875 92.380203,43.395837 93.484375,42.75 C94.588547,42.104163 95.494788,41.229172 96.203125,40.125 C96.911462,39.020828 97.43229,37.723966 97.765625,36.234375 C98.09896,34.744784 98.265625,33.156258 98.265625,31.46875 L98.265625,30.8125 Z M109.796875,30.78125 C109.796875,28.322904 110.156246,26.046885 110.875,23.953125 C111.593754,21.859365 112.614577,20.041674 113.9375,18.5 C115.260423,16.958326 116.869782,15.750004 118.765625,14.875 C120.661468,13.999996 122.786447,13.5625 125.140625,13.5625 C127.53647,13.5625 129.68749,13.999996 131.59375,14.875 C133.50001,15.750004 135.119785,16.958326 136.453125,18.5 C137.786465,20.041674 138.807288,21.859365 139.515625,23.953125 C140.223962,26.046885 140.578125,28.322904 140.578125,30.78125 L140.578125,31.46875 C140.578125,33.927096 140.223962,36.203115 139.515625,38.296875 C138.807288,40.390635 137.786465,42.203117 136.453125,43.734375 C135.119785,45.265633 133.505218,46.463537 131.609375,47.328125 C129.713532,48.192713 127.578137,48.625 125.203125,48.625 C122.828113,48.625 120.692718,48.192713 118.796875,47.328125 C116.901032,46.463537 115.286465,45.265633 113.953125,43.734375 C112.619785,42.203117 111.593754,40.390635 110.875,38.296875 C110.156246,36.203115 109.796875,33.927096 109.796875,31.46875 L109.796875,30.78125 Z M115.609375,31.46875 C115.609375,33.156258 115.80729,34.749993 116.203125,36.25 C116.59896,37.750007 117.197913,39.067703 118,40.203125 C118.802087,41.338547 119.802077,42.23958 121,42.90625 C122.197923,43.57292 123.59895,43.90625 125.203125,43.90625 C126.786466,43.90625 128.182286,43.57292 129.390625,42.90625 C130.598964,42.23958 131.598954,41.338547 132.390625,40.203125 C133.182296,39.067703 133.781248,37.750007 134.1875,36.25 C134.593752,34.749993 134.796875,33.156258 134.796875,31.46875 L134.796875,30.78125 C134.796875,29.114575 134.593752,27.526049 134.1875,26.015625 C133.781248,24.505201 133.177087,23.182297 132.375,22.046875 C131.572913,20.911453 130.567714,20.005212 129.359375,19.328125 C128.151036,18.651038 126.7448,18.3125 125.140625,18.3125 C123.557284,18.3125 122.171881,18.651038 120.984375,19.328125 C119.796869,20.005212 118.802087,20.911453 118,22.046875 C117.197913,23.182297 116.59896,24.505201 116.203125,26.015625 C115.80729,27.526049 115.609375,29.114575 115.609375,30.78125 L115.609375,31.46875 Z M155.671875,6 L155.671875,14.1875 L161.984375,14.1875 L161.984375,18.65625 L155.671875,18.65625 L155.671875,39.625 C155.671875,40.5 155.776041,41.203122 155.984375,41.734375 C156.192709,42.265628 156.468748,42.677082 156.8125,42.96875 C157.156252,43.260418 157.552081,43.453125 158,43.546875 C158.447919,43.640625 158.911456,43.6875 159.390625,43.6875 C159.869794,43.6875 160.374997,43.640625 160.90625,43.546875 C161.437503,43.453125 161.848957,43.375 162.140625,43.3125 L162.140625,48 C161.682289,48.125001 161.088545,48.260416 160.359375,48.40625 C159.630205,48.552084 158.744797,48.625 157.703125,48.625 C156.64062,48.625 155.635421,48.47396 154.6875,48.171875 C153.739579,47.86979 152.911462,47.364587 152.203125,46.65625 C151.494788,45.947913 150.932294,45.015631 150.515625,43.859375 C150.098956,42.703119 149.890625,41.281258 149.890625,39.59375 L149.890625,18.65625 L143.734375,18.65625 L143.734375,14.1875 L149.890625,14.1875 L149.890625,6 L155.671875,6 Z M167.203125,30.78125 C167.203125,28.322904 167.562496,26.046885 168.28125,23.953125 C169.000004,21.859365 170.020827,20.041674 171.34375,18.5 C172.666673,16.958326 174.276032,15.750004 176.171875,14.875 C178.067718,13.999996 180.192697,13.5625 182.546875,13.5625 C184.94272,13.5625 187.09374,13.999996 189,14.875 C190.90626,15.750004 192.526035,16.958326 193.859375,18.5 C195.192715,20.041674 196.213538,21.859365 196.921875,23.953125 C197.630212,26.046885 197.984375,28.322904 197.984375,30.78125 L197.984375,31.46875 C197.984375,33.927096 197.630212,36.203115 196.921875,38.296875 C196.213538,40.390635 195.192715,42.203117 193.859375,43.734375 C192.526035,45.265633 190.911468,46.463537 189.015625,47.328125 C187.119782,48.192713 184.984387,48.625 182.609375,48.625 C180.234363,48.625 178.098968,48.192713 176.203125,47.328125 C174.307282,46.463537 172.692715,45.265633 171.359375,43.734375 C170.026035,42.203117 169.000004,40.390635 168.28125,38.296875 C167.562496,36.203115 167.203125,33.927096 167.203125,31.46875 L167.203125,30.78125 Z M173.015625,31.46875 C173.015625,33.156258 173.21354,34.749993 173.609375,36.25 C174.00521,37.750007 174.604163,39.067703 175.40625,40.203125 C176.208337,41.338547 177.208327,42.23958 178.40625,42.90625 C179.604173,43.57292 181.0052,43.90625 182.609375,43.90625 C184.192716,43.90625 185.588536,43.57292 186.796875,42.90625 C188.005214,42.23958 189.005204,41.338547 189.796875,40.203125 C190.588546,39.067703 191.187498,37.750007 191.59375,36.25 C192.000002,34.749993 192.203125,33.156258 192.203125,31.46875 L192.203125,30.78125 C192.203125,29.114575 192.000002,27.526049 191.59375,26.015625 C191.187498,24.505201 190.583337,23.182297 189.78125,22.046875 C188.979163,20.911453 187.973964,20.005212 186.765625,19.328125 C185.557286,18.651038 184.15105,18.3125 182.546875,18.3125 C180.963534,18.3125 179.578131,18.651038 178.390625,19.328125 C177.203119,20.005212 176.208337,20.911453 175.40625,22.046875 C174.604163,23.182297 174.00521,24.505201 173.609375,26.015625 C173.21354,27.526049 173.015625,29.114575 173.015625,30.78125 L173.015625,31.46875 Z" id="b"></path>
            </g>
            <g id="b-link" transform="translate(178.000000, 350.000000)" fill="#34383B">
                <path d="M17.109375,29.59375 L6.421875,29.59375 L6.421875,48 L0.390625,48 L0.390625,2.5 L15.453125,2.5 C20.578151,2.5 24.52082,3.666655 27.28125,6 C30.04168,8.333345 31.421875,11.729144 31.421875,16.1875 C31.421875,19.020848 30.656258,21.489573 29.125,23.59375 C27.593742,25.697927 25.463555,27.270828 22.734375,28.3125 L33.421875,47.625 L33.421875,48 L26.984375,48 L17.109375,29.59375 Z M6.421875,24.6875 L15.640625,24.6875 C17.265633,24.6875 18.687494,24.463544 19.90625,24.015625 C21.125006,23.567706 22.140621,22.963545 22.953125,22.203125 C23.765629,21.442705 24.374998,20.54688 24.78125,19.515625 C25.187502,18.48437 25.390625,17.375006 25.390625,16.1875 C25.390625,14.874993 25.197919,13.682297 24.8125,12.609375 C24.427081,11.536453 23.828129,10.614587 23.015625,9.84375 C22.203121,9.072913 21.171881,8.479169 19.921875,8.0625 C18.671869,7.645831 17.1823,7.4375 15.453125,7.4375 L6.421875,7.4375 L6.421875,24.6875 Z M37.390625,30.78125 C37.390625,28.322904 37.749996,26.046885 38.46875,23.953125 C39.187504,21.859365 40.208327,20.041674 41.53125,18.5 C42.854173,16.958326 44.463532,15.750004 46.359375,14.875 C48.255218,13.999996 50.380197,13.5625 52.734375,13.5625 C55.13022,13.5625 57.28124,13.999996 59.1875,14.875 C61.09376,15.750004 62.713535,16.958326 64.046875,18.5 C65.380215,20.041674 66.401038,21.859365 67.109375,23.953125 C67.817712,26.046885 68.171875,28.322904 68.171875,30.78125 L68.171875,31.46875 C68.171875,33.927096 67.817712,36.203115 67.109375,38.296875 C66.401038,40.390635 65.380215,42.203117 64.046875,43.734375 C62.713535,45.265633 61.098968,46.463537 59.203125,47.328125 C57.307282,48.192713 55.171887,48.625 52.796875,48.625 C50.421863,48.625 48.286468,48.192713 46.390625,47.328125 C44.494782,46.463537 42.880215,45.265633 41.546875,43.734375 C40.213535,42.203117 39.187504,40.390635 38.46875,38.296875 C37.749996,36.203115 37.390625,33.927096 37.390625,31.46875 L37.390625,30.78125 Z M43.203125,31.46875 C43.203125,33.156258 43.40104,34.749993 43.796875,36.25 C44.19271,37.750007 44.791663,39.067703 45.59375,40.203125 C46.395837,41.338547 47.395827,42.23958 48.59375,42.90625 C49.791673,43.57292 51.1927,43.90625 52.796875,43.90625 C54.380216,43.90625 55.776036,43.57292 56.984375,42.90625 C58.192714,42.23958 59.192704,41.338547 59.984375,40.203125 C60.776046,39.067703 61.374998,37.750007 61.78125,36.25 C62.187502,34.749993 62.390625,33.156258 62.390625,31.46875 L62.390625,30.78125 C62.390625,29.114575 62.187502,27.526049 61.78125,26.015625 C61.374998,24.505201 60.770837,23.182297 59.96875,22.046875 C59.166663,20.911453 58.161464,20.005212 56.953125,19.328125 C55.744786,18.651038 54.33855,18.3125 52.734375,18.3125 C51.151034,18.3125 49.765631,18.651038 48.578125,19.328125 C47.390619,20.005212 46.395837,20.911453 45.59375,22.046875 C44.791663,23.182297 44.19271,24.505201 43.796875,26.015625 C43.40104,27.526049 43.203125,29.114575 43.203125,30.78125 L43.203125,31.46875 Z M104.046875,31.46875 C104.046875,33.947929 103.755211,36.234365 103.171875,38.328125 C102.588539,40.421885 101.734381,42.234367 100.609375,43.765625 C99.484369,45.296883 98.109383,46.489579 96.484375,47.34375 C94.859367,48.197921 93.005219,48.625 90.921875,48.625 C88.692697,48.625 86.765633,48.234379 85.140625,47.453125 C83.515617,46.671871 82.140631,45.552091 81.015625,44.09375 L80.734375,48 L75.421875,48 L75.421875,0 L81.203125,0 L81.203125,17.90625 C82.328131,16.51041 83.682284,15.437504 85.265625,14.6875 C86.848966,13.937496 88.713531,13.5625 90.859375,13.5625 C92.984386,13.5625 94.864575,13.979163 96.5,14.8125 C98.135425,15.645837 99.510411,16.817701 100.625,18.328125 C101.739589,19.838549 102.588539,21.651031 103.171875,23.765625 C103.755211,25.880219 104.046875,28.229154 104.046875,30.8125 L104.046875,31.46875 Z M98.265625,30.8125 C98.265625,29.124992 98.109377,27.536466 97.796875,26.046875 C97.484373,24.557284 96.97917,23.250006 96.28125,22.125 C95.58333,20.999994 94.671881,20.109378 93.546875,19.453125 C92.421869,18.796872 91.046883,18.46875 89.421875,18.46875 C88.35937,18.46875 87.401046,18.604165 86.546875,18.875 C85.692704,19.145835 84.927087,19.520831 84.25,20 C83.572913,20.479169 82.984377,21.041663 82.484375,21.6875 C81.984373,22.333337 81.557293,23.031246 81.203125,23.78125 L81.203125,38.40625 C81.578127,39.156254 82.020831,39.854163 82.53125,40.5 C83.041669,41.145837 83.635413,41.708331 84.3125,42.1875 C84.989587,42.666669 85.755204,43.041665 86.609375,43.3125 C87.463546,43.583335 88.42187,43.71875 89.484375,43.71875 C91.046883,43.71875 92.380203,43.395837 93.484375,42.75 C94.588547,42.104163 95.494788,41.229172 96.203125,40.125 C96.911462,39.020828 97.43229,37.723966 97.765625,36.234375 C98.09896,34.744784 98.265625,33.156258 98.265625,31.46875 L98.265625,30.8125 Z M109.796875,30.78125 C109.796875,28.322904 110.156246,26.046885 110.875,23.953125 C111.593754,21.859365 112.614577,20.041674 113.9375,18.5 C115.260423,16.958326 116.869782,15.750004 118.765625,14.875 C120.661468,13.999996 122.786447,13.5625 125.140625,13.5625 C127.53647,13.5625 129.68749,13.999996 131.59375,14.875 C133.50001,15.750004 135.119785,16.958326 136.453125,18.5 C137.786465,20.041674 138.807288,21.859365 139.515625,23.953125 C140.223962,26.046885 140.578125,28.322904 140.578125,30.78125 L140.578125,31.46875 C140.578125,33.927096 140.223962,36.203115 139.515625,38.296875 C138.807288,40.390635 137.786465,42.203117 136.453125,43.734375 C135.119785,45.265633 133.505218,46.463537 131.609375,47.328125 C129.713532,48.192713 127.578137,48.625 125.203125,48.625 C122.828113,48.625 120.692718,48.192713 118.796875,47.328125 C116.901032,46.463537 115.286465,45.265633 113.953125,43.734375 C112.619785,42.203117 111.593754,40.390635 110.875,38.296875 C110.156246,36.203115 109.796875,33.927096 109.796875,31.46875 L109.796875,30.78125 Z M115.609375,31.46875 C115.609375,33.156258 115.80729,34.749993 116.203125,36.25 C116.59896,37.750007 117.197913,39.067703 118,40.203125 C118.802087,41.338547 119.802077,42.23958 121,42.90625 C122.197923,43.57292 123.59895,43.90625 125.203125,43.90625 C126.786466,43.90625 128.182286,43.57292 129.390625,42.90625 C130.598964,42.23958 131.598954,41.338547 132.390625,40.203125 C133.182296,39.067703 133.781248,37.750007 134.1875,36.25 C134.593752,34.749993 134.796875,33.156258 134.796875,31.46875 L134.796875,30.78125 C134.796875,29.114575 134.593752,27.526049 134.1875,26.015625 C133.781248,24.505201 133.177087,23.182297 132.375,22.046875 C131.572913,20.911453 130.567714,20.005212 129.359375,19.328125 C128.151036,18.651038 126.7448,18.3125 125.140625,18.3125 C123.557284,18.3125 122.171881,18.651038 120.984375,19.328125 C119.796869,20.005212 118.802087,20.911453 118,22.046875 C117.197913,23.182297 116.59896,24.505201 116.203125,26.015625 C115.80729,27.526049 115.609375,29.114575 115.609375,30.78125 L115.609375,31.46875 Z M155.671875,6 L155.671875,14.1875 L161.984375,14.1875 L161.984375,18.65625 L155.671875,18.65625 L155.671875,39.625 C155.671875,40.5 155.776041,41.203122 155.984375,41.734375 C156.192709,42.265628 156.468748,42.677082 156.8125,42.96875 C157.156252,43.260418 157.552081,43.453125 158,43.546875 C158.447919,43.640625 158.911456,43.6875 159.390625,43.6875 C159.869794,43.6875 160.374997,43.640625 160.90625,43.546875 C161.437503,43.453125 161.848957,43.375 162.140625,43.3125 L162.140625,48 C161.682289,48.125001 161.088545,48.260416 160.359375,48.40625 C159.630205,48.552084 158.744797,48.625 157.703125,48.625 C156.64062,48.625 155.635421,48.47396 154.6875,48.171875 C153.739579,47.86979 152.911462,47.364587 152.203125,46.65625 C151.494788,45.947913 150.932294,45.015631 150.515625,43.859375 C150.098956,42.703119 149.890625,41.281258 149.890625,39.59375 L149.890625,18.65625 L143.734375,18.65625 L143.734375,14.1875 L149.890625,14.1875 L149.890625,6 L155.671875,6 Z M167.203125,30.78125 C167.203125,28.322904 167.562496,26.046885 168.28125,23.953125 C169.000004,21.859365 170.020827,20.041674 171.34375,18.5 C172.666673,16.958326 174.276032,15.750004 176.171875,14.875 C178.067718,13.999996 180.192697,13.5625 182.546875,13.5625 C184.94272,13.5625 187.09374,13.999996 189,14.875 C190.90626,15.750004 192.526035,16.958326 193.859375,18.5 C195.192715,20.041674 196.213538,21.859365 196.921875,23.953125 C197.630212,26.046885 197.984375,28.322904 197.984375,30.78125 L197.984375,31.46875 C197.984375,33.927096 197.630212,36.203115 196.921875,38.296875 C196.213538,40.390635 195.192715,42.203117 193.859375,43.734375 C192.526035,45.265633 190.911468,46.463537 189.015625,47.328125 C187.119782,48.192713 184.984387,48.625 182.609375,48.625 C180.234363,48.625 178.098968,48.192713 176.203125,47.328125 C174.307282,46.463537 172.692715,45.265633 171.359375,43.734375 C170.026035,42.203117 169.000004,40.390635 168.28125,38.296875 C167.562496,36.203115 167.203125,33.927096 167.203125,31.46875 L167.203125,30.78125 Z M173.015625,31.46875 C173.015625,33.156258 173.21354,34.749993 173.609375,36.25 C174.00521,37.750007 174.604163,39.067703 175.40625,40.203125 C176.208337,41.338547 177.208327,42.23958 178.40625,42.90625 C179.604173,43.57292 181.0052,43.90625 182.609375,43.90625 C184.192716,43.90625 185.588536,43.57292 186.796875,42.90625 C188.005214,42.23958 189.005204,41.338547 189.796875,40.203125 C190.588546,39.067703 191.187498,37.750007 191.59375,36.25 C192.000002,34.749993 192.203125,33.156258 192.203125,31.46875 L192.203125,30.78125 C192.203125,29.114575 192.000002,27.526049 191.59375,26.015625 C191.187498,24.505201 190.583337,23.182297 189.78125,22.046875 C188.979163,20.911453 187.973964,20.005212 186.765625,19.328125 C185.557286,18.651038 184.15105,18.3125 182.546875,18.3125 C180.963534,18.3125 179.578131,18.651038 178.390625,19.328125 C177.203119,20.005212 176.208337,20.911453 175.40625,22.046875 C174.604163,23.182297 174.00521,24.505201 173.609375,26.015625 C173.21354,27.526049 173.015625,29.114575 173.015625,30.78125 L173.015625,31.46875 Z" id="b"></path>
            </g>
            <path d="M0,256 L252,256 L252,257 L0,257 L0,256 Z M300,256 L552,256 L552,257 L300,257 L300,256 Z" id="Shape" fill="#BEC0C1"></path>
            <path d="M270.003386,253.17485 C269.446441,253.17485 269,253.617757 269,254.160534 L269,258.294325 C269,258.841445 269.450861,259.280009 270.003386,259.280009 C270.560332,259.280009 271.006773,258.837103 271.006773,258.294325 L271.006773,254.160534 C271.006773,253.617757 270.555912,253.17485 270.003386,253.17485 L270.003386,253.17485 Z M278.105622,249.462254 L278.808434,248.203011 C278.843796,248.137877 278.821695,248.055375 278.755392,248.016295 C278.689089,247.981557 278.600684,248.003269 278.565323,248.072744 L277.85809,249.345014 C277.261362,249.084481 276.593912,248.936845 275.886679,248.936845 C275.183866,248.936845 274.516415,249.080139 273.924108,249.340672 L273.216875,248.072744 C273.181514,248.007611 273.093109,247.981557 273.026806,248.016295 C272.960503,248.051033 272.933982,248.137877 272.969344,248.203011 L273.672156,249.462254 C272.293052,250.161351 271.360389,251.49007 271.360389,253.01853 L280.412968,253.01853 C280.412968,251.49007 279.484725,250.161351 278.105622,249.462254 L278.105622,249.462254 Z M273.826864,251.407568 C273.619114,251.407568 273.446726,251.242563 273.446726,251.034137 C273.446726,250.830053 273.614694,250.660706 273.826864,250.660706 C274.034613,250.660706 274.207001,250.830053 274.207001,251.034137 C274.207001,251.242563 274.039033,251.407568 273.826864,251.407568 Z M277.950915,251.407568 C277.743165,251.407568 277.570777,251.242563 277.570777,251.034137 C277.570777,250.830053 277.738745,250.660706 277.950915,250.660706 C278.158664,250.660706 278.331052,250.830053 278.331052,251.034137 C278.326632,251.238221 278.158664,251.407568 277.950915,251.407568 Z M271.395751,253.361566 L271.395751,259.77068 C271.395751,260.352537 271.873133,260.825839 272.469861,260.825839 L273.199194,260.825839 L273.199194,263.014316 C273.199194,263.557094 273.650055,264 274.202581,264 C274.759527,264 275.205967,263.557094 275.205967,263.009974 L275.205967,260.821496 L276.56297,260.821496 L276.56297,263.009974 C276.56297,263.552752 277.013831,263.995658 277.566357,263.995658 C278.123302,263.995658 278.569743,263.552752 278.569743,263.009974 L278.569743,260.821496 L279.303497,260.821496 C279.895804,260.821496 280.377607,260.352537 280.377607,259.766337 L280.377607,253.357223 L271.395751,253.361566 L271.395751,253.361566 Z M282.777778,254.160534 C282.777778,253.613414 282.326917,253.17485 281.774391,253.17485 C281.217446,253.17485 280.771005,253.617757 280.771005,254.160534 L280.771005,258.294325 C280.771005,258.841445 281.221866,259.280009 281.774391,259.280009 C282.331337,259.280009 282.777778,258.837103 282.777778,258.294325 L282.777778,254.160534 Z" id="Shape" fill="#BEC0C1"></path>
            <g id="c-link" transform="translate(83.000000, 113.000000)" fill="#8D989F">
                <path d="M0.71875,33.59375 C1.25,41.5625 7.875,46.75 17.4375,46.75 C27.8125,46.75 34.3125,41.59375 34.3125,33.34375 C34.3125,26.875 30.53125,23.28125 21.1875,20.9375 L16.46875,19.6875 C10.34375,18.09375 7.84375,16.0625 7.84375,12.65625 C7.84375,8.25 11.90625,5.21875 17.75,5.21875 C23.625,5.21875 27.53125,8.1875 28.03125,13.03125 L33.65625,13.03125 C33.40625,5.46875 26.90625,0.15625 17.9375,0.15625 C8.5625,0.15625 2,5.40625 2,12.90625 C2,19.03125 5.6875,22.6875 14,24.8125 L19.78125,26.3125 C25.84375,27.875 28.5,30.21875 28.5,34.03125 C28.5,38.46875 24.0625,41.6875 17.96875,41.6875 C11.53125,41.6875 6.90625,38.46875 6.375,33.59375 L0.71875,33.59375 Z M51.1875,41.59375 C46.9375,41.59375 44.21875,39.5625 44.21875,36.4375 C44.21875,33.1875 46.84375,31.34375 51.90625,31.03125 L60.71875,30.46875 L60.71875,33.1875 C60.71875,38.03125 56.6875,41.59375 51.1875,41.59375 Z M50.03125,46.3125 C54.75,46.3125 58.96875,43.90625 60.875,40.15625 L61,40.15625 L61,46 L66.15625,46 L66.15625,22.875 C66.15625,16.25 61.03125,12 53.0625,12 C46,12 40.46875,16.34375 40.3125,22.03125 L45.53125,22.03125 C46.1875,18.84375 49.09375,16.84375 53,16.84375 C57.96875,16.84375 60.71875,19.15625 60.71875,23.34375 L60.71875,26.15625 L51.28125,26.71875 C43.09375,27.21875 38.65625,30.625 38.65625,36.40625 C38.65625,42.375 43.1875,46.3125 50.03125,46.3125 Z M73.375,46 L78.8125,46 L78.8125,26.4375 C78.8125,20.65625 82.15625,16.84375 87.6875,16.84375 C93,16.84375 95.5625,19.84375 95.5625,25.34375 L95.5625,46 L101,46 L101,24.40625 C101,16.75 96.71875,12 89.3125,12 C84.09375,12 80.75,13.96875 78.625,17.78125 L78.5,17.78125 L78.5,12.3125 L73.375,12.3125 L73.375,46 Z M129.84375,46 L129.84375,26.46875 L149.8125,26.46875 L149.8125,21.46875 L129.84375,21.46875 L129.84375,5.96875 L151.59375,5.96875 L151.59375,0.90625 L124.21875,0.90625 L124.21875,46 L129.84375,46 Z M157.3125,46 L162.75,46 L162.75,25.15625 C162.75,20.40625 165.625,17.21875 170,17.21875 C171.34375,17.21875 172.53125,17.375 172.96875,17.53125 L172.96875,12.1875 C172.5,12.09375 171.6875,12 170.71875,12 C166.78125,12 163.5625,14.25 162.5625,17.78125 L162.4375,17.78125 L162.4375,12.3125 L157.3125,12.3125 L157.3125,46 Z M188.59375,41.59375 C184.34375,41.59375 181.625,39.5625 181.625,36.4375 C181.625,33.1875 184.25,31.34375 189.3125,31.03125 L198.125,30.46875 L198.125,33.1875 C198.125,38.03125 194.09375,41.59375 188.59375,41.59375 Z M187.4375,46.3125 C192.15625,46.3125 196.375,43.90625 198.28125,40.15625 L198.40625,40.15625 L198.40625,46 L203.5625,46 L203.5625,22.875 C203.5625,16.25 198.4375,12 190.46875,12 C183.40625,12 177.875,16.34375 177.71875,22.03125 L182.9375,22.03125 C183.59375,18.84375 186.5,16.84375 190.40625,16.84375 C195.375,16.84375 198.125,19.15625 198.125,23.34375 L198.125,26.15625 L188.6875,26.71875 C180.5,27.21875 176.0625,30.625 176.0625,36.40625 C176.0625,42.375 180.59375,46.3125 187.4375,46.3125 Z M210.78125,46 L216.21875,46 L216.21875,26.4375 C216.21875,20.65625 219.5625,16.84375 225.09375,16.84375 C230.40625,16.84375 232.96875,19.84375 232.96875,25.34375 L232.96875,46 L238.40625,46 L238.40625,24.40625 C238.40625,16.75 234.125,12 226.71875,12 C221.5,12 218.15625,13.96875 216.03125,17.78125 L215.90625,17.78125 L215.90625,12.3125 L210.78125,12.3125 L210.78125,46 Z M273.46875,23.28125 C272.78125,17.375 267.6875,12 259.34375,12 C250.125,12 243.96875,18.8125 243.96875,29.15625 C243.96875,39.75 250.15625,46.3125 259.40625,46.3125 C267.09375,46.3125 272.625,41.78125 273.53125,35.21875 L268.1875,35.21875 C267.25,39.28125 264.125,41.46875 259.4375,41.46875 C253.5625,41.46875 249.5,36.8125 249.5,29.15625 C249.5,21.71875 253.5,16.84375 259.375,16.84375 C264.4375,16.84375 267.4375,19.6875 268.125,23.28125 L273.46875,23.28125 Z M279.0625,46 L284.5,46 L284.5,12.3125 L279.0625,12.3125 L279.0625,46 Z M281.78125,6.875 C283.6875,6.875 285.21875,5.3125 285.21875,3.4375 C285.21875,1.53125 283.6875,0 281.78125,0 C279.90625,0 278.34375,1.53125 278.34375,3.4375 C278.34375,5.3125 279.90625,6.875 281.78125,6.875 Z M291.625,21.71875 C291.625,26.21875 294.5,29.1875 300.40625,30.71875 L306.3125,32.25 C310.15625,33.25 311.5625,34.5 311.5625,36.875 C311.5625,39.90625 308.6875,41.8125 304.09375,41.8125 C299.5,41.8125 296.71875,39.96875 296.15625,36.53125 L290.6875,36.53125 C291.21875,42.375 296.46875,46.3125 303.71875,46.3125 C311.5,46.3125 317.03125,42.25 317.03125,36.5 C317.03125,31.59375 314.59375,29.21875 307.78125,27.5 L302.65625,26.21875 C298.78125,25.25 296.96875,23.71875 296.96875,21.4375 C296.96875,18.5 299.75,16.53125 303.90625,16.53125 C308.03125,16.53125 310.78125,18.5 311.125,21.65625 L316.34375,21.65625 C316.125,16.125 310.9375,12.03125 304.09375,12.03125 C296.78125,12.03125 291.625,16.03125 291.625,21.71875 Z M350.78125,23.28125 C350.09375,17.375 345,12 336.65625,12 C327.4375,12 321.28125,18.8125 321.28125,29.15625 C321.28125,39.75 327.46875,46.3125 336.71875,46.3125 C344.40625,46.3125 349.9375,41.78125 350.84375,35.21875 L345.5,35.21875 C344.5625,39.28125 341.4375,41.46875 336.75,41.46875 C330.875,41.46875 326.8125,36.8125 326.8125,29.15625 C326.8125,21.71875 330.8125,16.84375 336.6875,16.84375 C341.75,16.84375 344.75,19.6875 345.4375,23.28125 L350.78125,23.28125 Z M369.9375,46.3125 C379.40625,46.3125 385.46875,39.59375 385.46875,29.15625 C385.46875,18.6875 379.40625,12 369.9375,12 C360.46875,12 354.40625,18.6875 354.40625,29.15625 C354.40625,39.59375 360.46875,46.3125 369.9375,46.3125 Z M369.9375,41.46875 C363.6875,41.46875 359.9375,36.875 359.9375,29.15625 C359.9375,21.4375 363.65625,16.84375 369.9375,16.84375 C376.21875,16.84375 379.9375,21.40625 379.9375,29.15625 C379.9375,36.875 376.21875,41.46875 369.9375,41.46875 Z" id="c"></path>
            </g>
            <g id="c-link" transform="translate(83.000000, 113.000000)" fill="#34383B">
                <path d="M0.71875,33.59375 C1.25,41.5625 7.875,46.75 17.4375,46.75 C27.8125,46.75 34.3125,41.59375 34.3125,33.34375 C34.3125,26.875 30.53125,23.28125 21.1875,20.9375 L16.46875,19.6875 C10.34375,18.09375 7.84375,16.0625 7.84375,12.65625 C7.84375,8.25 11.90625,5.21875 17.75,5.21875 C23.625,5.21875 27.53125,8.1875 28.03125,13.03125 L33.65625,13.03125 C33.40625,5.46875 26.90625,0.15625 17.9375,0.15625 C8.5625,0.15625 2,5.40625 2,12.90625 C2,19.03125 5.6875,22.6875 14,24.8125 L19.78125,26.3125 C25.84375,27.875 28.5,30.21875 28.5,34.03125 C28.5,38.46875 24.0625,41.6875 17.96875,41.6875 C11.53125,41.6875 6.90625,38.46875 6.375,33.59375 L0.71875,33.59375 Z M51.1875,41.59375 C46.9375,41.59375 44.21875,39.5625 44.21875,36.4375 C44.21875,33.1875 46.84375,31.34375 51.90625,31.03125 L60.71875,30.46875 L60.71875,33.1875 C60.71875,38.03125 56.6875,41.59375 51.1875,41.59375 Z M50.03125,46.3125 C54.75,46.3125 58.96875,43.90625 60.875,40.15625 L61,40.15625 L61,46 L66.15625,46 L66.15625,22.875 C66.15625,16.25 61.03125,12 53.0625,12 C46,12 40.46875,16.34375 40.3125,22.03125 L45.53125,22.03125 C46.1875,18.84375 49.09375,16.84375 53,16.84375 C57.96875,16.84375 60.71875,19.15625 60.71875,23.34375 L60.71875,26.15625 L51.28125,26.71875 C43.09375,27.21875 38.65625,30.625 38.65625,36.40625 C38.65625,42.375 43.1875,46.3125 50.03125,46.3125 Z M73.375,46 L78.8125,46 L78.8125,26.4375 C78.8125,20.65625 82.15625,16.84375 87.6875,16.84375 C93,16.84375 95.5625,19.84375 95.5625,25.34375 L95.5625,46 L101,46 L101,24.40625 C101,16.75 96.71875,12 89.3125,12 C84.09375,12 80.75,13.96875 78.625,17.78125 L78.5,17.78125 L78.5,12.3125 L73.375,12.3125 L73.375,46 Z M129.84375,46 L129.84375,26.46875 L149.8125,26.46875 L149.8125,21.46875 L129.84375,21.46875 L129.84375,5.96875 L151.59375,5.96875 L151.59375,0.90625 L124.21875,0.90625 L124.21875,46 L129.84375,46 Z M157.3125,46 L162.75,46 L162.75,25.15625 C162.75,20.40625 165.625,17.21875 170,17.21875 C171.34375,17.21875 172.53125,17.375 172.96875,17.53125 L172.96875,12.1875 C172.5,12.09375 171.6875,12 170.71875,12 C166.78125,12 163.5625,14.25 162.5625,17.78125 L162.4375,17.78125 L162.4375,12.3125 L157.3125,12.3125 L157.3125,46 Z M188.59375,41.59375 C184.34375,41.59375 181.625,39.5625 181.625,36.4375 C181.625,33.1875 184.25,31.34375 189.3125,31.03125 L198.125,30.46875 L198.125,33.1875 C198.125,38.03125 194.09375,41.59375 188.59375,41.59375 Z M187.4375,46.3125 C192.15625,46.3125 196.375,43.90625 198.28125,40.15625 L198.40625,40.15625 L198.40625,46 L203.5625,46 L203.5625,22.875 C203.5625,16.25 198.4375,12 190.46875,12 C183.40625,12 177.875,16.34375 177.71875,22.03125 L182.9375,22.03125 C183.59375,18.84375 186.5,16.84375 190.40625,16.84375 C195.375,16.84375 198.125,19.15625 198.125,23.34375 L198.125,26.15625 L188.6875,26.71875 C180.5,27.21875 176.0625,30.625 176.0625,36.40625 C176.0625,42.375 180.59375,46.3125 187.4375,46.3125 Z M210.78125,46 L216.21875,46 L216.21875,26.4375 C216.21875,20.65625 219.5625,16.84375 225.09375,16.84375 C230.40625,16.84375 232.96875,19.84375 232.96875,25.34375 L232.96875,46 L238.40625,46 L238.40625,24.40625 C238.40625,16.75 234.125,12 226.71875,12 C221.5,12 218.15625,13.96875 216.03125,17.78125 L215.90625,17.78125 L215.90625,12.3125 L210.78125,12.3125 L210.78125,46 Z M273.46875,23.28125 C272.78125,17.375 267.6875,12 259.34375,12 C250.125,12 243.96875,18.8125 243.96875,29.15625 C243.96875,39.75 250.15625,46.3125 259.40625,46.3125 C267.09375,46.3125 272.625,41.78125 273.53125,35.21875 L268.1875,35.21875 C267.25,39.28125 264.125,41.46875 259.4375,41.46875 C253.5625,41.46875 249.5,36.8125 249.5,29.15625 C249.5,21.71875 253.5,16.84375 259.375,16.84375 C264.4375,16.84375 267.4375,19.6875 268.125,23.28125 L273.46875,23.28125 Z M279.0625,46 L284.5,46 L284.5,12.3125 L279.0625,12.3125 L279.0625,46 Z M281.78125,6.875 C283.6875,6.875 285.21875,5.3125 285.21875,3.4375 C285.21875,1.53125 283.6875,0 281.78125,0 C279.90625,0 278.34375,1.53125 278.34375,3.4375 C278.34375,5.3125 279.90625,6.875 281.78125,6.875 Z M291.625,21.71875 C291.625,26.21875 294.5,29.1875 300.40625,30.71875 L306.3125,32.25 C310.15625,33.25 311.5625,34.5 311.5625,36.875 C311.5625,39.90625 308.6875,41.8125 304.09375,41.8125 C299.5,41.8125 296.71875,39.96875 296.15625,36.53125 L290.6875,36.53125 C291.21875,42.375 296.46875,46.3125 303.71875,46.3125 C311.5,46.3125 317.03125,42.25 317.03125,36.5 C317.03125,31.59375 314.59375,29.21875 307.78125,27.5 L302.65625,26.21875 C298.78125,25.25 296.96875,23.71875 296.96875,21.4375 C296.96875,18.5 299.75,16.53125 303.90625,16.53125 C308.03125,16.53125 310.78125,18.5 311.125,21.65625 L316.34375,21.65625 C316.125,16.125 310.9375,12.03125 304.09375,12.03125 C296.78125,12.03125 291.625,16.03125 291.625,21.71875 Z M350.78125,23.28125 C350.09375,17.375 345,12 336.65625,12 C327.4375,12 321.28125,18.8125 321.28125,29.15625 C321.28125,39.75 327.46875,46.3125 336.71875,46.3125 C344.40625,46.3125 349.9375,41.78125 350.84375,35.21875 L345.5,35.21875 C344.5625,39.28125 341.4375,41.46875 336.75,41.46875 C330.875,41.46875 326.8125,36.8125 326.8125,29.15625 C326.8125,21.71875 330.8125,16.84375 336.6875,16.84375 C341.75,16.84375 344.75,19.6875 345.4375,23.28125 L350.78125,23.28125 Z M369.9375,46.3125 C379.40625,46.3125 385.46875,39.59375 385.46875,29.15625 C385.46875,18.6875 379.40625,12 369.9375,12 C360.46875,12 354.40625,18.6875 354.40625,29.15625 C354.40625,39.59375 360.46875,46.3125 369.9375,46.3125 Z M369.9375,41.46875 C363.6875,41.46875 359.9375,36.875 359.9375,29.15625 C359.9375,21.4375 363.65625,16.84375 369.9375,16.84375 C376.21875,16.84375 379.9375,21.40625 379.9375,29.15625 C379.9375,36.875 376.21875,41.46875 369.9375,41.46875 Z" id="c"></path>
            </g>
            <path d="M0,15 L208,15 L208,16 L0,16 L0,15 Z M345,15 L552,15 L552,16 L345,16 L345,15 Z" id="Shape" fill="#BEC0C1"></path>
            <path d="M225.723813,24 L225.723813,13.352 L223.787813,13.352 L223.787813,24 L225.723813,24 Z M224.733813,11.548 C225.481813,11.548 225.943813,10.998 225.943813,10.36 C225.943813,9.678 225.459813,9.15 224.755813,9.15 C224.029813,9.15 223.545813,9.678 223.545813,10.36 C223.545813,10.998 224.007813,11.548 224.711813,11.548 L224.733813,11.548 Z M234.637938,24.242 C238.399938,24.242 241.501938,21.514 241.501938,16.432 C241.501938,12.032 238.883938,8.93 234.813938,8.93 C230.853938,8.93 227.949938,12.01 227.949938,16.718 C227.949938,21.206 230.677938,24.242 234.615938,24.242 L234.637938,24.242 L234.637938,24.242 Z M234.703938,22.68 C231.689938,22.68 229.973938,19.798 229.973938,16.674 C229.973938,13.462 231.557938,10.492 234.747938,10.492 C237.937938,10.492 239.477938,13.572 239.477938,16.52 C239.477938,19.886 237.761938,22.68 234.725938,22.68 L234.703938,22.68 Z M243.068063,23.252 C243.860063,23.78 245.422063,24.22 246.852063,24.22 C250.350063,24.22 252.022063,22.218 252.022063,19.952 C252.022063,17.774 250.768063,16.586 248.260063,15.596 C246.214063,14.804 245.312063,14.122 245.312063,12.758 C245.312063,11.746 246.082063,10.536 248.106063,10.536 C249.448063,10.536 250.438063,10.954 250.900063,11.24 L251.428063,9.656 C250.790063,9.304 249.668063,8.952 248.172063,8.952 C245.290063,8.952 243.376063,10.668 243.376063,12.978 C243.376063,15.046 244.872063,16.322 247.292063,17.158 C249.294063,17.906 250.086063,18.72 250.086063,20.106 C250.086063,21.602 248.942063,22.614 246.984063,22.614 C245.664063,22.614 244.432063,22.196 243.574063,21.668 L243.068063,23.252 Z M267.629688,24 L269.521688,24 L269.521688,17.576 C269.521688,17.246 269.565688,16.916 269.675688,16.63 C269.983688,15.662 270.885688,14.694 272.073688,14.694 C273.547688,14.694 274.295688,15.904 274.295688,17.598 L274.295688,24 L276.187688,24 L276.187688,17.4 C276.187688,17.07 276.253688,16.718 276.341688,16.432 C276.693688,15.508 277.529688,14.694 278.651688,14.694 C280.191688,14.694 280.961688,15.904 280.961688,17.972 L280.961688,24 L282.853688,24 L282.853688,17.73 C282.853688,14.034 280.763688,13.11 279.333688,13.11 C278.321688,13.11 277.639688,13.374 277.001688,13.858 C276.561688,14.188 276.121688,14.628 275.791688,15.244 L275.747688,15.244 C275.285688,13.99 274.185688,13.11 272.755688,13.11 C270.973688,13.11 269.983688,14.056 269.389688,15.068 L269.323688,15.068 L269.235688,13.352 L267.541688,13.352 C267.585688,14.232 267.629688,15.112 267.629688,16.234 L267.629688,24 L267.629688,24 Z M293.307813,17.466 C293.307813,15.332 292.515813,13.11 289.237813,13.11 C287.895813,13.11 286.597813,13.484 285.717813,14.034 L286.157813,15.332 C286.905813,14.826 287.939813,14.54 288.951813,14.54 C291.129813,14.518 291.371813,16.124 291.371813,17.004 L291.371813,17.224 C287.257813,17.202 284.969813,18.61 284.969813,21.184 C284.969813,22.724 286.069813,24.242 288.225813,24.242 C289.743813,24.242 290.909813,23.494 291.481813,22.658 L291.547813,22.658 L291.723813,24 L293.461813,24 C293.351813,23.274 293.307813,22.372 293.307813,21.448 L293.307813,17.466 L293.307813,17.466 Z M291.415813,20.414 C291.415813,20.612 291.393813,20.832 291.327813,21.03 C291.019813,21.932 290.117813,22.812 288.709813,22.812 C287.741813,22.812 286.905813,22.24 286.905813,20.964 C286.905813,18.896 289.303813,18.522 291.415813,18.566 L291.415813,20.414 Z M303.497938,22.152 C302.947938,22.394 302.221938,22.658 301.121938,22.658 C299.009938,22.658 297.425938,21.14 297.425938,18.676 C297.425938,16.476 298.745938,14.65 301.187938,14.65 C302.243938,14.65 302.969938,14.914 303.431938,15.156 L303.871938,13.682 C303.343938,13.396 302.331938,13.11 301.187938,13.11 C297.711938,13.11 295.467938,15.508 295.467938,18.786 C295.467938,22.042 297.557938,24.22 300.769938,24.22 C302.199938,24.22 303.321938,23.846 303.827938,23.604 L303.497938,22.152 Z M311.796063,24.242 C315.558063,24.242 318.660063,21.514 318.660063,16.432 C318.660063,12.032 316.042063,8.93 311.972063,8.93 C308.012063,8.93 305.108063,12.01 305.108063,16.718 C305.108063,21.206 307.836063,24.242 311.774063,24.242 L311.796063,24.242 L311.796063,24.242 Z M311.862063,22.68 C308.848063,22.68 307.132063,19.798 307.132063,16.674 C307.132063,13.462 308.716063,10.492 311.906063,10.492 C315.096063,10.492 316.636063,13.572 316.636063,16.52 C316.636063,19.886 314.920063,22.68 311.884063,22.68 L311.862063,22.68 Z M320.226188,23.252 C321.018188,23.78 322.580188,24.22 324.010188,24.22 C327.508188,24.22 329.180188,22.218 329.180188,19.952 C329.180188,17.774 327.926188,16.586 325.418188,15.596 C323.372188,14.804 322.470188,14.122 322.470188,12.758 C322.470188,11.746 323.240188,10.536 325.264188,10.536 C326.606188,10.536 327.596188,10.954 328.058188,11.24 L328.586188,9.656 C327.948188,9.304 326.826188,8.952 325.330188,8.952 C322.448188,8.952 320.534188,10.668 320.534188,12.978 C320.534188,15.046 322.030188,16.322 324.450188,17.158 C326.452188,17.906 327.244188,18.72 327.244188,20.106 C327.244188,21.602 326.100188,22.614 324.142188,22.614 C322.822188,22.614 321.590188,22.196 320.732188,21.668 L320.226188,23.252 L320.226188,23.252 Z" id="Shape" fill="#BEC0C1"></path>
        </g>
    </g>
</svg>