<svg xmlns="http://www.w3.org/2000/svg" width="552" height="736" viewBox="0 0 552 736">
  <g fill="none" fill-rule="evenodd">
    <path fill="#FFF" d="M0 0h552v736H0z"/>
    <path fill="#51575B" d="M211.89 639l17.594-45.813h6.532L254.766 639h-6.907l-5.35-13.875h-19.15L218.32 639h-6.437zm13.22-18.813h15.53l-4.78-12.687c-1.46-3.854-2.542-7.02-3.25-9.5-.584 2.938-1.407 5.854-2.47 8.75l-5.03 13.438zM258.827 639v-33.188h5.063v5.032c1.292-2.354 2.485-3.906 3.58-4.657 1.093-.75 2.296-1.125 3.608-1.125 1.896 0 3.823.605 5.78 1.813l-1.936 5.22c-1.375-.814-2.75-1.22-4.125-1.22-1.23 0-2.333.37-3.313 1.11-.98.74-1.677 1.765-2.093 3.077-.62 2-.93 4.188-.93 6.563V639h-5.62zm21.406-39.344v-6.468h5.625v6.468h-5.626zm0 39.344v-33.188h5.625V639h-5.626zm35.844-4.094c-2.083 1.77-4.088 3.02-6.015 3.75-1.928.73-3.995 1.094-6.204 1.094-3.646 0-6.45-.89-8.407-2.672-1.95-1.78-2.93-4.057-2.93-6.828 0-1.625.37-3.11 1.11-4.453.74-1.344 1.71-2.422 2.91-3.235 1.2-.812 2.55-1.427 4.05-1.843 1.11-.3 2.77-.58 5-.85 4.55-.54 7.89-1.19 10.03-1.94.03-.77.04-1.26.04-1.47 0-2.3-.53-3.91-1.59-4.85-1.43-1.27-3.57-1.91-6.4-1.91-2.64 0-4.59.46-5.86 1.39-1.26.92-2.19 2.56-2.79 4.92l-5.5-.75c.5-2.36 1.33-4.26 2.47-5.7 1.15-1.45 2.8-2.57 4.97-3.35 2.17-.78 4.68-1.17 7.53-1.17 2.84 0 5.14.33 6.91 1 1.77.66 3.08 1.5 3.91 2.51.84 1.01 1.42 2.28 1.75 3.83.19.96.28 2.69.28 5.19v7.5c0 5.23.12 8.53.36 9.92.24 1.38.72 2.71 1.42 3.98h-5.87c-.58-1.17-.96-2.53-1.12-4.1zm-.47-12.562c-2.04.833-5.103 1.54-9.186 2.125-2.31.33-3.94.7-4.9 1.12-.96.41-1.7 1.02-2.22 1.83-.52.8-.78 1.69-.78 2.67 0 1.5.57 2.75 1.71 3.75 1.14 1 2.8 1.5 4.99 1.5 2.17 0 4.1-.48 5.78-1.42 1.69-.95 2.93-2.25 3.72-3.89.61-1.27.91-3.15.91-5.63v-2.06zM329.892 639v-45.813h5.626V639h-5.625z"/>
    <path fill="#F1F4F5" d="M0 496h252v1H0zm300 0h252v1H300z"/>
    <path fill="#BAC8D1" d="M275.31 489.256c2.88-.44 5.764-.856 8.648-1.256.002 2.528 0 5.054.002 7.58-2.883.012-5.765.056-8.65.065v-6.39zm-7.31 1.02c2.168-.335 4.345-.624 6.52-.896.003 2.096.003 4.19.005 6.287-2.175 0-4.35.03-6.525.026v-5.417zm0 6.077c2.173-.008 4.346.027 6.52.024 0 2.1.005 4.203 0 6.305-2.17-.32-4.345-.603-6.52-.897v-5.432zm7.298.084h8.66c.004 2.52 0 5.04 0 7.563-2.88-.43-5.763-.832-8.647-1.223l-.01-6.34z"/>
    <path fill="#51575B" d="M195.11 379.594h-10.69V398h-6.03v-45.5h15.06c5.126 0 9.07 1.167 11.83 3.5s4.14 5.73 4.14 10.188c0 2.833-.766 5.302-2.297 7.406-1.53 2.104-3.66 3.677-6.39 4.72l10.687 19.31V398h-6.438l-9.875-18.406zm-10.688-4.906h9.22c1.624 0 3.045-.224 4.264-.672 1.22-.448 2.235-1.052 3.047-1.813.813-.76 1.422-1.656 1.828-2.687.41-1.032.61-2.14.61-3.33 0-1.31-.19-2.504-.57-3.577-.38-1.08-.98-2-1.79-2.77s-1.84-1.37-3.09-1.78c-1.25-.42-2.74-.63-4.47-.63h-9.03v17.25zm30.97 6.093c0-2.45.358-4.73 1.077-6.82.71-2.09 1.73-3.91 3.06-5.45 1.32-1.54 2.93-2.75 4.83-3.62 1.89-.87 4.02-1.31 6.37-1.31 2.39 0 4.54.44 6.45 1.32 1.9.88 3.52 2.08 4.86 3.63 1.33 1.55 2.35 3.36 3.06 5.46.71 2.09 1.06 4.37 1.06 6.83v.69c0 2.46-.36 4.73-1.07 6.83-.71 2.094-1.73 3.906-3.07 5.437-1.34 1.53-2.95 2.73-4.85 3.59-1.9.87-4.03 1.3-6.41 1.3s-4.51-.43-6.41-1.3c-1.9-.86-3.51-2.06-4.85-3.59-1.33-1.53-2.36-3.344-3.08-5.44-.72-2.09-1.08-4.37-1.08-6.83v-.69zm5.81.69c0 1.69.2 3.28.595 4.78.396 1.5.995 2.82 1.797 3.96.802 1.14 1.802 2.04 3 2.71 1.198.67 2.6 1 4.203 1 1.583 0 2.98-.33 4.187-1 1.21-.66 2.21-1.56 3-2.7.792-1.13 1.39-2.45 1.797-3.95.41-1.5.61-3.09.61-4.78v-.69c0-1.66-.2-3.25-.61-4.76-.4-1.51-1.01-2.83-1.81-3.97-.8-1.13-1.81-2.04-3.01-2.72-1.21-.67-2.61-1.01-4.22-1.01-1.58 0-2.96.34-4.15 1.02-1.18.68-2.18 1.59-2.98 2.72-.8 1.14-1.4 2.46-1.79 3.97-.39 1.51-.59 3.1-.59 4.77v.69zm60.845 0c0 2.48-.292 4.77-.875 6.86-.583 2.1-1.438 3.91-2.563 5.44-1.13 1.53-2.5 2.73-4.13 3.58-1.63.86-3.48 1.28-5.56 1.28-2.23 0-4.16-.39-5.78-1.17-1.63-.78-3-1.9-4.13-3.36l-.28 3.91h-5.31v-48h5.78v17.91c1.12-1.39 2.48-2.47 4.06-3.22 1.58-.75 3.45-1.12 5.59-1.12 2.12 0 4 .42 5.64 1.25 1.63.84 3.01 2.01 4.12 3.52 1.11 1.51 1.96 3.33 2.55 5.44.58 2.12.87 4.46.87 7.05v.66zm-5.78-.65c0-1.68-.158-3.27-.47-4.76-.313-1.49-.818-2.79-1.516-3.92-.69-1.12-1.6-2.01-2.73-2.67-1.12-.65-2.5-.98-4.12-.98-1.06 0-2.02.14-2.87.41-.85.27-1.62.65-2.29 1.13-.67.48-1.26 1.05-1.76 1.69-.5.65-.92 1.34-1.28 2.09v14.63c.38.75.82 1.45 1.33 2.1.52.65 1.11 1.21 1.79 1.69.68.48 1.45.86 2.3 1.13.86.27 1.82.41 2.88.41 1.56 0 2.9-.32 4-.97 1.11-.64 2.01-1.52 2.72-2.62.71-1.1 1.23-2.4 1.56-3.89.34-1.49.5-3.08.5-4.762v-.66zm11.53-.03c0-2.46.36-4.73 1.078-6.83.72-2.09 1.74-3.91 3.063-5.45 1.322-1.54 2.932-2.75 4.828-3.62 1.895-.87 4.02-1.31 6.375-1.31 2.4 0 4.55.44 6.46 1.32 1.91.88 3.53 2.08 4.86 3.63 1.33 1.55 2.36 3.36 3.06 5.46.71 2.09 1.06 4.37 1.06 6.83v.69c0 2.46-.35 4.73-1.06 6.83-.71 2.094-1.73 3.906-3.06 5.437-1.33 1.53-2.95 2.73-4.84 3.59-1.89.87-4.03 1.3-6.4 1.3s-4.51-.43-6.4-1.3c-1.89-.86-3.51-2.06-4.84-3.59-1.33-1.53-2.36-3.344-3.08-5.44-.72-2.09-1.08-4.37-1.08-6.83v-.69zm5.812.69c0 1.69.19 3.28.59 4.78.39 1.5.99 2.82 1.79 3.96.8 1.14 1.8 2.04 3 2.71 1.19.67 2.6 1 4.2 1 1.58 0 2.98-.33 4.18-1 1.21-.66 2.21-1.56 3-2.7.79-1.13 1.39-2.45 1.8-3.95.4-1.5.61-3.09.61-4.78v-.69c0-1.66-.21-3.25-.61-4.76-.41-1.51-1.01-2.83-1.82-3.97-.81-1.13-1.81-2.04-3.02-2.71-1.21-.68-2.62-1.01-4.22-1.01-1.59 0-2.97.338-4.16 1.015-1.19.68-2.19 1.585-2.99 2.72-.81 1.136-1.4 2.46-1.8 3.97-.4 1.51-.6 3.1-.6 4.765v.69zM333.67 356v8.188h6.312v4.468h-6.312v20.97c0 .874.104 1.577.312 2.108.21.532.485.943.83 1.235.342.29.738.48 1.186.57.448.09.91.14 1.39.14.48 0 .985-.05 1.516-.14.532-.1.943-.17 1.235-.24v4.7c-.46.12-1.05.26-1.78.4s-1.62.22-2.66.22c-1.06 0-2.07-.15-3.02-.46-.95-.3-1.78-.81-2.49-1.52-.71-.71-1.27-1.64-1.69-2.8-.42-1.16-.63-2.58-.63-4.27v-20.94h-6.16v-4.47h6.15V356h5.78zm11.53 24.78c0-2.457.36-4.733 1.08-6.827.718-2.094 1.74-3.91 3.062-5.453 1.323-1.542 2.932-2.75 4.828-3.625 1.896-.875 4.02-1.313 6.375-1.313 2.396 0 4.547.438 6.453 1.313 1.906.875 3.526 2.083 4.86 3.625 1.333 1.542 2.354 3.36 3.062 5.453.708 2.094 1.062 4.37 1.062 6.828v.69c0 2.46-.354 4.74-1.062 6.83-.708 2.1-1.73 3.91-3.063 5.44-1.334 1.53-2.95 2.73-4.844 3.6-1.896.87-4.032 1.3-6.407 1.3-2.376 0-4.51-.43-6.407-1.29-1.9-.86-3.51-2.06-4.85-3.59-1.34-1.53-2.36-3.34-3.08-5.43-.72-2.09-1.08-4.37-1.08-6.83v-.69zm5.814.69c0 1.686.198 3.28.593 4.78.395 1.5.994 2.818 1.796 3.953.802 1.136 1.802 2.037 3 2.703 1.198.667 2.6 1 4.203 1 1.583 0 2.98-.333 4.187-1 1.208-.666 2.208-1.567 3-2.703.792-1.135 1.39-2.453 1.797-3.953.406-1.5.61-3.094.61-4.78v-.69c0-1.665-.204-3.254-.61-4.764-.407-1.51-1.01-2.834-1.813-3.97-.8-1.135-1.806-2.04-3.014-2.718-1.21-.677-2.615-1.015-4.22-1.015-1.582 0-2.968.338-4.155 1.015-1.187.677-2.182 1.583-2.984 2.72-.802 1.134-1.4 2.457-1.797 3.968-.396 1.51-.594 3.1-.594 4.765v.69z"/>
    <path fill="#F1F4F5" d="M0 256h252v1H0zm300 0h252v1H300z"/>
    <path fill="#BAC8D1" d="M270.003 253.175c-.557 0-1.003.443-1.003.986v4.14c0 .55.45.99 1.003.99.557 0 1.004-.44 1.004-.98v-4.13c0-.54-.45-.98-1.004-.98zm8.103-3.713l.702-1.26c.036-.064.014-.147-.053-.186-.066-.034-.154-.013-.19.057l-.707 1.272c-.597-.26-1.264-.408-1.97-.408-.704 0-1.372.143-1.964.404l-.707-1.26c-.035-.06-.124-.09-.19-.05-.066.04-.093.12-.058.19l.7 1.26c-1.38.7-2.31 2.03-2.31 3.56h9.05c0-1.53-.93-2.86-2.31-3.55zm-4.28 1.946c-.207 0-.38-.165-.38-.374 0-.204.17-.373.38-.373s.38.17.38.38-.167.38-.38.38zm4.125 0c-.2 0-.38-.165-.38-.374 0-.204.17-.373.38-.373s.38.17.38.38-.17.38-.38.38zm-6.55 1.954v6.41c0 .58.48 1.054 1.08 1.054h.73v2.188c0 .543.45.986 1.01.986s1.01-.443 1.01-.99v-2.19h1.36v2.19c0 .543.45.986 1 .986.56 0 1.01-.443 1.01-.986v-2.19h.73c.6 0 1.08-.467 1.08-1.054v-6.41l-8.98.006zm11.38.8c0-.55-.45-.987-1-.987s-1 .443-1 .986v4.14c0 .55.45.99 1.01.99s1.01-.44 1.01-.98v-4.13z"/>
    <path fill="#51575B" d="M83.72 146.594c.53 7.97 7.155 13.156 16.718 13.156 10.374 0 16.874-5.156 16.874-13.406 0-6.47-3.78-10.063-13.124-12.406l-4.72-1.25c-6.124-1.594-8.624-3.625-8.624-7.032 0-4.406 4.062-7.437 9.906-7.437 5.875 0 9.78 2.96 10.28 7.81h5.626c-.25-7.56-6.75-12.88-15.72-12.88C91.562 113.15 85 118.4 85 125.9c0 6.126 3.688 9.78 12 11.907l5.78 1.5c6.064 1.563 8.72 3.907 8.72 7.72 0 4.437-4.438 7.655-10.53 7.655-6.44 0-11.064-3.218-11.595-8.093H83.72zm50.468 8c-4.25 0-6.97-2.03-6.97-5.156 0-3.25 2.626-5.094 7.688-5.407l8.813-.56v2.72c0 4.85-4.04 8.41-9.54 8.41zm-1.157 4.72c4.72 0 8.94-2.408 10.85-6.158h.12V159h5.16v-23.125c0-6.625-5.12-10.875-13.09-10.875-7.06 0-12.59 4.344-12.75 10.03h5.22c.66-3.186 3.56-5.186 7.47-5.186 4.97 0 7.72 2.312 7.72 6.5v2.812l-9.44.563c-8.18.5-12.62 3.9-12.62 9.68 0 5.97 4.53 9.9 11.38 9.9zm23.35-.314h5.44v-19.563c0-5.78 3.35-9.593 8.88-9.593 5.31 0 7.88 3 7.88 8.5V159H184v-21.594c0-7.656-4.28-12.406-11.688-12.406-5.218 0-8.562 1.97-10.687 5.78h-.125v-5.468h-5.125V159zm56.47 0v-19.53h19.97v-5h-19.97v-15.5h21.75v-5.064h-27.38V159h5.63zm27.47 0h5.44v-20.844c0-4.75 2.88-7.937 7.25-7.937 1.35 0 2.53.15 2.97.31v-5.35c-.47-.1-1.28-.19-2.25-.19-3.94 0-7.15 2.25-8.15 5.78h-.12v-5.47h-5.12V159zm31.28-4.406c-4.25 0-6.97-2.03-6.97-5.156 0-3.25 2.63-5.094 7.69-5.407l8.81-.56v2.72c0 4.85-4.03 8.41-9.53 8.41zm-1.15 4.72c4.72 0 8.94-2.408 10.85-6.158h.13V159h5.16v-23.125c0-6.625-5.12-10.875-13.09-10.875-7.06 0-12.59 4.344-12.75 10.03h5.22c.66-3.186 3.57-5.186 7.47-5.186 4.97 0 7.72 2.312 7.72 6.5v2.812l-9.44.563c-8.18.5-12.62 3.9-12.62 9.68 0 5.97 4.53 9.9 11.37 9.9zm23.34-.314h5.44v-19.563c0-5.78 3.34-9.593 8.88-9.593 5.31 0 7.88 3 7.88 8.5V159h5.44v-21.594c0-7.656-4.28-12.406-11.69-12.406-5.22 0-8.56 1.97-10.69 5.78h-.12v-5.468h-5.13V159zm62.69-22.72c-.69-5.905-5.78-11.28-14.12-11.28-9.22 0-15.37 6.813-15.37 17.156 0 10.594 6.19 17.156 15.44 17.156 7.69 0 13.22-4.53 14.13-11.093h-5.34c-.93 4.06-4.06 6.25-8.75 6.25-5.87 0-9.93-4.66-9.93-12.32 0-7.44 4-12.31 9.88-12.31 5.06 0 8.06 2.84 8.75 6.43h5.34zm5.58 22.72h5.44v-33.688h-5.44V159zm2.72-39.125c1.91 0 3.44-1.563 3.44-3.438 0-1.906-1.53-3.437-3.44-3.437-1.87 0-3.43 1.53-3.43 3.438 0 1.874 1.57 3.437 3.44 3.437zm9.85 14.844c0 4.5 2.88 7.46 8.78 9l5.91 1.53c3.85 1 5.25 2.25 5.25 4.62 0 3.03-2.87 4.94-7.47 4.94-4.59 0-7.37-1.85-7.93-5.28h-5.47c.54 5.84 5.79 9.78 13.04 9.78 7.78 0 13.31-4.06 13.31-9.81 0-4.91-2.43-7.28-9.25-9l-5.12-1.28c-3.87-.97-5.68-2.5-5.68-4.79 0-2.94 2.78-4.91 6.94-4.91 4.13 0 6.88 1.97 7.22 5.12h5.22c-.22-5.53-5.4-9.63-12.25-9.63-7.31 0-12.47 4-12.47 9.69zm59.16 1.56c-.69-5.91-5.78-11.28-14.13-11.28-9.22 0-15.38 6.81-15.38 17.15 0 10.59 6.19 17.15 15.44 17.15 7.69 0 13.22-4.53 14.13-11.1h-5.34c-.94 4.06-4.06 6.25-8.75 6.25-5.87 0-9.94-4.66-9.94-12.32 0-7.44 4-12.31 9.88-12.31 5.07 0 8.07 2.84 8.75 6.43h5.35zm19.15 23.03c9.47 0 15.53-6.72 15.53-17.16 0-10.47-6.06-17.16-15.53-17.16-9.47 0-15.53 6.68-15.53 17.15 0 10.44 6.06 17.15 15.53 17.15zm0-4.85c-6.25 0-10-4.6-10-12.32 0-7.72 3.72-12.31 10-12.31 6.28 0 10 4.56 10 12.31 0 7.72-3.72 12.31-10 12.31z"/>
    <path fill="#F1F4F5" d="M0 15h232v1H0zm320 0h232v1H320z"/>
    <path fill="#BAC8D1" d="M249.88 9.302c0 .277-.17.482-.46.482-.24 0-.42-.205-.42-.482 0-.265.193-.48.445-.48.265 0 .434.215.434.48zm-.667 14.467V12.7h.453v11.07h-.453zm15.54-7.89c0 5.58-3.096 8.11-6.487 8.11-3.463 0-6.268-2.75-6.268-7.89 0-5.28 2.903-8.12 6.512-8.12 3.537 0 6.244 2.79 6.244 7.88zM252.46 16c0 4.23 2.05 7.517 5.83 7.517 3.805 0 5.988-3.388 5.988-7.565 0-3.874-1.75-7.41-5.74-7.41s-6.078 3.33-6.078 7.458zm13.96 6.57c.762.508 2.075.997 3.205.997 2.144 0 4.05-1.5 4.05-3.707 0-2.05-1.27-3.118-3.426-4.037-1.93-.822-3.67-1.714-3.67-3.904 0-2.29 1.8-3.9 4.24-3.9 1.31 0 2.3.37 2.76.69l-.19.4c-.4-.28-1.45-.63-2.61-.63-2.59 0-3.71 1.95-3.71 3.39 0 1.98 1.54 2.64 3.52 3.59 2.31 1.13 3.53 2.12 3.53 4.29 0 2.33-1.66 4.22-4.61 4.22-1.23 0-2.63-.42-3.32-.95l.2-.46zM302.41 8l-5.575 7.253L291.385 8h-.818l5.89 7.72L290 24h.756l6.08-7.813 6.11 7.813h.786l-6.488-8.28 5.92-7.72"/>
  </g>
</svg>
