<svg xmlns="http://www.w3.org/2000/svg" width="552" height="240" viewBox="0 0 552 240">
  <g fill="none" fill-rule="evenodd">
    <rect width="552" height="240" fill="#FFFFFF"/>
    <path fill="#51575B" d="M42.214,145 L24.806,102.376 L18.214,102.376 L0.87,145 L7.142,145 L11.75,133.16 L30.95,133.16 L35.494,145 L42.214,145 Z M28.966,127.912 L13.798,127.912 L21.478,108.2 L28.966,127.912 Z M82.226,145 L72.306,126.76 C77.362,124.968 81.074,120.808 81.074,114.856 C81.074,107.304 75.57,102.376 66.802,102.376 L48.114,102.376 L48.114,145 L54.13,145 L54.13,127.848 L66.354,127.848 L75.442,145 L82.226,145 Z M74.866,115.304 C74.866,119.656 71.73,122.6 66.802,122.6 L54.13,122.6 L54.13,107.88 L66.61,107.88 C71.538,107.88 74.866,110.76 74.866,115.304 L74.866,115.304 Z M103.23,101.608 C94.654,101.608 88.318,106.024 88.318,113.704 C88.318,121.768 95.166,124.2 102.398,125.736 C108.99,127.208 113.854,128.168 113.854,133.224 C113.854,137.832 109.95,140.52 104.19,140.52 C99.134,140.52 94.27,138.536 91.326,133.864 L86.398,137 C89.598,142.312 95.678,145.768 103.742,145.768 C113.598,145.768 119.934,140.52 119.934,132.712 C119.934,124.136 112.382,121.896 104.19,119.976 C98.75,118.696 94.334,117.672 94.334,113.128 C94.334,108.584 98.43,106.92 102.91,106.92 C107.774,106.92 111.934,108.84 114.622,112.424 L119.23,109.16 C115.518,104.232 109.694,101.608 103.23,101.608 L103.23,101.608 Z M189.654,145 L189.654,102.376 L180.886,102.376 L167.382,137.512 L153.878,102.376 L144.918,102.376 L144.918,145 L150.678,145 L150.678,108.584 L164.694,145 L169.878,145 L183.766,108.584 L183.766,145 L189.654,145 Z M229.73,140.648 C229.282,140.968 228.514,141.16 227.746,141.16 C225.89,141.16 225.122,140.008 225.122,137.576 L225.122,121.832 C225.122,114.152 219.81,110.952 212.258,110.952 C207.01,110.952 202.85,112.488 198.946,115.176 L201.506,119.4 C204.578,117.096 208.29,115.88 211.874,115.88 C215.394,115.88 219.426,117.032 219.426,120.744 C219.426,124.968 213.986,124.968 208.866,125.672 C204.13,126.312 197.346,127.912 197.346,135.656 C197.346,141.992 201.826,145.768 208.674,145.768 C212.706,145.768 217.186,144.424 220.13,140.2 C220.642,143.976 223.458,145.512 226.594,145.512 C227.682,145.512 229.346,145.32 230.434,144.872 L229.73,140.648 Z M219.554,132.2 C219.554,138.536 214.818,141.16 209.954,141.16 C206.114,141.16 203.042,139.496 203.042,135.528 C203.042,131.432 206.178,130.536 209.954,129.896 C214.05,129.192 217.314,129.256 219.554,126.44 L219.554,132.2 Z M266.286,156.136 L266.286,111.72 L260.718,111.72 L260.718,117.224 C257.582,112.744 253.422,110.952 248.878,110.952 C239.406,110.952 233.582,118.568 233.582,128.424 C233.582,138.216 239.406,145.768 248.878,145.768 C253.358,145.768 257.582,144.04 260.718,139.56 L260.718,156.136 L266.286,156.136 Z M260.718,128.36 C260.718,135.144 256.942,140.648 249.902,140.648 C242.862,140.648 239.47,135.08 239.47,128.36 C239.47,121.512 242.926,116.136 249.902,116.136 C256.942,116.136 260.718,121.512 260.718,128.36 L260.718,128.36 Z M298.426,111.72 L298.426,130.216 C298.426,136.424 294.074,140.584 288.314,140.584 C282.106,140.584 280.954,135.912 280.954,131.944 L280.954,111.72 L275.386,111.72 L275.386,133.224 C275.386,141.096 279.866,145.768 287.034,145.768 C291.898,145.768 295.61,143.528 298.426,139.56 L298.426,145 L303.994,145 L303.994,111.72 L298.426,111.72 Z M343.494,127.528 C343.494,118.248 337.414,110.952 327.622,110.952 C317.446,110.952 311.302,118.696 311.302,128.488 C311.302,138.344 317.51,145.768 328.326,145.768 C334.214,145.768 338.63,143.592 342.022,139.944 L338.31,136.296 C335.686,139.112 332.422,140.648 328.454,140.648 C321.926,140.648 317.574,136.616 317.254,129.704 L343.366,129.704 C343.43,129.256 343.494,128.552 343.494,127.528 L343.494,127.528 Z M317.382,125.416 C317.83,119.784 321.734,115.752 327.558,115.752 C332.806,115.752 337.158,119.016 337.734,125.416 L317.382,125.416 Z M367.442,139.304 C366.546,140.008 365.138,140.712 363.154,140.712 C359.762,140.712 358.034,138.792 358.034,134.952 L358.034,116.328 L368.786,116.328 L368.786,111.72 L358.034,111.72 L358.034,102.376 L352.466,102.376 L352.466,111.72 L346.706,111.72 L346.706,116.328 L352.466,116.328 L352.466,134.952 C352.466,138.088 352.85,139.944 353.874,141.544 C355.666,144.424 358.674,145.768 362.578,145.768 C365.394,145.768 367.826,145.064 369.81,143.528 L367.442,139.304 Z M392.158,139.304 C391.262,140.008 389.854,140.712 387.87,140.712 C384.478,140.712 382.75,138.792 382.75,134.952 L382.75,116.328 L393.502,116.328 L393.502,111.72 L382.75,111.72 L382.75,102.376 L377.182,102.376 L377.182,111.72 L371.422,111.72 L371.422,116.328 L377.182,116.328 L377.182,134.952 C377.182,138.088 377.566,139.944 378.59,141.544 C380.382,144.424 383.39,145.768 387.294,145.768 C390.11,145.768 392.542,145.064 394.526,143.528 L392.158,139.304 Z M429.93,127.528 C429.93,118.248 423.85,110.952 414.058,110.952 C403.882,110.952 397.738,118.696 397.738,128.488 C397.738,138.344 403.946,145.768 414.762,145.768 C420.65,145.768 425.066,143.592 428.458,139.944 L424.746,136.296 C422.122,139.112 418.858,140.648 414.89,140.648 C408.362,140.648 404.01,136.616 403.69,129.704 L429.802,129.704 C429.866,129.256 429.93,128.552 429.93,127.528 L429.93,127.528 Z M403.818,125.416 C404.266,119.784 408.17,115.752 413.994,115.752 C419.242,115.752 423.594,119.016 424.17,125.416 L403.818,125.416 Z M487.426,115.624 C487.426,107.688 482.05,102.376 472.386,102.376 L454.466,102.376 L454.466,145 L460.482,145 L460.482,128.808 L472.386,128.808 C482.05,128.808 487.426,123.56 487.426,115.624 L487.426,115.624 Z M460.482,123.304 L460.482,107.88 L472.386,107.88 C478.338,107.88 481.218,110.888 481.218,115.624 C481.218,120.296 478.338,123.304 472.386,123.304 L460.482,123.304 Z M513.55,112.296 C512.59,111.656 510.926,111.08 509.006,111.08 C504.91,111.08 501.582,113.768 499.342,117.352 L499.342,111.72 L493.774,111.72 L493.774,145 L499.342,145 L499.342,127.656 C499.342,120.488 503.502,116.584 507.918,116.584 C509.454,116.584 510.67,117.032 511.758,117.608 L513.55,112.296 Z M549.018,128.424 C549.018,118.312 542.682,110.952 532.634,110.952 C522.522,110.952 516.25,118.312 516.25,128.424 C516.25,138.408 522.522,145.768 532.634,145.768 C542.682,145.768 549.018,138.408 549.018,128.424 L549.018,128.424 Z M543.066,128.424 C543.066,135.336 539.29,140.776 532.634,140.776 C525.978,140.776 522.138,135.336 522.138,128.424 C522.138,121.384 525.978,116.008 532.634,116.008 C539.29,116.008 543.066,121.384 543.066,128.424 L543.066,128.424 Z"/>
  </g>
</svg>
