<svg xmlns="http://www.w3.org/2000/svg" width="552" height="736" viewBox="0 0 552 736" xmlns:xlink="http://www.w3.org/1999/xlink">
  <defs>
    <path id="a" d="M211.890625 639l17.59375-45.8125h6.53125l18.75 45.8125h-6.90625l-5.34375-13.875h-19.15625L218.328125 639h-6.4375zm13.21875-18.8125h15.53125l-4.78125-12.6875c-1.458341-3.854186-2.541663-7.020821-3.25-9.5-.583336 2.937515-1.406245 5.854152-2.46875 8.75l-5.03125 13.4375zM258.828125 639v-33.1875h5.0625v5.03125c1.291673-2.354178 2.48437-3.906246 3.578125-4.65625 1.093755-.750004 2.296868-1.125 3.609375-1.125 1.895843 0 3.822907.604161 5.78125 1.8125l-1.9375 5.21875c-1.375007-.812504-2.749993-1.21875-4.125-1.21875-1.229173 0-2.333328.369788-3.3125 1.109375-.979172.739587-1.677081 1.765618-2.09375 3.078125-.625003 2.00001-.9375 4.187488-.9375 6.5625V639h-5.625zm21.40625-39.34375v-6.46875h5.625v6.46875h-5.625zm0 39.34375v-33.1875h5.625V639h-5.625zm35.84375-4.09375c-2.083344 1.770842-4.088532 3.02083-6.015625 3.75-1.927093.72917-3.994781 1.09375-6.203125 1.09375-3.645852 0-6.447907-.890616-8.40625-2.671875-1.958343-1.781259-2.9375-4.057278-2.9375-6.828125 0-1.625008.369788-3.109368 1.109375-4.453125s1.708327-2.421871 2.90625-3.234375c1.197923-.812504 2.546867-1.427081 4.046875-1.84375 1.104172-.291668 2.770822-.572915 5-.84375 4.541689-.541669 7.885406-1.187496 10.03125-1.9375.020833-.770837.03125-1.260416.03125-1.46875 0-2.291678-.531245-3.906245-1.59375-4.84375-1.437507-1.27084-3.572902-1.90625-6.40625-1.90625-2.645847 0-4.598952.463537-5.859375 1.390625-1.260423.927088-2.192705 2.567697-2.796875 4.921875l-5.5-.75c.500002-2.354178 1.322911-4.255201 2.46875-5.703125 1.145839-1.447924 2.802073-2.562496 4.96875-3.34375 2.166677-.781254 4.677069-1.171875 7.53125-1.171875 2.833348 0 5.135408.33333 6.90625 1s3.072913 1.505203 3.90625 2.515625c.833338 1.010422 1.416665 2.286451 1.75 3.828125.187501.958338.28125 2.687487.28125 5.1875v7.5c0 5.229193.11979 8.536451.359375 9.921875.239585 1.385424.713538 2.713535 1.421875 3.984375h-5.875c-.583336-1.166673-.958332-2.531242-1.125-4.09375zm-.46875-12.5625c-2.041677.833337-5.104146 1.541664-9.1875 2.125-2.312512.333335-3.947912.708331-4.90625 1.125-.958338.416669-1.697914 1.026038-2.21875 1.828125-.520836.802087-.78125 1.692703-.78125 2.671875 0 1.500008.567703 2.749995 1.703125 3.75 1.135422 1.000005 2.796864 1.5 4.984375 1.5 2.166677 0 4.093742-.473954 5.78125-1.421875 1.687508-.947921 2.927079-2.244783 3.71875-3.890625.60417-1.27084.90625-3.145821.90625-5.625v-2.0625zM329.890625 639v-45.8125h5.625V639h-5.625z"/>
    <path id="b" d="M195.109375 379.59375h-10.6875V398h-6.03125v-45.5h15.0625c5.125026 0 9.067695 1.166655 11.828125 3.5 2.76043 2.333345 4.140625 5.729144 4.140625 10.1875 0 2.833348-.765617 5.302073-2.296875 7.40625s-3.661445 3.677078-6.390625 4.71875l10.6875 19.3125V398h-6.4375l-9.875-18.40625zm-10.6875-4.90625h9.21875c1.625008 0 3.046869-.223956 4.265625-.671875s2.234371-1.05208 3.046875-1.8125c.812504-.76042 1.421873-1.656245 1.828125-2.6875.406252-1.031255.609375-2.140619.609375-3.328125 0-1.312507-.192706-2.505203-.578125-3.578125-.385419-1.072922-.984371-1.994788-1.796875-2.765625s-1.843744-1.364581-3.09375-1.78125c-1.250006-.416669-2.739575-.625-4.46875-.625h-9.03125v17.25zm30.96875 6.09375c0-2.458346.359371-4.734365 1.078125-6.828125.718754-2.09376 1.739577-3.911451 3.0625-5.453125s2.932282-2.749996 4.828125-3.625c1.895843-.875004 4.020822-1.3125 6.375-1.3125 2.395845 0 4.546865.437496 6.453125 1.3125 1.90626.875004 3.526035 2.083326 4.859375 3.625 1.33334 1.541674 2.354163 3.359365 3.0625 5.453125.708337 2.09376 1.0625 4.369779 1.0625 6.828125v.6875c0 2.458346-.354163 4.734365-1.0625 6.828125-.708337 2.09376-1.72916 3.906242-3.0625 5.4375-1.33334 1.531258-2.947907 2.729162-4.84375 3.59375-1.895843.864588-4.031238 1.296875-6.40625 1.296875s-4.510407-.432287-6.40625-1.296875c-1.895843-.864588-3.51041-2.062492-4.84375-3.59375-1.33334-1.531258-2.359371-3.34374-3.078125-5.4375-.718754-2.09376-1.078125-4.369779-1.078125-6.828125v-.6875zm5.8125.6875c0 1.687508.197915 3.281243.59375 4.78125s.994788 2.817703 1.796875 3.953125c.802087 1.135422 1.802077 2.036455 3 2.703125 1.197923.66667 2.59895 1 4.203125 1 1.583341 0 2.979161-.33333 4.1875-1s2.208329-1.567703 3-2.703125 1.390623-2.453118 1.796875-3.953125c.406252-1.500007.609375-3.093742.609375-4.78125v-.6875c0-1.666675-.203123-3.255201-.609375-4.765625s-1.010413-2.833328-1.8125-3.96875c-.802087-1.135422-1.807286-2.041663-3.015625-2.71875-1.208339-.677087-2.614575-1.015625-4.21875-1.015625-1.583341 0-2.968744.338538-4.15625 1.015625s-2.182288 1.583328-2.984375 2.71875c-.802087 1.135422-1.40104 2.458326-1.796875 3.96875-.395835 1.510424-.59375 3.09895-.59375 4.765625v.6875zm60.84375 0c0 2.479179-.291664 4.765615-.875 6.859375-.583336 2.09376-1.437494 3.906242-2.5625 5.4375-1.125006 1.531258-2.499992 2.723954-4.125 3.578125-1.625008.854171-3.479156 1.28125-5.5625 1.28125-2.229178 0-4.156242-.390621-5.78125-1.171875-1.625008-.781254-2.999994-1.901034-4.125-3.359375L258.734375 398h-5.3125v-48h5.78125v17.90625c1.125006-1.39584 2.479159-2.468746 4.0625-3.21875 1.583341-.750004 3.447906-1.125 5.59375-1.125 2.125011 0 4.0052.416663 5.640625 1.25 1.635425.833337 3.010411 2.005201 4.125 3.515625s1.963539 3.322906 2.546875 5.4375c.583336 2.114594.875 4.463529.875 7.046875v.65625zm-5.78125-.65625c0-1.687508-.156248-3.276034-.46875-4.765625-.312502-1.489591-.817705-2.796869-1.515625-3.921875s-1.609369-2.015622-2.734375-2.671875-2.499992-.984375-4.125-.984375c-1.062505 0-2.020829.135415-2.875.40625s-1.619788.645831-2.296875 1.125c-.677087.479169-1.265623 1.041663-1.765625 1.6875-.500002.645837-.927082 1.343746-1.28125 2.09375v14.625c.375002.750004.817706 1.447913 1.328125 2.09375s1.104163 1.208331 1.78125 1.6875c.677087.479169 1.442704.854165 2.296875 1.125.854171.270835 1.812495.40625 2.875.40625 1.562508 0 2.895828-.322913 4-.96875 1.104172-.645837 2.010413-1.520828 2.71875-2.625.708337-1.104172 1.229165-2.401034 1.5625-3.890625.333335-1.489591.5-3.078117.5-4.765625v-.65625zm11.53125-.03125c0-2.458346.359371-4.734365 1.078125-6.828125.718754-2.09376 1.739577-3.911451 3.0625-5.453125s2.932282-2.749996 4.828125-3.625c1.895843-.875004 4.020822-1.3125 6.375-1.3125 2.395845 0 4.546865.437496 6.453125 1.3125 1.90626.875004 3.526035 2.083326 4.859375 3.625 1.33334 1.541674 2.354163 3.359365 3.0625 5.453125.708337 2.09376 1.0625 4.369779 1.0625 6.828125v.6875c0 2.458346-.354163 4.734365-1.0625 6.828125-.708337 2.09376-1.72916 3.906242-3.0625 5.4375-1.33334 1.531258-2.947907 2.729162-4.84375 3.59375-1.895843.864588-4.031238 1.296875-6.40625 1.296875s-4.510407-.432287-6.40625-1.296875c-1.895843-.864588-3.51041-2.062492-4.84375-3.59375-1.33334-1.531258-2.359371-3.34374-3.078125-5.4375-.718754-2.09376-1.078125-4.369779-1.078125-6.828125v-.6875zm5.8125.6875c0 1.687508.197915 3.281243.59375 4.78125s.994788 2.817703 1.796875 3.953125c.802087 1.135422 1.802077 2.036455 3 2.703125 1.197923.66667 2.59895 1 4.203125 1 1.583341 0 2.979161-.33333 4.1875-1s2.208329-1.567703 3-2.703125 1.390623-2.453118 1.796875-3.953125c.406252-1.500007.609375-3.093742.609375-4.78125v-.6875c0-1.666675-.203123-3.255201-.609375-4.765625s-1.010413-2.833328-1.8125-3.96875c-.802087-1.135422-1.807286-2.041663-3.015625-2.71875-1.208339-.677087-2.614575-1.015625-4.21875-1.015625-1.583341 0-2.968744.338538-4.15625 1.015625s-2.182288 1.583328-2.984375 2.71875c-.802087 1.135422-1.40104 2.458326-1.796875 3.96875-.395835 1.510424-.59375 3.09895-.59375 4.765625v.6875zM333.671875 356v8.1875h6.3125v4.46875h-6.3125V389.625c0 .875004.104166 1.578122.3125 2.109375.208334.531253.484373.942707.828125 1.234375.343752.291668.739581.484375 1.1875.578125.447919.09375.911456.140625 1.390625.140625.479169 0 .984372-.046875 1.515625-.140625s.942707-.171875 1.234375-.234375V398c-.458336.125001-1.05208.260416-1.78125.40625-.72917.145834-1.614578.21875-2.65625.21875-1.062505 0-2.067704-.15104-3.015625-.453125s-1.776038-.807288-2.484375-1.515625-1.270831-1.640619-1.6875-2.796875c-.416669-1.156256-.625-2.578117-.625-4.265625v-20.9375h-6.15625v-4.46875h6.15625V356h5.78125zm11.53125 24.78125c0-2.458346.359371-4.734365 1.078125-6.828125.718754-2.09376 1.739577-3.911451 3.0625-5.453125s2.932282-2.749996 4.828125-3.625c1.895843-.875004 4.020822-1.3125 6.375-1.3125 2.395845 0 4.546865.437496 6.453125 1.3125 1.90626.875004 3.526035 2.083326 4.859375 3.625 1.33334 1.541674 2.354163 3.359365 3.0625 5.453125.708337 2.09376 1.0625 4.369779 1.0625 6.828125v.6875c0 2.458346-.354163 4.734365-1.0625 6.828125-.708337 2.09376-1.72916 3.906242-3.0625 5.4375-1.33334 1.531258-2.947907 2.729162-4.84375 3.59375-1.895843.864588-4.031238 1.296875-6.40625 1.296875s-4.510407-.432287-6.40625-1.296875c-1.895843-.864588-3.51041-2.062492-4.84375-3.59375-1.33334-1.531258-2.359371-3.34374-3.078125-5.4375-.718754-2.09376-1.078125-4.369779-1.078125-6.828125v-.6875zm5.8125.6875c0 1.687508.197915 3.281243.59375 4.78125s.994788 2.817703 1.796875 3.953125c.802087 1.135422 1.802077 2.036455 3 2.703125 1.197923.66667 2.59895 1 4.203125 1 1.583341 0 2.979161-.33333 4.1875-1s2.208329-1.567703 3-2.703125 1.390623-2.453118 1.796875-3.953125c.406252-1.500007.609375-3.093742.609375-4.78125v-.6875c0-1.666675-.203123-3.255201-.609375-4.765625s-1.010413-2.833328-1.8125-3.96875c-.802087-1.135422-1.807286-2.041663-3.015625-2.71875-1.208339-.677087-2.614575-1.015625-4.21875-1.015625-1.583341 0-2.968744.338538-4.15625 1.015625s-2.182288 1.583328-2.984375 2.71875c-.802087 1.135422-1.40104 2.458326-1.796875 3.96875-.395835 1.510424-.59375 3.09895-.59375 4.765625v.6875z"/>
    <path id="c" d="M83.71875 146.59375C84.25 154.5625 90.875 159.75 100.4375 159.75c10.375 0 16.875-5.15625 16.875-13.40625 0-6.46875-3.78125-10.0625-13.125-12.40625l-4.71875-1.25c-6.125-1.59375-8.625-3.625-8.625-7.03125 0-4.40625 4.0625-7.4375 9.90625-7.4375 5.875 0 9.78125 2.96875 10.28125 7.8125h5.625c-.25-7.5625-6.75-12.875-15.71875-12.875-9.375 0-15.9375 5.25-15.9375 12.75 0 6.125 3.6875 9.78125 12 11.90625l5.78125 1.5c6.0625 1.5625 8.71875 3.90625 8.71875 7.71875 0 4.4375-4.4375 7.65625-10.53125 7.65625-6.4375 0-11.0625-3.21875-11.59375-8.09375h-5.65625zm50.46875 8c-4.25 0-6.96875-2.03125-6.96875-5.15625 0-3.25 2.625-5.09375 7.6875-5.40625l8.8125-.5625v2.71875c0 4.84375-4.03125 8.40625-9.53125 8.40625zm-1.15625 4.71875c4.71875 0 8.9375-2.40625 10.84375-6.15625H144V159h5.15625v-23.125c0-6.625-5.125-10.875-13.09375-10.875-7.0625 0-12.59375 4.34375-12.75 10.03125h5.21875c.65625-3.1875 3.5625-5.1875 7.46875-5.1875 4.96875 0 7.71875 2.3125 7.71875 6.5v2.8125l-9.4375.5625c-8.1875.5-12.625 3.90625-12.625 9.6875 0 5.96875 4.53125 9.90625 11.375 9.90625zM156.375 159h5.4375v-19.5625c0-5.78125 3.34375-9.59375 8.875-9.59375 5.3125 0 7.875 3 7.875 8.5V159H184v-21.59375C184 129.75 179.71875 125 172.3125 125c-5.21875 0-8.5625 1.96875-10.6875 5.78125h-.125v-5.46875h-5.125V159zm56.46875 0v-19.53125h19.96875v-5h-19.96875v-15.5h21.75v-5.0625h-27.375V159h5.625zm27.46875 0h5.4375v-20.84375c0-4.75 2.875-7.9375 7.25-7.9375 1.34375 0 2.53125.15625 2.96875.3125v-5.34375c-.46875-.09375-1.28125-.1875-2.25-.1875-3.9375 0-7.15625 2.25-8.15625 5.78125h-.125v-5.46875h-5.125V159zm31.28125-4.40625c-4.25 0-6.96875-2.03125-6.96875-5.15625 0-3.25 2.625-5.09375 7.6875-5.40625l8.8125-.5625v2.71875c0 4.84375-4.03125 8.40625-9.53125 8.40625zm-1.15625 4.71875c4.71875 0 8.9375-2.40625 10.84375-6.15625h.125V159h5.15625v-23.125c0-6.625-5.125-10.875-13.09375-10.875-7.0625 0-12.59375 4.34375-12.75 10.03125h5.21875c.65625-3.1875 3.5625-5.1875 7.46875-5.1875 4.96875 0 7.71875 2.3125 7.71875 6.5v2.8125l-9.4375.5625c-8.1875.5-12.625 3.90625-12.625 9.6875 0 5.96875 4.53125 9.90625 11.375 9.90625zM293.78125 159h5.4375v-19.5625c0-5.78125 3.34375-9.59375 8.875-9.59375 5.3125 0 7.875 3 7.875 8.5V159h5.4375v-21.59375C321.40625 129.75 317.125 125 309.71875 125c-5.21875 0-8.5625 1.96875-10.6875 5.78125h-.125v-5.46875h-5.125V159zm62.6875-22.71875C355.78125 130.375 350.6875 125 342.34375 125c-9.21875 0-15.375 6.8125-15.375 17.15625 0 10.59375 6.1875 17.15625 15.4375 17.15625 7.6875 0 13.21875-4.53125 14.125-11.09375h-5.34375c-.9375 4.0625-4.0625 6.25-8.75 6.25-5.875 0-9.9375-4.65625-9.9375-12.3125 0-7.4375 4-12.3125 9.875-12.3125 5.0625 0 8.0625 2.84375 8.75 6.4375h5.34375zM362.0625 159H367.5v-33.6875h-5.4375V159zm2.71875-39.125c1.90625 0 3.4375-1.5625 3.4375-3.4375 0-1.90625-1.53125-3.4375-3.4375-3.4375-1.875 0-3.4375 1.53125-3.4375 3.4375 0 1.875 1.5625 3.4375 3.4375 3.4375zm9.84375 14.84375c0 4.5 2.875 7.46875 8.78125 9l5.90625 1.53125c3.84375 1 5.25 2.25 5.25 4.625 0 3.03125-2.875 4.9375-7.46875 4.9375s-7.375-1.84375-7.9375-5.28125h-5.46875c.53125 5.84375 5.78125 9.78125 13.03125 9.78125 7.78125 0 13.3125-4.0625 13.3125-9.8125 0-4.90625-2.4375-7.28125-9.25-9l-5.125-1.28125c-3.875-.96875-5.6875-2.5-5.6875-4.78125 0-2.9375 2.78125-4.90625 6.9375-4.90625 4.125 0 6.875 1.96875 7.21875 5.125h5.21875c-.21875-5.53125-5.40625-9.625-12.25-9.625-7.3125 0-12.46875 4-12.46875 9.6875zm59.15625 1.5625C433.09375 130.375 428 125 419.65625 125c-9.21875 0-15.375 6.8125-15.375 17.15625 0 10.59375 6.1875 17.15625 15.4375 17.15625 7.6875 0 13.21875-4.53125 14.125-11.09375H428.5c-.9375 4.0625-4.0625 6.25-8.75 6.25-5.875 0-9.9375-4.65625-9.9375-12.3125 0-7.4375 4-12.3125 9.875-12.3125 5.0625 0 8.0625 2.84375 8.75 6.4375h5.34375zm19.15625 23.03125c9.46875 0 15.53125-6.71875 15.53125-17.15625 0-10.46875-6.0625-17.15625-15.53125-17.15625s-15.53125 6.6875-15.53125 17.15625c0 10.4375 6.0625 17.15625 15.53125 17.15625zm0-4.84375c-6.25 0-10-4.59375-10-12.3125s3.71875-12.3125 10-12.3125 10 4.5625 10 12.3125c0 7.71875-3.71875 12.3125-10 12.3125z"/>
  </defs>
  <g fill="none" fill-rule="evenodd">
    <path fill="#FFF" d="M0 0h552v736H0z"/>
    <use fill="#8D989F" xlink:href="#a"/>
    <use fill="#000" fill-opacity=".72" xlink:href="#a"/>
    <path fill="#F1F4F5" d="M0 496h252v1H0zm300 0h252v1H300z"/>
    <path fill="#BAC8D1" d="M275.310944 489.255655c2.878684-.440485 5.762851-.855381 8.647018-1.255655.001828 2.527759 0 5.05369.001828 7.581448-2.882339.010967-5.764679.054832-8.648846.063971-.001828-2.13114-.001828-4.260452 0-6.389766v.000002zM268 490.275531c2.167695-.334476 4.344528-.623258 6.521362-.89559.001827 2.096412.001827 4.190998.003655 6.287411-2.175006-.001828-4.350011.031071-6.525017.025588v-5.417409zm0 6.077222c2.173178-.007311 4.346356.027416 6.519534.02376 0 2.101896.005483 4.203793.001828 6.30569-2.171351-.321682-4.346356-.603154-6.521362-.897419v-5.432031zm7.298149.084076h8.659812c.003657 2.520448 0 5.040895 0 7.563171-2.878684-.431346-5.762851-.83162-8.647018-1.222756-.003655-2.112862-.009138-4.225725-.012794-6.340415z"/>
    <use fill="#8D989F" xlink:href="#b"/>
    <use fill="#000" fill-opacity=".72" xlink:href="#b"/>
    <path fill="#F1F4F5" d="M0 256h252v1H0zm300 0h252v1H300z"/>
    <path fill="#BAC8D1" d="M270.003386 253.17485c-.556945 0-1.003386.442907-1.003386.985684v4.133791c0 .54712.450861.985684 1.003386.985684.556946 0 1.003387-.442906 1.003387-.985684v-4.133791c0-.542777-.450861-.985684-1.003387-.985684zm8.102236-3.712596l.702812-1.259243c.035362-.065134.013261-.147636-.053042-.186716-.066303-.034738-.154708-.013026-.190069.056449l-.707233 1.27227c-.596728-.260533-1.264178-.408169-1.971411-.408169-.702813 0-1.370264.143294-1.962571.403827l-.707233-1.267928c-.035361-.065133-.123766-.091187-.190069-.056449-.066303.034738-.092824.121582-.057462.186716l.702812 1.259243c-1.379104.699097-2.311767 2.027816-2.311767 3.556276h9.052579c0-1.52846-.928243-2.857179-2.307346-3.556276zm-4.278759 1.945314c-.207749 0-.380137-.165005-.380137-.373431 0-.204084.167968-.373431.380137-.373431.20775 0 .380138.169347.380138.373431 0 .208426-.167968.373431-.380138.373431zm4.124051 0c-.207749 0-.380137-.165005-.380137-.373431 0-.204084.167968-.373431.380137-.373431.20775 0 .380138.169347.380138.373431-.00442.204084-.172388.373431-.380138.373431zm-6.555163 1.953998v6.409114c0 .581857.477382 1.055159 1.07411 1.055159h.729333v2.188477c0 .542778.450861.985684 1.003387.985684.556946 0 1.003386-.442906 1.003386-.990026v-2.188478h1.357003v2.188478c0 .542778.450861.985684 1.003387.985684.556945 0 1.003386-.442906 1.003386-.985684v-2.188478h.733754c.592307 0 1.07411-.468959 1.07411-1.055159v-6.409114l-8.981856.004343zm11.382027.798968c0-.54712-.450861-.985684-1.003387-.985684-.556945 0-1.003386.442907-1.003386.985684v4.133791c0 .54712.450861.985684 1.003386.985684.556946 0 1.003387-.442906 1.003387-.985684v-4.133791z"/>
    <use fill="#8D989F" xlink:href="#c"/>
    <use fill="#000" fill-opacity=".72" xlink:href="#c"/>
    <path fill="#F1F4F5" d="M0 15h208v1H0zm345 0h207v1H345z"/>
    <path fill="#BAC8D1" d="M225.723813 24V13.352h-1.936V24h1.936zm-.99-12.452c.748 0 1.21-.55 1.21-1.188 0-.682-.484-1.21-1.188-1.21-.726 0-1.21.528-1.21 1.21 0 .638.462 1.188 1.166 1.188h.022zm9.904125 12.694c3.762 0 6.864-2.728 6.864-7.81 0-4.4-2.618-7.502-6.688-7.502-3.96 0-6.864 3.08-6.864 7.788 0 4.488 2.728 7.524 6.666 7.524h.022zm.066-1.562c-3.014 0-4.73-2.882-4.73-6.006 0-3.212 1.584-6.182 4.774-6.182s4.73 3.08 4.73 6.028c0 3.366-1.716 6.16-4.752 6.16h-.022zm8.364125.572c.792.528 2.354.968 3.784.968 3.498 0 5.17-2.002 5.17-4.268 0-2.178-1.254-3.366-3.762-4.356-2.046-.792-2.948-1.474-2.948-2.838 0-1.012.77-2.222 2.794-2.222 1.342 0 2.332.418 2.794.704l.528-1.584c-.638-.352-1.76-.704-3.256-.704-2.882 0-4.796 1.716-4.796 4.026 0 2.068 1.496 3.344 3.916 4.18 2.002.748 2.794 1.562 2.794 2.948 0 1.496-1.144 2.508-3.102 2.508-1.32 0-2.552-.418-3.41-.946l-.506 1.584zm24.561625.748h1.892v-6.424c0-.33.044-.66.154-.946.308-.968 1.21-1.936 2.398-1.936 1.474 0 2.222 1.21 2.222 2.904V24h1.892v-6.6c0-.33.066-.682.154-.968.352-.924 1.188-1.738 2.31-1.738 1.54 0 2.31 1.21 2.31 3.278V24h1.892v-6.27c0-3.696-2.09-4.62-3.52-4.62-1.012 0-1.694.264-2.332.748-.44.33-.88.77-1.21 1.386h-.044c-.462-1.254-1.562-2.134-2.992-2.134-1.782 0-2.772.946-3.366 1.958h-.066l-.088-1.716h-1.694c.044.88.088 1.76.088 2.882V24zm25.678125-6.534c0-2.134-.792-4.356-4.07-4.356-1.342 0-2.64.374-3.52.924l.44 1.298c.748-.506 1.782-.792 2.794-.792 2.178-.022 2.42 1.584 2.42 2.464v.22c-4.114-.022-6.402 1.386-6.402 3.96 0 1.54 1.1 3.058 3.256 3.058 1.518 0 2.684-.748 3.256-1.584h.066l.176 1.342h1.738c-.11-.726-.154-1.628-.154-2.552v-3.982zm-1.892 2.948c0 .198-.022.418-.088.616-.308.902-1.21 1.782-2.618 1.782-.968 0-1.804-.572-1.804-1.848 0-2.068 2.398-2.442 4.51-2.398v1.848zm12.082125 1.738c-.55.242-1.276.506-2.376.506-2.112 0-3.696-1.518-3.696-3.982 0-2.2 1.32-4.026 3.762-4.026 1.056 0 1.782.264 2.244.506l.44-1.474c-.528-.286-1.54-.572-2.684-.572-3.476 0-5.72 2.398-5.72 5.676 0 3.256 2.09 5.434 5.302 5.434 1.43 0 2.552-.374 3.058-.616l-.33-1.452zm8.298125 2.09c3.762 0 6.864-2.728 6.864-7.81 0-4.4-2.618-7.502-6.688-7.502-3.96 0-6.864 3.08-6.864 7.788 0 4.488 2.728 7.524 6.666 7.524h.022zm.066-1.562c-3.014 0-4.73-2.882-4.73-6.006 0-3.212 1.584-6.182 4.774-6.182s4.73 3.08 4.73 6.028c0 3.366-1.716 6.16-4.752 6.16h-.022zm8.364125.572c.792.528 2.354.968 3.784.968 3.498 0 5.17-2.002 5.17-4.268 0-2.178-1.254-3.366-3.762-4.356-2.046-.792-2.948-1.474-2.948-2.838 0-1.012.77-2.222 2.794-2.222 1.342 0 2.332.418 2.794.704l.528-1.584c-.638-.352-1.76-.704-3.256-.704-2.882 0-4.796 1.716-4.796 4.026 0 2.068 1.496 3.344 3.916 4.18 2.002.748 2.794 1.562 2.794 2.948 0 1.496-1.144 2.508-3.102 2.508-1.32 0-2.552-.418-3.41-.946l-.506 1.584z"/>
  </g>
</svg>
